<svg width="500" height="500" viewBox="0 0 500 500" fill="none" xmlns="http://www.w3.org/2000/svg">
<path d="M449.901 398.494H416.779V398.744H449.901V398.494Z" fill="#EBEBEB"/>
<path d="M331.22 401.208H322.527V401.458H331.22V401.208Z" fill="#EBEBEB"/>
<path d="M415.778 389.208H396.586V389.458H415.778V389.208Z" fill="#EBEBEB"/>
<path d="M95.652 390.888H52.459V391.138H95.652V390.888Z" fill="#EBEBEB"/>
<path d="M110.889 390.888H104.556V391.138H110.889V390.888Z" fill="#EBEBEB"/>
<path d="M225.147 395.111H131.471V395.361H225.147V395.111Z" fill="#EBEBEB"/>
<path d="M238.401 337.8H45.302C42.155 337.8 39.594 335.239 39.594 332.092V60.6599C39.594 57.5129 42.155 54.9519 45.302 54.9519H238.401C241.547 54.9519 244.108 57.5129 244.108 60.6599V332.092C244.108 335.239 241.547 337.8 238.401 337.8ZM45.302 55.2029C42.292 55.2029 39.844 57.6509 39.844 60.6609V332.093C39.844 335.103 42.292 337.551 45.302 337.551H238.401C241.41 337.551 243.858 335.103 243.858 332.093V60.6599C243.858 57.6509 241.41 55.2019 238.401 55.2019L45.302 55.2029Z" fill="#EBEBEB"/>
<path d="M454.698 338.058H261.599C258.453 338.058 255.892 335.498 255.892 332.35V60.9189C255.892 57.7719 258.453 55.2109 261.599 55.2109H454.698C457.846 55.2109 460.406 57.7719 460.406 60.9189V332.35C460.406 335.498 457.845 338.058 454.698 338.058ZM261.599 55.4609C258.59 55.4609 256.142 57.9089 256.142 60.9189V332.35C256.142 335.36 258.59 337.808 261.599 337.808H454.698C457.708 337.808 460.156 335.36 460.156 332.35V60.9189C460.156 57.9099 457.708 55.4609 454.698 55.4609H261.599Z" fill="#EBEBEB"/>
<path d="M500 382.398H0V382.648H500V382.398Z" fill="#EBEBEB"/>
<path d="M304.534 114.474H357.799C357.799 114.474 370.29 109.769 368.675 97.3099C367.06 84.8499 348.202 95.2319 348.202 95.2319C348.202 95.2319 353.918 77.8479 335.656 82.7799C317.394 87.7119 315.614 104.947 315.614 104.947C315.614 104.947 291.627 100.76 304.534 114.474Z" fill="#F5F5F5"/>
<path d="M101.309 131.591C108.423 133.375 116.408 127.434 116.744 120.108C116.843 117.95 116.379 115.779 116.655 113.636C117.534 106.799 127.371 103.22 132.438 107.894C133.203 96.8439 141.755 86.7799 152.536 84.2409C156.364 83.3389 160.59 83.3658 164.007 85.3118C167.424 87.2578 169.711 91.4689 168.579 95.2349C170.419 88.4779 176.434 82.9689 183.374 82.0359C190.314 81.1029 197.72 84.9979 200.612 91.3759C203.503 97.7539 201.406 106.087 195.667 110.099C199.629 105.804 207.991 105.562 209.959 109.023C210.73 110.379 211.214 111.867 211.179 113.426C210.991 121.929 204.711 127.648 196.962 131.154C189.214 134.659 107.69 134.945 101.309 131.591Z" fill="#F5F5F5"/>
<path d="M411.837 157.904C411.832 157.997 411.828 158.09 411.823 158.183C411.475 158.232 412.33 159.216 412.521 158.921C412.712 158.627 412.448 158.252 412.187 158.018C409.985 156.045 406.678 155.399 403.895 156.397C401.112 157.395 398.97 159.996 398.523 162.919C396.538 160.551 392.776 160.505 389.982 161.824C385.818 163.788 383.069 168.418 383.338 173.014C381.043 171.888 377.994 172.627 376.469 174.679C375.79 175.592 375.406 176.695 374.742 177.619C373.712 179.05 372.003 179.967 370.242 180.035C376.962 181.412 403.975 180.749 410.627 180.878C413.534 180.935 416.475 181.188 419.327 180.621C422.179 180.055 425.012 178.505 426.288 175.892C427.564 173.279 426.685 169.573 424.006 168.443C425.698 165.424 424.983 161.263 422.38 158.982C419.775 156.7 414.608 155.829 411.837 157.904Z" fill="#F5F5F5"/>
<path d="M162.28 243.426C162.28 242.236 162.28 241.045 162.28 239.855C162.28 239.307 161.428 239.306 161.428 239.855C161.428 241.162 161.428 242.469 161.428 243.775C161.428 244.022 161.624 244.178 161.854 244.201C163.199 244.337 164.182 246.008 163.065 247.125C161.994 248.195 160.286 247.353 160.141 245.914C160.086 245.374 159.234 245.368 159.289 245.914C159.502 248.031 161.978 249.434 163.667 247.728C165.234 246.144 164.159 243.9 162.28 243.426Z" fill="#EBEBEB"/>
<path d="M99.496 217.789V225.53L91.354 217.388L90.952 217.79H90.384V226.902V227.47V236.014V236.582V245.126V245.694V254.238V254.806V263.35V263.918V272.462V273.03V281.574V282.142V291.254H100.632V282.142V281.574V273.03V272.462V263.918V263.35V254.806V254.238V245.694V245.126V236.582V236.014V227.47V226.902V217.79L99.496 217.789ZM91.52 273.832L98.693 281.005H91.52V273.832ZM91.52 255.608L98.693 262.781H91.52V255.608ZM91.52 237.384L98.693 244.557H91.52V237.384ZM91.52 219.16L98.693 226.333H91.52V219.16ZM98.693 227.469L91.52 234.642V227.469H98.693ZM99.496 228.272V235.445H92.323L99.496 228.272ZM98.693 245.693L91.52 252.866V245.693H98.693ZM99.496 246.496V253.669H92.323L99.496 246.496ZM98.693 263.917L91.52 271.09V263.917H98.693ZM99.496 264.72V271.892H92.323L99.496 264.72ZM98.693 282.141L91.52 289.314V282.141H98.693ZM92.323 290.117L99.496 282.944V290.117H92.323ZM99.496 280.202L92.323 273.029H99.496V280.202ZM99.496 261.978L92.323 254.805H99.496V261.978ZM99.496 243.754L92.323 236.581H99.496V243.754Z" fill="#F0F0F0"/>
<path d="M91.5232 193.592V200.426V200.994V207.828H92.6592V202.365L98.5232 208.229L98.9252 207.827H99.4932V200.993V200.425V193.591L91.5232 193.592ZM97.5542 194.728L92.6602 199.623V194.728H97.5542ZM98.3572 206.456L93.4632 201.561H98.3572V206.456ZM93.4632 200.426L98.3572 195.531V200.426H93.4632Z" fill="#F0F0F0"/>
<path d="M72.8162 217.789H59.1482V231.457H72.8162V217.789Z" fill="#E6E6E6"/>
<path d="M162.037 237.504H161.279V211.229L97.636 190.124H93.426L59.348 211.277L58.949 210.633L93.21 189.366H97.759L97.817 189.385L162.037 210.682V237.504Z" fill="#E6E6E6"/>
<path d="M154.256 218.38H155.037L163.03 210.387H154.825H154.257H147.991H147.423H141.157H140.589H134.323H133.755H127.489H126.921H120.655H120.087H113.821H113.253H106.987H106.419H100.153H99.5851H93.3191H92.7501H86.4841H85.9161H79.6501H79.0821H72.8161H72.2481H65.9821H65.4141H58.5801V218.357H65.4141H65.9821H72.2481H72.8161H79.0821H79.6501H85.9161H86.4841H92.7501H93.3181H99.5841H100.152H106.418H106.986H113.252H113.82H120.086H120.654H126.92H127.488H133.754H134.322H140.588H141.156H147.422H147.99H154.256V218.38ZM155.392 211.523H160.287L155.392 216.418V211.523ZM59.7171 217.221V212.326L64.6121 217.221H59.7171ZM65.4141 216.418L60.5191 211.523H65.4141V216.418ZM66.5501 211.523H71.4451L66.5501 216.418V211.523ZM72.2481 217.221H67.3531L72.2481 212.326V217.221ZM73.3841 217.221V212.326L78.2791 217.221H73.3841ZM79.0821 216.418L74.1871 211.523H79.0821V216.418ZM80.2181 211.523H85.1131L80.2181 216.418V211.523ZM85.9161 217.221H81.0211L85.9161 212.326V217.221ZM87.0521 217.221V212.326L91.9471 217.221H87.0521ZM92.7501 216.418L87.8551 211.523H92.7501V216.418ZM93.8861 211.523H98.7811L93.8861 216.418V211.523ZM99.5841 217.221H94.6901L99.5851 212.326L99.5841 217.221ZM100.72 217.221V212.326L105.615 217.221H100.72ZM106.418 216.418L101.523 211.523H106.418V216.418ZM107.554 211.523H112.449L107.554 216.418V211.523ZM113.252 217.221H108.357L113.252 212.326V217.221ZM114.388 217.221V212.326L119.283 217.221H114.388ZM120.086 216.418L115.191 211.523H120.086V216.418ZM121.222 211.523H126.117L121.222 216.418V211.523ZM126.92 217.221H122.025L126.92 212.326V217.221ZM128.056 217.221V212.326L132.951 217.221H128.056ZM133.754 216.418L128.859 211.523H133.754V216.418ZM134.89 211.523H139.785L134.89 216.418V211.523ZM140.588 217.221H135.693L140.588 212.326V217.221ZM141.724 211.523H146.619L141.724 216.418V211.523ZM147.422 217.221H142.527L147.422 212.326V217.221ZM148.558 217.221V212.326L153.453 217.221H148.558ZM149.361 211.523H154.256V216.418L149.361 211.523Z" fill="#F0F0F0"/>
<path d="M105.685 220.893H84.667L85.436 212.049C85.644 209.661 87.643 207.828 90.04 207.828H100.053C102.399 207.828 104.373 209.586 104.644 211.917L105.685 220.893Z" fill="#F0F0F0"/>
<path d="M92.0919 211.5H88.0559V215.535H92.0919V211.5Z" fill="#FAFAFA"/>
<path d="M97.194 211.5H93.158V215.535H97.194V211.5Z" fill="#FAFAFA"/>
<path d="M102.296 211.5H98.26V215.535H102.296V211.5Z" fill="#FAFAFA"/>
<path d="M95.5081 194.16C97.028 194.16 98.2601 192.928 98.2601 191.408C98.2601 189.888 97.028 188.656 95.5081 188.656C93.9882 188.656 92.7561 189.888 92.7561 191.408C92.7561 192.928 93.9882 194.16 95.5081 194.16Z" fill="#E6E6E6"/>
<path d="M161.854 242.206C160.556 242.206 159.503 241.153 159.503 239.855V237.504H164.205V239.855C164.205 241.154 163.152 242.206 161.854 242.206Z" fill="#E6E6E6"/>
<path d="M351.573 234.393H275.233V366.396H351.573V234.393Z" fill="#E6E6E6"/>
<path d="M289.893 215.945V234.392H295.913H330.893H336.912V215.945H289.893Z" fill="#E6E6E6"/>
<path d="M273.657 234.492H353.149V232.499H273.657V234.492Z" fill="#F5F5F5"/>
<path d="M287.897 215.946H338.91V213.953H287.897V215.946Z" fill="#F5F5F5"/>
<path d="M335.656 234.393H259.316V366.396H335.656V234.393Z" fill="#F0F0F0"/>
<path d="M273.976 215.945V234.392H279.996H314.976H320.995V215.945H273.976Z" fill="#F0F0F0"/>
<path d="M273.977 239.28H264.203V249.054H273.977V239.28Z" fill="white"/>
<path d="M292.908 239.28H283.134V249.054H292.908V239.28Z" fill="white"/>
<path d="M311.839 239.28H302.065V249.054H311.839V239.28Z" fill="white"/>
<path d="M330.77 239.28H320.996V249.054H330.77V239.28Z" fill="white"/>
<path d="M273.977 257.038H264.203V266.812H273.977V257.038Z" fill="white"/>
<path d="M292.908 257.038H283.134V266.812H292.908V257.038Z" fill="white"/>
<path d="M311.839 257.038H302.065V266.812H311.839V257.038Z" fill="white"/>
<path d="M330.77 257.038H320.996V266.812H330.77V257.038Z" fill="white"/>
<path d="M273.977 274.796H264.203V284.57H273.977V274.796Z" fill="white"/>
<path d="M292.908 274.796H283.134V284.57H292.908V274.796Z" fill="white"/>
<path d="M311.839 274.796H302.065V284.57H311.839V274.796Z" fill="white"/>
<path d="M292.908 223.93H283.134V233.703H292.908V223.93Z" fill="white"/>
<path d="M311.839 223.93H302.065V233.703H311.839V223.93Z" fill="white"/>
<path d="M330.77 274.796H320.996V284.57H330.77V274.796Z" fill="white"/>
<path d="M273.977 292.555H264.203V302.329H273.977V292.555Z" fill="white"/>
<path d="M292.908 292.555H283.134V302.329H292.908V292.555Z" fill="white"/>
<path d="M311.839 292.555H302.065V302.329H311.839V292.555Z" fill="white"/>
<path d="M330.77 292.555H320.996V302.329H330.77V292.555Z" fill="white"/>
<path d="M273.977 310.313H264.203V320.087H273.977V310.313Z" fill="white"/>
<path d="M292.908 310.313H283.134V320.087H292.908V310.313Z" fill="white"/>
<path d="M311.839 310.313H302.065V320.087H311.839V310.313Z" fill="white"/>
<path d="M330.77 310.313H320.996V320.087H330.77V310.313Z" fill="white"/>
<path d="M273.977 328.071H264.203V337.845H273.977V328.071Z" fill="white"/>
<path d="M292.908 328.071H283.134V337.845H292.908V328.071Z" fill="white"/>
<path d="M311.839 328.071H302.065V337.845H311.839V328.071Z" fill="white"/>
<path d="M330.77 328.071H320.996V337.845H330.77V328.071Z" fill="white"/>
<path d="M273.977 345.83H264.203V355.604H273.977V345.83Z" fill="white"/>
<path d="M292.908 345.83H283.134V355.604H292.908V345.83Z" fill="white"/>
<path d="M311.839 345.83H302.065V355.604H311.839V345.83Z" fill="white"/>
<path d="M330.77 345.83H320.996V355.604H330.77V345.83Z" fill="white"/>
<path d="M257.74 234.492H337.232V232.499H257.74V234.492Z" fill="#F5F5F5"/>
<path d="M271.979 215.946H322.992V213.953H271.979V215.946Z" fill="#F5F5F5"/>
<path d="M447.741 246.28H378.275V366.397H447.741V246.28Z" fill="#E6E6E6"/>
<path d="M376.84 246.371H449.174V244.557H376.84V246.371Z" fill="#F5F5F5"/>
<path d="M433.257 246.28H363.791V366.397H433.257V246.28Z" fill="#F0F0F0"/>
<path d="M377.132 250.727H368.238V259.621H377.132V250.727Z" fill="white"/>
<path d="M394.358 250.727H385.464V259.621H394.358V250.727Z" fill="white"/>
<path d="M411.584 250.727H402.69V259.621H411.584V250.727Z" fill="white"/>
<path d="M428.81 250.727H419.916V259.621H428.81V250.727Z" fill="white"/>
<path d="M377.132 266.886H368.238V275.78H377.132V266.886Z" fill="white"/>
<path d="M394.358 266.886H385.464V275.78H394.358V266.886Z" fill="white"/>
<path d="M411.584 266.886H402.69V275.78H411.584V266.886Z" fill="white"/>
<path d="M428.81 266.886H419.916V275.78H428.81V266.886Z" fill="white"/>
<path d="M377.132 283.045H368.238V291.939H377.132V283.045Z" fill="white"/>
<path d="M394.358 283.045H385.464V291.939H394.358V283.045Z" fill="white"/>
<path d="M411.584 283.045H402.69V291.939H411.584V283.045Z" fill="white"/>
<path d="M428.81 283.045H419.916V291.939H428.81V283.045Z" fill="white"/>
<path d="M377.132 299.204H368.238V308.098H377.132V299.204Z" fill="white"/>
<path d="M394.358 299.204H385.464V308.098H394.358V299.204Z" fill="white"/>
<path d="M411.584 299.204H402.69V308.098H411.584V299.204Z" fill="white"/>
<path d="M428.81 299.204H419.916V308.098H428.81V299.204Z" fill="white"/>
<path d="M377.132 315.363H368.238V324.257H377.132V315.363Z" fill="white"/>
<path d="M394.358 315.363H385.464V324.257H394.358V315.363Z" fill="white"/>
<path d="M411.584 315.363H402.69V324.257H411.584V315.363Z" fill="white"/>
<path d="M428.81 315.363H419.916V324.257H428.81V315.363Z" fill="white"/>
<path d="M377.132 331.522H368.238V340.416H377.132V331.522Z" fill="white"/>
<path d="M394.358 331.522H385.464V340.416H394.358V331.522Z" fill="white"/>
<path d="M411.584 331.522H402.69V340.416H411.584V331.522Z" fill="white"/>
<path d="M428.81 331.522H419.916V340.416H428.81V331.522Z" fill="white"/>
<path d="M377.132 347.682H368.238V356.576H377.132V347.682Z" fill="white"/>
<path d="M394.358 347.682H385.464V356.576H394.358V347.682Z" fill="white"/>
<path d="M411.584 347.682H402.69V356.576H411.584V347.682Z" fill="white"/>
<path d="M428.81 347.682H419.916V356.576H428.81V347.682Z" fill="white"/>
<path d="M362.356 246.371H434.69V244.557H362.356V246.371Z" fill="#F5F5F5"/>
<path d="M244.953 234.393H168.613V366.396H244.953V234.393Z" fill="#E6E6E6"/>
<path d="M183.273 215.945V234.392H189.293H224.273H230.292V215.945H183.273Z" fill="#E6E6E6"/>
<path d="M167.038 234.492H246.53V232.499H167.038V234.492Z" fill="#F5F5F5"/>
<path d="M181.277 215.946H232.29V213.953H181.277V215.946Z" fill="#F5F5F5"/>
<path d="M229.036 234.393H152.696V366.396H229.036V234.393Z" fill="#F0F0F0"/>
<path d="M167.356 215.945V234.392H173.376H208.356H214.376V215.945H167.356Z" fill="#F0F0F0"/>
<path d="M167.357 239.28H157.583V249.054H167.357V239.28Z" fill="white"/>
<path d="M186.288 239.28H176.514V249.054H186.288V239.28Z" fill="white"/>
<path d="M205.219 239.28H195.445V249.054H205.219V239.28Z" fill="white"/>
<path d="M224.15 239.28H214.376V249.054H224.15V239.28Z" fill="white"/>
<path d="M167.357 257.038H157.583V266.812H167.357V257.038Z" fill="white"/>
<path d="M186.288 257.038H176.514V266.812H186.288V257.038Z" fill="white"/>
<path d="M205.219 257.038H195.445V266.812H205.219V257.038Z" fill="white"/>
<path d="M224.15 257.038H214.376V266.812H224.15V257.038Z" fill="white"/>
<path d="M167.357 274.796H157.583V284.57H167.357V274.796Z" fill="white"/>
<path d="M186.288 274.796H176.514V284.57H186.288V274.796Z" fill="white"/>
<path d="M205.219 274.796H195.445V284.57H205.219V274.796Z" fill="white"/>
<path d="M186.288 223.93H176.514V233.703H186.288V223.93Z" fill="white"/>
<path d="M205.219 223.93H195.445V233.703H205.219V223.93Z" fill="white"/>
<path d="M224.15 274.796H214.376V284.57H224.15V274.796Z" fill="white"/>
<path d="M167.357 292.555H157.583V302.329H167.357V292.555Z" fill="white"/>
<path d="M186.288 292.555H176.514V302.329H186.288V292.555Z" fill="white"/>
<path d="M205.219 292.555H195.445V302.329H205.219V292.555Z" fill="white"/>
<path d="M224.15 292.555H214.376V302.329H224.15V292.555Z" fill="white"/>
<path d="M167.357 310.313H157.583V320.087H167.357V310.313Z" fill="white"/>
<path d="M186.288 310.313H176.514V320.087H186.288V310.313Z" fill="white"/>
<path d="M205.219 310.313H195.445V320.087H205.219V310.313Z" fill="white"/>
<path d="M224.15 310.313H214.376V320.087H224.15V310.313Z" fill="white"/>
<path d="M167.357 328.071H157.583V337.845H167.357V328.071Z" fill="white"/>
<path d="M186.288 328.071H176.514V337.845H186.288V328.071Z" fill="white"/>
<path d="M205.219 328.071H195.445V337.845H205.219V328.071Z" fill="white"/>
<path d="M224.15 328.071H214.376V337.845H224.15V328.071Z" fill="white"/>
<path d="M167.357 345.83H157.583V355.604H167.357V345.83Z" fill="white"/>
<path d="M186.288 345.83H176.514V355.604H186.288V345.83Z" fill="white"/>
<path d="M205.219 345.83H195.445V355.604H205.219V345.83Z" fill="white"/>
<path d="M224.15 345.83H214.376V355.604H224.15V345.83Z" fill="white"/>
<path d="M151.121 234.492H230.613V232.499H151.121V234.492Z" fill="#F5F5F5"/>
<path d="M165.36 215.946H216.373V213.953H165.36V215.946Z" fill="#F5F5F5"/>
<path d="M99.3601 289.966H51.0581V365.83H128.142V289.966V256.325L99.3601 289.966Z" fill="#F5F5F5"/>
<path d="M142.528 256.325H128.142V365.83H142.528V256.325Z" fill="#E6E6E6"/>
<path d="M66.1261 305.343H54.6541V316.816H66.1261V305.343Z" fill="#E0E0E0"/>
<path opacity="0.3" d="M66.1272 305.343H55.9312V316.816H66.1272V305.343Z" fill="white"/>
<path d="M66.1261 324.644H54.6541V336.117H66.1261V324.644Z" fill="#E0E0E0"/>
<path opacity="0.3" d="M66.1272 324.644H55.9312V336.117H66.1272V324.644Z" fill="white"/>
<path d="M66.1261 343.945H54.6541V355.418H66.1261V343.945Z" fill="#E0E0E0"/>
<path opacity="0.3" d="M66.1272 343.945H55.9312V355.418H66.1272V343.945Z" fill="white"/>
<path opacity="0.2" d="M67.3992 343.944H55.9312V355.412H67.3992V343.944Z" fill="white"/>
<path d="M85.4649 305.343H73.9919V316.816H85.4649V305.343Z" fill="#E0E0E0"/>
<path opacity="0.3" d="M85.464 305.343H75.269V316.816H85.464V305.343Z" fill="white"/>
<path d="M85.4649 324.644H73.9919V336.117H85.4649V324.644Z" fill="#E0E0E0"/>
<path opacity="0.3" d="M85.464 324.644H75.269V336.117H85.464V324.644Z" fill="white"/>
<path d="M85.4649 343.945H73.9919V355.418H85.4649V343.945Z" fill="#E0E0E0"/>
<path opacity="0.3" d="M85.464 343.945H75.269V355.418H85.464V343.945Z" fill="white"/>
<path opacity="0.2" d="M86.738 343.944H75.27V355.412H86.738V343.944Z" fill="white"/>
<path d="M104.802 305.343H93.3301V316.816H104.802V305.343Z" fill="#E0E0E0"/>
<path opacity="0.3" d="M104.803 305.343H94.6082V316.816H104.803V305.343Z" fill="white"/>
<path d="M104.802 324.644H93.3301V336.117H104.802V324.644Z" fill="#E0E0E0"/>
<path opacity="0.3" d="M104.803 324.644H94.6082V336.117H104.803V324.644Z" fill="white"/>
<path d="M104.802 343.945H93.3301V355.418H104.802V343.945Z" fill="#E0E0E0"/>
<path opacity="0.3" d="M104.803 343.945H94.6082V355.418H104.803V343.945Z" fill="white"/>
<path opacity="0.2" d="M106.076 343.944H94.6082V355.412H106.076V343.944Z" fill="white"/>
<path d="M124.142 305.343H112.669V316.816H124.142V305.343Z" fill="#E0E0E0"/>
<path opacity="0.3" d="M124.141 305.343H113.946V316.816H124.141V305.343Z" fill="white"/>
<path d="M124.142 324.644H112.669V336.117H124.142V324.644Z" fill="#E0E0E0"/>
<path opacity="0.3" d="M124.141 324.644H113.946V336.117H124.141V324.644Z" fill="white"/>
<path d="M124.142 343.945H112.669V355.418H124.142V343.945Z" fill="#E0E0E0"/>
<path opacity="0.3" d="M124.141 343.945H113.946V355.418H124.141V343.945Z" fill="white"/>
<path opacity="0.2" d="M125.414 343.944H113.946V355.412H125.414V343.944Z" fill="white"/>
<path d="M250 427.016C357.082 427.016 443.889 421.947 443.889 415.693C443.889 409.44 357.082 404.37 250 404.37C142.918 404.37 56.1111 409.44 56.1111 415.693C56.1111 421.947 142.918 427.016 250 427.016Z" fill="#F5F5F5"/>
<path d="M460.081 366.657H39.9189V382.215H460.081V366.657Z" fill="#2563EB"/>
<g opacity="0.7">
<path d="M460.081 366.657H39.9189V382.215H460.081V366.657Z" fill="white"/>
</g>
<path d="M62.582 366.657H61.582V382.965H62.582V366.657Z" fill="white"/>
<path d="M156.562 366.657H155.562V382.965H156.562V366.657Z" fill="white"/>
<path d="M250.542 366.657H249.542V382.965H250.542V366.657Z" fill="white"/>
<path d="M344.523 366.657H343.523V382.965H344.523V366.657Z" fill="white"/>
<path d="M438.503 366.657H437.503V382.965H438.503V366.657Z" fill="white"/>
<path d="M460.081 383.366H39.9189V388.267H460.081V383.366Z" fill="#2563EB"/>
<path opacity="0.9" d="M460.081 383.366H39.9189V388.267H460.081V383.366Z" fill="white"/>
<path d="M386.262 334.014H384.245C383.132 334.014 382.229 333.111 382.229 331.998C382.229 330.884 383.132 329.982 384.245 329.982H386.262V334.014Z" fill="#2563EB"/>
<path d="M415.211 329.981H417.227C418.341 329.981 419.243 330.884 419.243 331.997C419.243 333.11 418.34 334.013 417.227 334.013H415.21V329.981H415.211Z" fill="#2563EB"/>
<path d="M415.211 325.68H386.262V338.315H415.211V325.68Z" fill="#2563EB"/>
<path opacity="0.1" d="M415.211 325.68H386.262V338.315H415.211V325.68Z" fill="black"/>
<path d="M388.279 323.932H384.246V340.063H388.279V323.932Z" fill="#2563EB"/>
<path d="M417.228 323.932H413.195V340.063H417.228V323.932Z" fill="#2563EB"/>
<path opacity="0.2" d="M388.279 323.932H384.246V340.063H388.279V323.932Z" fill="white"/>
<path opacity="0.2" d="M417.228 323.932H413.195V340.063H417.228V323.932Z" fill="white"/>
<path d="M408.514 361.341H392.96V317.686C392.96 313.391 396.442 309.909 400.737 309.909C405.032 309.909 408.514 313.391 408.514 317.686V361.341Z" fill="#2563EB"/>
<path d="M411.323 366.71H390.151V364.887C390.151 361.492 392.903 358.739 396.299 358.739H405.175C408.57 358.739 411.323 361.491 411.323 364.887V366.71Z" fill="#2563EB"/>
<path opacity="0.2" d="M411.323 366.71H390.151V364.887C390.151 361.492 392.903 358.739 396.299 358.739H405.175C408.57 358.739 411.323 361.491 411.323 364.887V366.71Z" fill="white"/>
<path opacity="0.2" d="M400.737 338.629C404.413 338.629 407.393 335.649 407.393 331.973C407.393 328.297 404.413 325.317 400.737 325.317C397.061 325.317 394.081 328.297 394.081 331.973C394.081 335.649 397.061 338.629 400.737 338.629Z" fill="white"/>
<path d="M402.321 331.973C402.321 332.848 401.612 333.557 400.737 333.557C399.862 333.557 399.153 332.848 399.153 331.973C399.153 331.098 399.862 330.389 400.737 330.389C401.612 330.388 402.321 331.098 402.321 331.973Z" fill="#EBEBEB"/>
<path d="M390.151 319.899C390.151 318.785 391.054 317.883 392.167 317.883H409.306C410.42 317.883 411.322 318.786 411.322 319.899C411.322 321.012 410.419 321.915 409.306 321.915H392.167C391.054 321.916 390.151 321.013 390.151 319.899Z" fill="#2563EB"/>
<path opacity="0.2" d="M390.151 319.899C390.151 318.785 391.054 317.883 392.167 317.883H409.306C410.42 317.883 411.322 318.786 411.322 319.899C411.322 321.012 410.419 321.915 409.306 321.915H392.167C391.054 321.916 390.151 321.013 390.151 319.899Z" fill="white"/>
<path d="M134.878 89.384C120.819 91.202 99.389 95.886 82.625 104.692V108.031C82.625 108.031 105.791 94.566 134.984 92.151L134.878 89.384Z" fill="#2563EB"/>
<path d="M159.412 94.3471C158.582 93.6411 157.557 92.9161 156.445 92.4391C154.025 91.3971 139.384 93.5871 134.367 94.3821V92.2451L134.243 89.4721C137.652 89.1191 140.708 88.8721 143.286 88.7131C147.507 88.4831 150.633 88.3421 152.947 88.2721C156.428 88.1481 159.324 90.8851 159.412 94.3471Z" fill="#2563EB"/>
<path d="M119.454 93.5291H117.176V103.498H119.454V93.5291Z" fill="#263238"/>
<path d="M82.6169 128.18C81.6419 128.18 80.8589 127.309 80.8589 126.334C80.8589 125.435 80.8589 123.566 90.2579 115.067C91.3499 114.079 92.8139 112.802 94.4559 111.681C106.944 103.158 122.276 101.035 122.922 100.949C123.889 100.824 124.777 101.499 124.906 102.465C125.035 103.432 124.357 104.32 123.391 104.45C123.24 104.47 108.225 106.56 96.4489 114.599C94.9829 115.599 93.6379 116.775 92.6289 117.687C86.5159 123.214 84.5659 125.824 84.3769 126.494C84.3749 127.468 83.5929 128.18 82.6169 128.18Z" fill="#263238"/>
<path d="M84.267 366.471H79.844V104.42C79.844 104.286 79.953 104.177 80.087 104.177H84.023C84.157 104.177 84.266 104.286 84.266 104.42L84.267 366.471Z" fill="#263238"/>
<path d="M161.196 94.5411V94.6821L140.691 96.6071L136.134 94.6821V94.3821C141.15 93.5871 155.792 91.3971 158.212 92.4391C159.325 92.9161 160.349 93.6401 161.179 94.3471C161.196 94.4001 161.196 94.4711 161.196 94.5411Z" fill="#2563EB"/>
<path opacity="0.6" d="M161.196 94.5411V94.6821L140.691 96.6071L136.134 94.6821V94.3821C141.15 93.5871 155.792 91.3971 158.212 92.4391C159.325 92.9161 160.349 93.6401 161.179 94.3471C161.196 94.4001 161.196 94.4711 161.196 94.5411Z" fill="white"/>
<path d="M324.086 194.663C324.443 195.049 324.424 195.637 324.038 195.994C323.913 196.11 323.768 196.187 323.613 196.216L323.835 204.116L323.266 204.135L323.054 196.178C322.929 196.13 322.813 196.053 322.716 195.946C322.533 195.753 322.456 195.512 322.465 195.271L318.578 193.525L318.617 192.965L322.745 194.643C322.755 194.633 322.755 194.633 322.764 194.624C323.141 194.268 323.73 194.287 324.086 194.663Z" fill="#263238"/>
<path d="M323.373 184.015C317.007 184.015 311.857 189.175 311.857 195.531C311.857 201.887 317.008 207.048 323.373 207.048C329.729 207.048 334.89 201.888 334.89 195.531C334.889 189.175 329.729 184.015 323.373 184.015ZM323.373 204.636C318.271 204.636 314.133 200.498 314.133 195.396C314.133 190.284 318.271 186.156 323.373 186.156C328.475 186.156 332.613 190.284 332.613 195.396C332.613 200.498 328.475 204.636 323.373 204.636Z" fill="#263238"/>
<path opacity="0.8" d="M324.038 195.994C323.913 196.11 323.768 196.187 323.613 196.216L323.835 204.116L323.266 204.135L323.054 196.178C322.929 196.13 322.813 196.053 322.716 195.946C322.533 195.753 322.456 195.512 322.465 195.271L318.578 193.525L318.617 192.965L322.745 194.643C322.755 194.633 322.755 194.633 322.764 194.624C323.14 194.267 323.729 194.286 324.085 194.663C324.443 195.049 324.424 195.637 324.038 195.994Z" fill="#263238"/>
<path d="M324.038 195.994C323.913 196.11 323.768 196.187 323.613 196.216C323.43 196.264 323.237 196.245 323.054 196.177C322.929 196.129 322.813 196.052 322.716 195.945C322.533 195.752 322.456 195.511 322.465 195.27C322.475 195.038 322.561 194.817 322.745 194.643C322.755 194.633 322.755 194.633 322.764 194.624C323.14 194.267 323.729 194.286 324.085 194.663C324.443 195.049 324.424 195.637 324.038 195.994Z" fill="#263238"/>
<path d="M323.836 204.115L323.267 204.135L323.055 196.177L323.035 195.521L322.466 195.271L318.579 193.525L318.618 192.965L322.746 194.644L323.585 194.991L323.614 196.216L323.836 204.115Z" fill="#263238"/>
<path d="M223.942 350.974L204.674 358.113C204.191 357.622 201.966 350.903 201.966 350.903L218.845 343.692L223.942 350.974Z" fill="#F7978D"/>
<path d="M204.644 359.981C204.629 359.891 204.665 359.8 204.736 359.748C204.811 359.702 204.904 359.707 204.975 359.76C205.093 359.854 207.868 362.061 208.078 363.63C208.133 363.924 208.069 364.228 207.904 364.47C207.74 364.772 207.413 364.93 207.091 364.861C206.504 364.753 205.937 363.774 205.503 362.686C205.138 361.816 204.85 360.91 204.644 359.981ZM207.581 363.309C206.972 362.224 206.169 361.277 205.217 360.519C205.648 362.166 206.53 364.296 207.204 364.455C207.295 364.467 207.425 364.465 207.602 364.214C207.701 364.068 207.739 363.885 207.709 363.708C207.682 363.568 207.643 363.432 207.591 363.3L207.581 363.309Z" fill="#2563EB"/>
<path d="M204.689 359.84C204.715 359.765 204.778 359.713 204.853 359.705C204.949 359.679 207.164 358.916 208.439 359.607C208.797 359.819 209.057 360.176 209.161 360.597C209.333 361.17 209.116 361.435 208.932 361.587C208.106 362.163 205.573 360.94 204.729 360.12C204.713 360.098 204.674 360.044 204.674 360.044L204.689 359.84ZM208.225 360.01C207.283 359.695 206.272 359.7 205.332 360.024C206.349 360.788 208.287 361.578 208.748 361.199C208.789 361.165 208.909 361.083 208.806 360.716L208.727 360.607C208.635 360.349 208.456 360.135 208.225 360.01Z" fill="#2563EB"/>
<path d="M205.582 358.007L202.661 349.687C202.535 349.335 202.191 349.129 201.842 349.194L194.784 350.137C194.081 350.282 193.795 351.913 193.824 351.99C195.145 357.26 198.777 368.279 200.113 371.864C201.449 375.448 204.961 374.506 204.717 372.913C203.621 365.77 204.565 362.502 205.559 359.662C205.765 359.134 205.773 358.542 205.582 358.007Z" fill="#263238"/>
<g opacity="0.2">
<path d="M212.097 346.575L218.845 343.692L223.942 350.974L214.311 354.543L212.097 346.575Z" fill="black"/>
</g>
<path d="M255.139 264.162C254.22 266.322 253.945 267.02 253.405 269.327C251.204 278.73 247.331 327.14 245.177 328.08C238.74 330.889 230.093 331.781 215.328 343.383C216.854 347.33 218.35 350.135 219.688 354.742C219.688 354.742 249.87 347.869 258.565 339.768C267.536 331.409 276.844 290.7 280.623 279.962C282.768 273.866 285.253 266.572 282.102 261.048C280.332 257.947 262.091 247.829 255.139 264.162Z" fill="#263238"/>
<path d="M283.225 249.681L286.284 250.74C284.351 267.475 282.911 273.754 282.911 273.754L279.662 283.162C279.662 283.162 257.396 292.259 249.607 281.609C239.142 267.299 252.843 239.658 252.843 239.658C252.843 239.658 272.1 245.44 283.225 249.681Z" fill="#263238"/>
<path opacity="0.4" d="M252.386 273.644C254.704 274.521 275.446 296.74 275.446 296.74L270.047 315.422L250.589 290.142L252.386 273.644Z" fill="black"/>
<path d="M312.588 374.33L313.206 399.158C312.476 399.593 305.498 401.661 305.498 401.661L302.518 378.15L312.588 374.33Z" fill="#F7978D"/>
<path d="M315.698 398.141C315.602 398.16 315.504 398.118 315.447 398.033C315.397 397.943 315.401 397.83 315.457 397.744C315.556 397.6 317.88 394.212 319.556 393.934C319.87 393.863 320.197 393.935 320.458 394.132C320.784 394.325 320.958 394.718 320.889 395.109C320.782 395.82 319.742 396.52 318.583 397.061C317.655 397.516 316.689 397.878 315.698 398.141ZM319.219 394.54C318.066 395.293 317.063 396.278 316.266 397.44C318.024 396.893 320.292 395.795 320.452 394.978C320.464 394.868 320.459 394.711 320.188 394.5C320.03 394.383 319.834 394.339 319.645 394.379C319.496 394.413 319.35 394.463 319.21 394.527L319.219 394.54Z" fill="#2563EB"/>
<path d="M315.546 398.089C315.465 398.059 315.408 397.983 315.399 397.893C315.369 397.778 314.521 395.113 315.243 393.562C315.464 393.127 315.843 392.806 316.292 392.674C316.902 392.458 317.19 392.715 317.355 392.935C317.984 393.924 316.711 397.003 315.845 398.036C315.822 398.055 315.764 398.104 315.764 398.104L315.546 398.089ZM315.677 393.815C315.353 394.958 315.373 396.18 315.734 397.31C316.538 396.069 317.355 393.716 316.942 393.165C316.905 393.116 316.816 392.972 316.424 393.103L316.309 393.2C316.034 393.313 315.808 393.532 315.677 393.815Z" fill="#2563EB"/>
<path d="M313.571 397.039L304.704 400.697C304.329 400.855 304.113 401.273 304.188 401.694L305.299 410.207C305.464 411.054 307.215 411.374 307.297 411.338C312.92 409.661 324.667 405.101 328.486 403.431C332.304 401.761 331.245 397.533 329.543 397.852C321.911 399.288 318.398 398.197 315.343 397.04C314.774 396.799 314.14 396.799 313.571 397.039Z" fill="#263238"/>
<g opacity="0.2">
<path d="M303.495 385.853L302.518 378.151L312.588 374.33L312.906 385.103L303.495 385.853Z" fill="black"/>
</g>
<path d="M247.517 278.308C254.85 296.582 281.675 316.354 292.141 331.492C292.141 331.492 297.072 366.652 301.626 380.761C306.745 379.949 311.26 380.382 314.278 379.406C314.278 379.406 314.925 340.053 314.251 329.138C312.757 304.921 293.815 284.658 271.91 261.052C268.239 257.096 256.559 253.775 250.61 257.118C249.525 257.723 243.687 268.764 247.517 278.308Z" fill="#263238"/>
<path d="M316.48 374.324C316.571 374.317 316.238 381.355 316.238 381.355L299.105 382.806L298.547 376.421L316.48 374.324Z" fill="#263238"/>
<path opacity="0.6" d="M316.48 374.324C316.571 374.317 316.238 381.355 316.238 381.355L299.105 382.806L298.547 376.421L316.48 374.324Z" fill="white"/>
<path d="M224.943 355.492C224.973 355.574 218.969 357.61 218.969 357.61L212.739 340.637L217.958 337.992L224.943 355.492Z" fill="#263238"/>
<path opacity="0.6" d="M224.943 355.492C224.973 355.574 218.969 357.61 218.969 357.61L212.739 340.637L217.958 337.992L224.943 355.492Z" fill="white"/>
<path d="M286.043 252.227L250.633 241.406C251.401 237.91 252.676 233.001 256.439 218.69C258.867 208.802 260.651 198.768 261.779 188.649C261.783 188.62 261.787 188.591 261.791 188.562C262.171 185.948 264.598 184.138 267.212 184.518L267.294 184.543C269.702 184.909 272.699 185.445 275.576 186.174C281.08 187.521 286.504 189.178 291.821 191.138C293.564 191.88 295.257 192.731 296.892 193.688C299.236 194.957 300.698 197.407 300.701 200.073C300.633 208.643 298.959 218.44 286.043 252.227Z" fill="#2563EB"/>
<path opacity="0.6" d="M286.043 252.227L251.871 241.784C252.649 238.291 253.307 238.148 261.777 188.648C261.781 188.619 261.785 188.59 261.789 188.562C262.183 185.953 264.548 184.123 267.072 184.476L267.151 184.5C269.476 184.841 272.369 185.345 275.144 186.043C280.454 187.33 285.682 188.928 290.804 190.829C292.482 191.551 294.111 192.383 295.683 193.32C297.938 194.561 299.327 196.989 299.303 199.647C299.151 208.19 298.873 218.414 286.043 252.227Z" fill="white"/>
<path d="M286.508 196.322L285.198 198.451C284.955 198.845 284.604 199.053 284.287 198.994L282.373 198.659C282.096 198.624 281.89 198.367 281.818 197.997L281.27 195.257L284.315 193.717L286.508 196.322Z" fill="#263238"/>
<path d="M275.219 185.445C272.192 184.68 269.026 184.112 266.484 183.726L266.402 183.701C266.352 183.693 266.302 183.686 266.253 183.681C263.5 183.345 260.996 185.305 260.661 188.057C259.777 195.368 258.065 208.235 255.041 219.733C248.693 234.932 229.74 237.197 229.74 237.197C231.541 243.341 235.264 248.746 240.363 252.619L243.37 254.903C277.622 244.199 276.146 198.941 276.875 185.823L275.219 185.445Z" fill="#2563EB"/>
<path opacity="0.2" d="M255.958 216.042C257.988 207.402 259.335 198.412 260.193 191.844C260.281 191.761 260.378 191.686 260.481 191.622C262.829 189.959 267.864 194.888 265.652 203.073C263.554 210.853 259.294 215.271 255.958 216.042Z" fill="black"/>
<path d="M284.569 193.793C276.386 191.772 274.932 186.057 274.932 186.057C279.541 183.605 281.1 173.661 281.492 168.06L284.735 172.992L289.152 179.712C288.738 180.45 288.368 181.212 288.045 181.994C286.746 185.097 286.684 188.279 291.063 190.837C291.063 190.837 291.552 195.487 284.569 193.793Z" fill="#F7978D"/>
<path d="M273.47 184.951L276.228 184.794C278.108 188.304 280.779 191.329 284.029 193.629C282.152 194.201 280.488 195.318 279.248 196.838C271.567 191.31 273.47 184.951 273.47 184.951Z" fill="#2563EB"/>
<path opacity="0.7" d="M273.47 184.951L276.228 184.794C278.108 188.304 280.779 191.329 284.029 193.629C282.152 194.201 280.488 195.318 279.248 196.838C271.567 191.31 273.47 184.951 273.47 184.951Z" fill="white"/>
<path d="M291.173 190.38L289.007 189.188C289.007 189.188 286.604 193.714 284.019 193.664C287.68 196.543 287.74 198.801 287.74 198.801C294.302 198.697 291.173 190.38 291.173 190.38Z" fill="#2563EB"/>
<path d="M314.522 231.068C315.895 229.173 311.075 223.604 305.927 218.348C302.763 215.107 299.463 211.979 297.423 209.897L298.528 203.852L300.188 194.697C301.005 195.922 324.552 221.985 325.005 227.335L314.522 231.068Z" fill="#2563EB"/>
<path opacity="0.2" d="M305.927 218.348C302.763 215.107 299.463 211.979 297.423 209.897L298.528 203.852C300.042 204.827 301.517 206.371 302.79 208.666C304.35 211.714 305.402 214.987 305.927 218.348Z" fill="black"/>
<path d="M288.354 264.932L283.002 263.36C289.961 222.676 291.39 203.504 291.054 190.443C293.589 191.354 296.074 192.401 298.497 193.578C301.05 195.106 302.615 197.862 302.619 200.838C302.862 208.154 295.748 226.146 288.354 264.932Z" fill="#2563EB"/>
<path opacity="0.7" d="M291.173 190.38L289.007 189.188C289.007 189.188 286.604 193.714 284.019 193.664C287.68 196.543 287.74 198.801 287.74 198.801C294.302 198.697 291.173 190.38 291.173 190.38Z" fill="white"/>
<path opacity="0.2" d="M288.375 181.266L284.14 174.863C283.861 175.6 283.66 176.362 283.542 177.138C283.179 179.495 285.379 182.711 287.444 183.851L288.375 181.266Z" fill="black"/>
<path d="M294.566 170.8C294.566 170.8 294.494 174.538 298.493 173.46C299.008 169.517 300.28 169.936 301.822 167.737C303.827 165.284 304.322 161.928 303.112 159L300.758 157.54C291.407 153.713 294.566 170.8 294.566 170.8Z" fill="#263238"/>
<path d="M285.844 154.903C289.781 151.202 295.973 151.393 299.674 155.33C305.219 160.945 302.156 171.59 298.266 177.152C297.173 178.779 295.61 180.036 293.786 180.754C288.822 182.709 283.213 180.269 281.259 175.305C279.205 170.277 280.892 166.262 283.183 159.191C283.68 157.553 284.597 156.075 285.844 154.903Z" fill="#F7978D"/>
<path d="M280.755 173.802C280.755 173.802 280.509 167.68 284.169 166.273C283.865 162.752 286.783 164.23 287.84 162.115C289.298 159.712 290.58 157.374 288.812 154.923L284.755 153.227C272.262 150.909 280.755 173.802 280.755 173.802Z" fill="#263238"/>
<path d="M302.355 153.974C301.391 152.307 299.851 151.058 298.276 149.95C295.767 148.184 292.919 146.625 289.85 146.628C286.19 146.632 282.954 148.821 279.759 150.608C276.564 152.394 272.676 153.855 269.331 152.37C270.227 153.725 271.693 154.69 273.292 154.978C272.203 155.067 271.099 154.977 270.039 154.715C271.986 158.422 276.913 160.233 280.798 158.669C280.074 159.101 279.351 159.532 278.627 159.963C284.421 160.935 290.199 158.58 295.602 156.275C294.566 158.033 292.98 159.462 291.125 160.31C293.368 161.04 295.912 160.787 297.968 159.63C298.746 159.192 299.486 158.62 300.368 158.478C301.22 158.341 301.947 158.796 302.428 159.448C304.014 158.434 303.102 155.268 302.355 153.974Z" fill="#263238"/>
<path d="M296.369 173.633C297.254 174.112 298.305 174.176 299.241 173.808C298.419 171.977 297.848 170.044 297.545 168.06L296.369 173.633Z" fill="#FF5652"/>
<path d="M282.283 160.695C284.524 161.005 285.239 163.065 284.998 164.901C285.043 167.645 281.789 169.485 281.028 168.042C279.956 166.839 279.334 165.303 279.267 163.693C279.176 161.666 280.441 160.441 282.283 160.695Z" fill="#F7978D"/>
<path d="M294.2 165.62C294.561 165.78 294.656 166.419 294.451 166.927C294.246 167.434 293.776 167.761 293.412 167.61C293.048 167.459 292.982 166.889 293.158 166.312C293.38 165.749 293.839 165.459 294.2 165.62Z" fill="#263238"/>
<path d="M300.019 167.144C300.38 167.304 300.494 167.879 300.273 168.442C300.051 169.004 299.579 169.34 299.218 169.18C298.857 169.02 298.745 168.436 298.967 167.873C299.185 167.319 299.658 166.984 300.019 167.144Z" fill="#263238"/>
<path d="M295.511 175.09C295.804 175.22 295.896 175.686 295.716 176.142C295.536 176.598 295.153 176.87 294.861 176.74C294.569 176.61 294.478 176.137 294.658 175.681C294.836 175.233 295.219 174.961 295.511 175.09Z" fill="#263238"/>
<path d="M300.411 164.289C300.525 164.319 300.618 164.4 300.663 164.51C300.926 165.39 301.577 166.101 302.431 166.44C302.615 166.489 302.724 166.678 302.675 166.861C302.673 166.867 302.672 166.872 302.67 166.878C302.61 167.061 302.418 167.166 302.232 167.117C301.154 166.719 300.325 165.837 299.994 164.737C299.937 164.55 300.038 164.352 300.222 164.288C300.284 164.275 300.349 164.275 300.411 164.289Z" fill="#263238"/>
<path d="M292.882 163.512C292.971 163.434 293.091 163.403 293.206 163.428C294.081 163.705 295.036 163.566 295.796 163.051C295.94 162.927 296.157 162.942 296.282 163.086C296.286 163.091 296.29 163.095 296.293 163.1C296.411 163.252 296.39 163.47 296.244 163.597C295.308 164.265 294.114 164.454 293.017 164.11C292.831 164.052 292.724 163.858 292.774 163.669C292.799 163.609 292.835 163.556 292.882 163.512Z" fill="#263238"/>
<path d="M292.883 223.883L288.224 223.797C286.781 223.771 285.384 224.304 284.327 225.287L280.274 229.053C279.787 229.506 279.705 230.246 280.081 230.795L282.179 233.856C282.563 234.416 283.305 234.601 283.907 234.287L289.019 231.618L294.475 228.334C294.473 228.335 294.675 223.917 292.883 223.883Z" fill="#F7978D"/>
<path d="M323.422 223.792L292.882 223.884L293.468 228.939C293.468 228.939 318.095 236.917 322.943 234.472C325.282 232.27 325.905 228.797 324.477 225.919L323.422 223.792Z" fill="#2563EB"/>
<path d="M294.935 230.684L292.627 230.032L292.908 223.102L295.239 223.196L294.935 230.684Z" fill="#263238"/>
<path d="M296.555 224.032L291.338 223.82L291.36 223.291C291.382 222.75 291.839 222.329 292.38 222.351L295.636 222.483C296.178 222.505 296.599 222.962 296.577 223.503L296.555 224.032Z" fill="#263238"/>
<path d="M202.436 238.967C204.495 237.608 205.119 235.791 206.58 234.027C207.577 232.824 205.802 233.011 207.433 233.526C208.016 233.71 208.579 234.186 209.088 234.509C210.42 235.354 211.673 236.326 213.025 237.14C214.186 237.839 216.472 238.088 217.406 238.922C218.93 240.284 216.364 244.419 215.715 245.79C214.93 247.449 217.41 248.898 218.202 247.225C219.333 244.835 221.85 240.669 220.387 237.913C219.48 236.204 217.564 236.122 215.961 235.457C212.937 234.203 210.29 230.674 206.909 230.345C205.76 230.233 205.009 230.598 204.338 231.524C203.577 232.575 203.626 233.925 202.69 235.001C202.208 235.555 201.627 236.068 201.013 236.473C199.475 237.489 200.893 239.987 202.436 238.967Z" fill="#2563EB"/>
<g opacity="0.3">
<path d="M202.436 238.967C204.495 237.608 205.119 235.791 206.58 234.027C207.577 232.824 205.802 233.011 207.433 233.526C208.016 233.71 208.579 234.186 209.088 234.509C210.42 235.354 211.673 236.326 213.025 237.14C214.186 237.839 216.472 238.088 217.406 238.922C218.93 240.284 216.364 244.419 215.715 245.79C214.93 247.449 217.41 248.898 218.202 247.225C219.333 244.835 221.85 240.669 220.387 237.913C219.48 236.204 217.564 236.122 215.961 235.457C212.937 234.203 210.29 230.674 206.909 230.345C205.76 230.233 205.009 230.598 204.338 231.524C203.577 232.575 203.626 233.925 202.69 235.001C202.208 235.555 201.627 236.068 201.013 236.473C199.475 237.489 200.893 239.987 202.436 238.967Z" fill="black"/>
</g>
<path d="M210.922 287.301L167.503 262.256C164.831 260.715 163.914 257.299 165.456 254.627L180.208 229.052C181.103 227.501 183.085 226.969 184.636 227.863L232.115 255.25C233.666 256.145 234.198 258.127 233.303 259.678L218.55 285.254C217.01 287.926 213.594 288.843 210.922 287.301Z" fill="#2563EB"/>
<path opacity="0.3" d="M210.922 287.301L167.503 262.256C164.831 260.715 163.914 257.299 165.456 254.627L180.208 229.052C181.103 227.501 183.085 226.969 184.636 227.863L232.115 255.25C233.666 256.145 234.198 258.127 233.303 259.678L218.55 285.254C217.01 287.926 213.594 288.843 210.922 287.301Z" fill="white"/>
<path d="M202.953 253.416L190.35 274.61L191.239 275.139L203.842 253.945L202.953 253.416Z" fill="#2563EB"/>
<g opacity="0.3">
<path d="M202.953 253.416L190.35 274.61L191.239 275.139L203.842 253.945L202.953 253.416Z" fill="black"/>
</g>
<path opacity="0.2" d="M230.454 258.318L182.734 230.792C181.25 229.936 179.352 230.445 178.496 231.929L177.927 232.915C175.515 237.096 176.95 242.441 181.131 244.852L219.086 266.745C223.267 269.157 228.611 267.722 231.023 263.541L231.592 262.554C232.448 261.072 231.939 259.174 230.454 258.318Z" fill="black"/>
<path d="M232.236 255.32L184.516 227.794C183.032 226.938 181.134 227.447 180.278 228.931L179.709 229.917C177.297 234.098 178.732 239.443 182.913 241.854L220.868 263.747C225.049 266.159 230.393 264.724 232.805 260.543L233.374 259.556C234.229 258.074 233.72 256.176 232.236 255.32Z" fill="#2563EB"/>
<path d="M232.236 255.32L184.516 227.794C183.032 226.938 181.134 227.447 180.278 228.931L179.709 229.917C177.297 234.098 178.732 239.443 182.913 241.854L220.868 263.747C225.049 266.159 230.393 264.724 232.805 260.543L233.374 259.556C234.229 258.074 233.72 256.176 232.236 255.32Z" fill="#2563EB"/>
<path opacity="0.5" d="M232.236 255.32L184.516 227.794C183.032 226.938 181.134 227.447 180.278 228.931L179.709 229.917C177.297 234.098 178.732 239.443 182.913 241.854L220.868 263.747C225.049 266.159 230.393 264.724 232.805 260.543L233.374 259.556C234.229 258.074 233.72 256.176 232.236 255.32Z" fill="white"/>
<path d="M186.383 252.037L184.682 251.056C183.749 250.518 183.429 249.326 183.967 248.393L188.176 241.096C188.714 240.164 189.906 239.844 190.838 240.382L192.539 241.363C193.471 241.901 193.791 243.093 193.253 244.025L189.044 251.322C188.507 252.255 187.315 252.575 186.383 252.037Z" fill="#2563EB"/>
<path d="M212.083 266.861L210.382 265.88C209.45 265.342 209.129 264.15 209.667 263.218L213.876 255.92C214.414 254.987 215.606 254.668 216.538 255.206L218.239 256.187C219.171 256.725 219.491 257.917 218.954 258.849L214.745 266.146C214.207 267.079 213.015 267.399 212.083 266.861Z" fill="#2563EB"/>
<path d="M186.383 252.037L184.682 251.056C183.749 250.518 183.429 249.326 183.967 248.393L188.176 241.096C188.714 240.164 189.906 239.844 190.838 240.382L192.539 241.363C193.471 241.901 193.791 243.093 193.253 244.025L189.044 251.322C188.507 252.255 187.315 252.575 186.383 252.037Z" fill="white"/>
<path d="M212.083 266.861L210.382 265.88C209.45 265.342 209.129 264.15 209.667 263.218L213.876 255.92C214.414 254.987 215.606 254.668 216.538 255.206L218.239 256.187C219.171 256.725 219.491 257.917 218.954 258.849L214.745 266.146C214.207 267.079 213.015 267.399 212.083 266.861Z" fill="white"/>
<path d="M228.835 194.755C222.992 198.146 214.048 219.604 212.146 226.086C214.363 225.035 217.319 225.985 218.51 228.13C220.522 224.021 227.928 212.474 232.251 206.96C233.47 205.405 235.203 204.355 237.143 203.977C245.425 202.366 259.647 202.414 262.509 199.497C267.141 194.776 270.785 182.449 264.159 183.686C257.909 184.854 233.492 192.052 228.835 194.755Z" fill="#2563EB"/>
<path d="M217.657 226.034L214.703 224.646C211.251 223.986 210.526 230.74 210.526 230.74L218.691 235.376C218.691 235.376 219.24 227.512 217.657 226.034Z" fill="#F7978D"/>
<path d="M216.527 238.77L218.679 235.351L210.514 230.715L208.089 234.863C208.054 234.924 208.023 234.987 207.996 235.052C207.705 235.777 208.056 236.602 208.782 236.893L214.804 239.31C215.434 239.566 216.156 239.339 216.527 238.77Z" fill="#F7978D"/>
<path d="M282.416 198.15C280.411 206.278 273.003 215.547 255.612 208.949C247.583 205.903 240.185 211.05 239.994 211.078C239.992 211.078 239.994 211.076 239.992 211.075C239.471 210.987 236.498 217.952 236.498 217.952L243.49 220.293C246.046 216.917 249.253 214.513 253.487 214.517C257.721 214.521 261.925 215.353 266.158 215.276C279.291 215.037 282.854 204.856 284.523 198.306L282.416 198.15Z" fill="#263238"/>
<path d="M274.777 143.753C275.147 143.774 275.515 143.705 275.885 143.685C277.407 143.599 277.084 141.984 275.179 141.976C274.054 141.972 273.416 143.675 274.777 143.753Z" fill="#2563EB"/>
<path d="M286.963 137.615C286.891 136.974 287.652 136.419 288.32 136.72C289.691 137.337 290.13 139.45 290.13 139.45C290.13 139.45 287.067 138.542 286.963 137.615Z" fill="#2563EB"/>
<path d="M303.29 141.699C303.052 141.438 302.81 141.172 302.664 140.851C302.517 140.53 302.479 140.139 302.651 139.831C302.823 139.523 303.241 139.347 303.552 139.515C303.845 139.674 303.939 140.049 303.945 140.382C303.955 140.917 303.814 141.454 303.541 141.915" fill="#2563EB"/>
<path d="M227.88 114.487L236.225 110.408L240.579 118.613L249.728 120.218L248.427 129.415L254.885 136.091L248.427 142.767L249.728 151.964L240.579 153.569L236.225 161.774L227.88 157.695L219.535 161.774L215.182 153.569L206.033 151.964L207.333 142.767L200.875 136.091L207.333 129.415L206.033 120.218L215.182 118.613L219.535 110.408L227.88 114.487Z" fill="#2563EB"/>
<path d="M224.545 148.928C224.545 147.024 226.05 145.519 228.131 145.519C230.167 145.519 231.628 147.024 231.628 148.928C231.628 150.832 230.167 152.381 228.131 152.381C226.05 152.381 224.545 150.831 224.545 148.928ZM224.855 121.081H231.407L230.3 141.8H225.917L224.855 121.081Z" fill="white"/>
<path d="M213.647 303.606C211.252 303.606 208.867 303.602 206.491 303.594L206.494 302.871C218.455 302.914 230.7 302.848 242.879 302.682L242.889 303.405C233.123 303.539 223.317 303.606 213.647 303.606Z" fill="#2563EB"/>
<path d="M200.602 303.565C195.461 303.532 190.207 303.478 184.986 303.405L184.996 302.682C190.215 302.756 195.467 302.809 200.606 302.842L200.602 303.565Z" fill="#2563EB"/>
<path d="M179.743 302.681H173.894V303.404H179.743V302.681Z" fill="#2563EB"/>
<path d="M173.325 233.181H136.632V233.904H173.325V233.181Z" fill="#2563EB"/>
<path d="M132.673 233.181H129.686V233.904H132.673V233.181Z" fill="#2563EB"/>
<path d="M230.666 189.536H213.991V190.259H230.666V189.536Z" fill="#2563EB"/>
<path d="M209.741 189.536H200.344V190.259H209.741V189.536Z" fill="#2563EB"/>
</svg>
