<svg width="405" height="416" viewBox="0 0 405 416" fill="none" xmlns="http://www.w3.org/2000/svg">
<mask id="mask0_271_5" style="mask-type:luminance" maskUnits="userSpaceOnUse" x="0" y="0" width="405" height="416">
<path d="M404.771 0H0.228516V416H404.771V0Z" fill="white"/>
</mask>
<g mask="url(#mask0_271_5)">
<path d="M166.102 293.392V40.4868" stroke="#1C2642" stroke-linecap="round" stroke-linejoin="round"/>
<path d="M1.79004 295.899H161.236L403.478 374.131" stroke="#1C2642" stroke-linecap="round" stroke-linejoin="round"/>
<path d="M74.3942 289.963H63.3817V107.755H86.1147L76.3046 72.3276H46.863L37.0527 107.755H59.7859V289.963H48.7395C45.9151 289.966 43.2043 291.077 41.1893 293.056C39.1743 295.036 38.016 297.728 37.963 300.554C37.963 300.554 37.963 300.611 37.963 300.632C37.963 300.632 37.963 300.7 37.963 300.723C38.2888 303.264 48.717 305.31 61.5612 305.31C74.4054 305.31 84.8336 303.264 85.1596 300.723C85.1507 297.87 84.0133 295.136 81.996 293.121C79.9787 291.104 77.2457 289.969 74.3942 289.963Z" fill="#1C2642"/>
<path d="M221.142 27.9507V242.494L382.588 269.073V1.37158L221.142 27.9507ZM378.396 89.3837L296.364 94.0384V19.4957L378.396 6.43104V89.3837ZM296.364 101.875L378.396 98.1084V173.056L296.364 169.223V101.875ZM289.712 168.907L223.851 165.838V105.203L289.656 102.19L289.712 168.907ZM289.712 20.5525V94.4432L223.851 98.1422V31.0312L289.712 20.5525ZM223.851 172.899L289.656 176.687V249.893L223.851 239.414V172.899ZM296.309 250.95V177.07L378.341 181.792V264.014L296.309 250.95Z" fill="#1C2642" stroke="#1C2642" stroke-linecap="round" stroke-linejoin="round"/>
<path d="M165.461 400.202C236.801 400.202 294.633 382.177 294.633 359.941C294.633 337.705 236.801 319.679 165.461 319.679C94.1212 319.679 36.2886 337.705 36.2886 359.941C36.2886 382.177 94.1212 400.202 165.461 400.202Z" fill="#1D4ED8"/>
<path opacity="0.5" d="M165.461 400.202C236.801 400.202 294.633 382.177 294.633 359.941C294.633 337.705 236.801 319.679 165.461 319.679C94.1212 319.679 36.2886 337.705 36.2886 359.941C36.2886 382.177 94.1212 400.202 165.461 400.202Z" fill="white"/>
<path d="M154.549 182.41C154.549 182.41 125.276 178.935 106.016 193.968C86.7551 209 70.1913 271.816 70.5734 301.903C70.9554 331.991 82.1365 346.999 110.252 359.322C138.368 371.645 190.745 367.035 220.018 357.783C249.292 348.529 258.921 316.183 258.539 298.823C258.157 281.464 238.897 261.439 232.345 257.223C225.794 253.006 207.309 244.124 198.072 230.239C188.834 216.354 175.338 186.266 154.549 182.41Z" fill="#1D4ED8"/>
<mask id="mask1_271_5" style="mask-type:luminance" maskUnits="userSpaceOnUse" x="70" y="182" width="189" height="185">
<path d="M154.549 182.41C154.549 182.41 125.276 178.935 106.016 193.968C86.7551 209 70.1913 271.816 70.5734 301.903C70.9554 331.991 82.1365 346.999 110.252 359.322C138.368 371.645 190.745 367.035 220.018 357.783C249.292 348.529 258.921 316.183 258.539 298.823C258.157 281.464 238.897 261.439 232.345 257.223C225.794 253.006 207.309 244.124 198.072 230.239C188.834 216.354 175.338 186.266 154.549 182.41Z" fill="white"/>
</mask>
<g mask="url(#mask1_271_5)">
<path opacity="0.13" d="M225.389 355.703C214.32 354.207 201.195 351.205 191.261 345.167C170.281 332.428 165.046 308.436 157.549 299.441C150.055 290.446 136.57 291.2 130.581 281.452C124.591 271.703 134.323 199.758 117.096 195.261C113.6 194.25 109.98 193.733 106.342 193.72C106.24 193.811 106.117 193.879 106.016 193.968C86.7551 209 70.1913 271.816 70.5734 301.903C70.9554 331.991 82.1365 346.999 110.252 359.322C138.368 371.645 190.745 367.035 220.018 357.783C221.85 357.202 223.644 356.507 225.389 355.703Z" fill="#1C2642"/>
</g>
<path d="M154.549 182.41C154.549 182.41 125.276 178.935 106.016 193.968C86.7551 209 70.1913 271.816 70.5734 301.903C70.9554 331.991 82.1365 346.999 110.252 359.322C138.368 371.645 190.745 367.035 220.018 357.783C249.292 348.529 258.921 316.183 258.539 298.823C258.157 281.464 238.897 261.439 232.345 257.223C225.794 253.006 207.309 244.124 198.072 230.239C188.834 216.354 175.338 186.266 154.549 182.41Z" stroke="#1C2642" stroke-linecap="round" stroke-linejoin="round"/>
<path d="M143.02 195.993C143.02 195.993 123.917 199.646 120.546 203.019C117.174 206.393 103.128 259.236 103.128 259.236C107.033 258.283 111.13 258.479 114.927 259.798C120.546 262.046 121.108 267.948 121.67 270.76C122.121 274.116 122.402 277.493 122.512 280.878C122.512 280.878 179.295 275.808 191.374 273.008C203.454 270.209 221.838 268.904 221.838 268.904C221.838 268.904 190.779 198.814 186.002 196.284C181.227 193.754 161.281 193.474 158.472 194.036C155.663 194.598 143.02 195.993 143.02 195.993Z" fill="#1C2642" stroke="#1C2642" stroke-linecap="round" stroke-linejoin="round"/>
<path d="M124.198 260.921L128.974 221.851" stroke="white" stroke-linecap="round" stroke-linejoin="round"/>
<path d="M127.85 232.251L134.312 223.819" stroke="white" stroke-linecap="round" stroke-linejoin="round"/>
<path d="M147.235 237.311C147.235 237.311 165.496 231.408 177.576 231.408" stroke="white" stroke-linecap="round" stroke-linejoin="round"/>
<path d="M164.473 221.199L163.247 230.565C163.247 230.565 166.338 230.565 166.618 231.971C166.638 232.491 166.549 233.011 166.355 233.494C166.161 233.98 165.868 234.417 165.495 234.781C165.495 234.781 174.204 239.56 175.328 245.181" stroke="white" stroke-linecap="round" stroke-linejoin="round"/>
<path d="M153.505 185.513C153.505 185.513 143.02 188.887 141.514 191.506C140.009 194.125 141.144 212.497 141.144 214.745C141.144 216.995 142.458 213.431 143.582 210.81C144.706 208.191 148.639 204.245 149.942 204.627C151.246 205.009 152.01 206.493 152.01 208.933C152.01 211.372 154.999 214.745 157.629 216.612C160.258 218.478 162.685 220.367 162.685 220.367C162.685 220.367 168.113 212.497 169.428 210.428C170.743 208.36 170.552 204.065 170.731 202.558C170.911 201.051 174.294 206.684 175.046 205.189C175.799 203.693 173.361 202.378 170.731 198.251C168.102 194.125 168.866 189.819 164.933 186.818C161 183.816 156.505 184.748 153.505 185.513Z" fill="white"/>
<mask id="mask2_271_5" style="mask-type:luminance" maskUnits="userSpaceOnUse" x="140" y="184" width="36" height="37">
<path d="M153.505 185.513C153.505 185.513 143.02 188.887 141.514 191.506C140.009 194.125 141.144 212.497 141.144 214.745C141.144 216.995 142.458 213.431 143.582 210.81C144.706 208.191 148.639 204.245 149.942 204.627C151.246 205.009 152.01 206.493 152.01 208.933C152.01 211.372 154.999 214.745 157.629 216.612C160.258 218.478 162.685 220.367 162.685 220.367C162.685 220.367 168.113 212.497 169.428 210.428C170.743 208.36 170.552 204.065 170.731 202.558C170.911 201.051 174.294 206.684 175.046 205.189C175.799 203.693 173.361 202.378 170.731 198.251C168.102 194.125 168.866 189.819 164.933 186.818C161 183.816 156.505 184.748 153.505 185.513Z" fill="white"/>
</mask>
<g mask="url(#mask2_271_5)">
<path d="M141.514 191.495C140.525 193.249 140.683 201.996 140.908 208.36C143.301 205.279 148.234 199.455 151.089 200.556C154.729 201.962 156.123 212.317 156.123 212.317L153.662 185.513H153.505C153.505 185.513 143.02 188.887 141.514 191.495Z" fill="#1D4ED8"/>
<path opacity="0.5" d="M141.514 191.495C140.525 193.249 140.683 201.996 140.908 208.36C143.301 205.279 148.234 199.455 151.089 200.556C154.729 201.962 156.123 212.317 156.123 212.317L153.662 185.513H153.505C153.505 185.513 143.02 188.887 141.514 191.495Z" fill="white"/>
</g>
<path d="M153.505 185.513C153.505 185.513 143.02 188.887 141.514 191.506C140.009 194.125 141.144 212.497 141.144 214.745C141.144 216.995 142.458 213.431 143.582 210.81C144.706 208.191 148.639 204.245 149.942 204.627C151.246 205.009 152.01 206.493 152.01 208.933C152.01 211.372 154.999 214.745 157.629 216.612C160.258 218.478 162.685 220.367 162.685 220.367C162.685 220.367 168.113 212.497 169.428 210.428C170.743 208.36 170.552 204.065 170.731 202.558C170.911 201.051 174.294 206.684 175.046 205.189C175.799 203.693 173.361 202.378 170.731 198.251C168.102 194.125 168.866 189.819 164.933 186.818C161 183.816 156.505 184.748 153.505 185.513Z" stroke="#1C2642" stroke-linecap="round" stroke-linejoin="round"/>
<path d="M128.693 261.484C128.693 261.484 122.232 252.208 114.366 251.366C106.499 250.521 96.9478 256.986 96.6669 259.236C96.386 261.484 94.4194 273.571 95.8241 275.256C97.2288 276.943 102.567 278.349 112.961 274.976C123.355 271.603 127.569 267.386 128.693 261.484Z" fill="white"/>
<mask id="mask3_271_5" style="mask-type:luminance" maskUnits="userSpaceOnUse" x="95" y="251" width="34" height="27">
<path d="M128.693 261.484C128.693 261.484 122.232 252.208 114.366 251.366C106.499 250.521 96.9478 256.986 96.6669 259.236C96.386 261.484 94.4194 273.571 95.8241 275.256C97.2288 276.943 102.567 278.349 112.961 274.976C123.355 271.603 127.569 267.386 128.693 261.484Z" fill="white"/>
</mask>
<g mask="url(#mask3_271_5)">
<path d="M102.409 274.965C102.409 274.965 100.162 268.534 101.285 266.297C102.409 264.058 106.904 260.675 109.68 257.302C112.455 253.928 103.128 259.202 102.679 257.302C102.33 255.772 107.612 252.714 109.691 251.578C103.151 252.838 96.8917 257.391 96.6669 259.202C96.386 261.45 94.4194 273.537 95.8241 275.224C96.5433 276.088 98.33 276.888 101.308 276.988C101.982 275.831 102.409 274.965 102.409 274.965Z" fill="#1D4ED8"/>
<path opacity="0.5" d="M102.409 274.965C102.409 274.965 100.162 268.534 101.285 266.297C102.409 264.058 106.904 260.675 109.68 257.302C112.455 253.928 103.128 259.202 102.679 257.302C102.33 255.772 107.612 252.714 109.691 251.578C103.151 252.838 96.8917 257.391 96.6669 259.202C96.386 261.45 94.4194 273.537 95.8241 275.224C96.5433 276.088 98.33 276.888 101.308 276.988C101.982 275.831 102.409 274.965 102.409 274.965Z" fill="white"/>
</g>
<path d="M128.693 261.484C128.693 261.484 122.232 252.208 114.366 251.366C106.499 250.521 96.9478 256.986 96.6669 259.236C96.386 261.484 94.4194 273.571 95.8241 275.256C97.2288 276.943 102.567 278.349 112.961 274.976C123.355 271.603 127.569 267.386 128.693 261.484Z" stroke="#1C2642" stroke-linecap="round" stroke-linejoin="round"/>
<path d="M106.78 264.013C106.78 264.013 96.2395 268.197 95.8238 276.381C95.5878 280.878 103.128 282.846 110.994 282.846C118.86 282.846 130.098 273.008 137.402 268.791C144.706 264.576 161.562 254.738 163.529 253.895C165.495 253.051 172.237 255.301 175.047 256.143C177.724 256.718 180.456 257 183.193 256.986C183.193 256.986 187.126 263.171 189.093 263.171C191.059 263.171 184.88 253.895 184.036 251.928C183.193 249.959 169.428 245.463 167.742 245.463C166.057 245.463 126.726 255.301 120.827 257.548C114.927 259.798 106.78 264.013 106.78 264.013Z" fill="white"/>
<mask id="mask4_271_5" style="mask-type:luminance" maskUnits="userSpaceOnUse" x="95" y="245" width="95" height="38">
<path d="M106.78 264.013C106.78 264.013 96.2395 268.197 95.8238 276.381C95.5878 280.878 103.128 282.846 110.994 282.846C118.86 282.846 130.098 273.008 137.402 268.791C144.706 264.576 161.562 254.738 163.529 253.895C165.495 253.051 172.237 255.301 175.047 256.143C177.724 256.718 180.456 257 183.193 256.986C183.193 256.986 187.126 263.171 189.093 263.171C191.059 263.171 184.88 253.895 184.036 251.928C183.193 249.959 169.428 245.463 167.742 245.463C166.057 245.463 126.726 255.301 120.827 257.548C114.927 259.798 106.78 264.013 106.78 264.013Z" fill="white"/>
</mask>
<g mask="url(#mask4_271_5)">
<path d="M128.816 262.844C144.874 254.806 167.742 245.463 167.742 245.463C166.057 245.463 126.726 255.301 120.827 257.548C114.927 259.798 106.78 264.013 106.78 264.013C106.78 264.013 96.2395 268.197 95.8238 276.381C95.5878 280.878 103.128 282.846 110.994 282.846C118.86 282.846 130.098 273.008 137.402 268.791L141.829 266.229C131.098 267.589 116.748 268.871 128.816 262.844Z" fill="#1D4ED8"/>
<path opacity="0.5" d="M128.816 262.844C144.874 254.806 167.742 245.463 167.742 245.463C166.057 245.463 126.726 255.301 120.827 257.548C114.927 259.798 106.78 264.013 106.78 264.013C106.78 264.013 96.2395 268.197 95.8238 276.381C95.5878 280.878 103.128 282.846 110.994 282.846C118.86 282.846 130.098 273.008 137.402 268.791L141.829 266.229C131.098 267.589 116.748 268.871 128.816 262.844Z" fill="white"/>
</g>
<path d="M106.78 264.013C106.78 264.013 96.2395 268.197 95.8238 276.381C95.5878 280.878 103.128 282.846 110.994 282.846C118.86 282.846 130.098 273.008 137.402 268.791C144.706 264.576 161.562 254.738 163.529 253.895C165.495 253.051 172.237 255.301 175.047 256.143C177.724 256.718 180.456 257 183.193 256.986C183.193 256.986 187.126 263.171 189.093 263.171C191.059 263.171 184.88 253.895 184.036 251.928C183.193 249.959 169.428 245.463 167.742 245.463C166.057 245.463 126.726 255.301 120.827 257.548C114.927 259.798 106.78 264.013 106.78 264.013Z" stroke="#1C2642" stroke-linecap="round" stroke-linejoin="round"/>
<path d="M188.947 201.501L180.385 249.679L242.19 249.961L251.381 204.267C251.458 203.865 251.446 203.449 251.348 203.051C251.249 202.652 251.064 202.281 250.809 201.96C250.551 201.64 250.23 201.378 249.863 201.195C249.497 201.011 249.095 200.908 248.685 200.894L191.823 199.186C191.147 199.164 190.484 199.384 189.957 199.81C189.429 200.235 189.07 200.836 188.947 201.501Z" fill="white" stroke="#1C2642" stroke-linecap="round" stroke-linejoin="round"/>
<path d="M180.385 249.679L150.291 270.973L219.12 269.006L242.19 249.961L180.385 249.679Z" fill="white"/>
<mask id="mask5_271_5" style="mask-type:luminance" maskUnits="userSpaceOnUse" x="150" y="249" width="93" height="22">
<path d="M180.385 249.679L150.291 270.973L219.12 269.006L242.19 249.961L180.385 249.679Z" fill="white"/>
</mask>
<g mask="url(#mask5_271_5)">
<path d="M180.385 249.679L150.291 270.973L219.12 269.006L242.19 249.961L180.385 249.679Z" fill="#1D4ED8"/>
<path opacity="0.5" d="M180.385 249.679L150.291 270.973L219.12 269.006L242.19 249.961L180.385 249.679Z" fill="white"/>
</g>
<path d="M180.385 249.679L150.291 270.973L219.12 269.006L242.19 249.961L180.385 249.679Z" stroke="#1C2642" stroke-linecap="round" stroke-linejoin="round"/>
<path d="M203.14 270.76C203.14 270.76 227.862 249.116 252.304 241.808C276.744 234.501 281.801 235.624 281.239 246.586C280.677 257.549 268.878 314.889 261.012 329.506C253.146 344.121 243.314 370.824 243.594 375.884C243.876 380.943 253.426 395.841 261.854 401.181C270.282 406.521 269.44 412.986 264.103 414.111C258.765 415.236 252.584 417.203 234.324 405.398C216.063 393.593 208.478 376.728 209.602 372.511C210.726 368.295 222.525 362.673 227.3 354.241C232.077 345.808 239.943 314.328 240.505 299.993C240.961 290.943 242.858 282.023 246.122 273.571C246.122 273.571 215.221 279.193 206.231 284.813L203.14 270.76Z" fill="white"/>
<mask id="mask6_271_5" style="mask-type:luminance" maskUnits="userSpaceOnUse" x="203" y="237" width="79" height="178">
<path d="M203.14 270.76C203.14 270.76 227.862 249.116 252.304 241.808C276.744 234.501 281.801 235.624 281.239 246.586C280.677 257.549 268.878 314.889 261.012 329.506C253.146 344.121 243.314 370.824 243.594 375.884C243.876 380.943 253.426 395.841 261.854 401.181C270.282 406.521 269.44 412.986 264.103 414.111C258.765 415.236 252.584 417.203 234.324 405.398C216.063 393.593 208.478 376.728 209.602 372.511C210.726 368.295 222.525 362.673 227.3 354.241C232.077 345.808 239.943 314.328 240.505 299.993C240.961 290.943 242.858 282.023 246.122 273.571C246.122 273.571 215.221 279.193 206.231 284.813L203.14 270.76Z" fill="white"/>
</mask>
<g mask="url(#mask6_271_5)">
<path d="M203.14 270.76C203.14 270.76 227.862 249.116 252.304 241.808C276.744 234.501 281.801 235.624 281.239 246.586C280.677 257.549 268.878 314.889 261.012 329.506C253.146 344.121 243.314 370.824 243.594 375.884C243.876 380.943 253.426 395.841 261.854 401.181C270.282 406.521 269.44 412.986 264.103 414.111C258.765 415.236 252.584 417.203 234.324 405.398C216.063 393.593 208.478 376.728 209.602 372.511C210.726 368.295 222.525 362.673 227.3 354.241C232.077 345.808 239.943 314.328 240.505 299.993C240.961 290.943 242.858 282.023 246.122 273.571C246.122 273.571 215.221 279.193 206.231 284.813L203.14 270.76Z" fill="#1D4ED8"/>
<path opacity="0.5" d="M203.14 270.76C203.14 270.76 227.862 249.116 252.304 241.808C276.744 234.501 281.801 235.624 281.239 246.586C280.677 257.549 268.878 314.889 261.012 329.506C253.146 344.121 243.314 370.824 243.594 375.884C243.876 380.943 253.426 395.841 261.854 401.181C270.282 406.521 269.44 412.986 264.103 414.111C258.765 415.236 252.584 417.203 234.324 405.398C216.063 393.593 208.478 376.728 209.602 372.511C210.726 368.295 222.525 362.673 227.3 354.241C232.077 345.808 239.943 314.328 240.505 299.993C240.961 290.943 242.858 282.023 246.122 273.571C246.122 273.571 215.221 279.193 206.231 284.813L203.14 270.76Z" fill="white"/>
</g>
<path d="M203.14 270.76C203.14 270.76 227.862 249.116 252.304 241.808C276.744 234.501 281.801 235.624 281.239 246.586C280.677 257.549 268.878 314.889 261.012 329.506C253.146 344.121 243.314 370.824 243.594 375.884C243.876 380.943 253.426 395.841 261.854 401.181C270.282 406.521 269.44 412.986 264.103 414.111C258.765 415.236 252.584 417.203 234.324 405.398C216.063 393.593 208.478 376.728 209.602 372.511C210.726 368.295 222.525 362.673 227.3 354.241C232.077 345.808 239.943 314.328 240.505 299.993C240.961 290.943 242.858 282.023 246.122 273.571C246.122 273.571 215.221 279.193 206.231 284.813L203.14 270.76Z" stroke="#1C2642" stroke-linecap="round" stroke-linejoin="round"/>
<path d="M227.3 354.241C226.941 354.871 226.536 355.478 226.11 356.085C231.92 356.632 237.43 358.929 241.909 362.673C243.255 363.844 244.538 365.086 245.751 366.394C249.831 353.705 254.934 341.368 261.012 329.506C268.878 314.889 280.677 257.549 281.239 246.586C281.801 235.624 276.744 234.501 252.304 241.808C227.862 249.116 203.14 270.76 203.14 270.76L206.231 284.813C215.221 279.193 246.122 273.571 246.122 273.571C242.858 282.023 240.961 290.943 240.505 299.993C239.943 314.328 232.077 345.808 227.3 354.241Z" fill="white" stroke="#1C2642" stroke-linecap="round" stroke-linejoin="round"/>
<path d="M227.3 354.241C226.941 354.871 226.536 355.478 226.11 356.085C231.92 356.632 237.43 358.929 241.909 362.673C243.255 363.844 244.538 365.086 245.751 366.394C251.135 359.154 257.191 336.319 264.024 326.92C281.678 302.646 280.677 257.549 281.239 246.586C281.801 235.624 276.744 234.501 252.304 241.808C227.862 249.116 203.14 270.76 203.14 270.76L206.231 284.813C215.221 279.193 246.122 273.571 246.122 273.571C242.858 282.023 240.961 290.943 240.505 299.993C239.943 314.328 232.077 345.808 227.3 354.241Z" fill="#1C2642"/>
<mask id="mask7_271_5" style="mask-type:luminance" maskUnits="userSpaceOnUse" x="203" y="237" width="79" height="130">
<path d="M227.3 354.241C226.941 354.871 226.536 355.478 226.11 356.085C231.92 356.632 237.43 358.929 241.909 362.673C243.255 363.844 244.538 365.086 245.751 366.394C251.135 359.154 257.191 336.319 264.024 326.92C281.678 302.646 280.677 257.549 281.239 246.586C281.801 235.624 276.744 234.501 252.304 241.808C227.862 249.116 203.14 270.76 203.14 270.76L206.231 284.813C215.221 279.193 246.122 273.571 246.122 273.571C242.858 282.023 240.961 290.943 240.505 299.993C239.943 314.328 232.077 345.808 227.3 354.241Z" fill="white"/>
</mask>
<g mask="url(#mask7_271_5)">
<path opacity="0.53" d="M227.3 354.241C226.941 354.871 226.536 355.478 226.11 356.085C231.92 356.632 237.43 358.929 241.909 362.673C243.255 363.844 244.538 365.086 245.751 366.394C251.135 359.154 257.191 336.319 264.024 326.92C281.678 302.646 280.677 257.549 281.239 246.586C281.801 235.624 276.744 234.501 252.304 241.808C227.862 249.116 203.14 270.76 203.14 270.76L206.231 284.813C215.221 279.193 246.122 273.571 246.122 273.571C242.858 282.023 240.961 290.943 240.505 299.993C239.943 314.328 232.077 345.808 227.3 354.241Z" fill="white"/>
<path opacity="0.14" d="M269.361 245.103C268.923 241.112 225.469 259.516 207.141 267.454C204.602 269.479 203.14 270.761 203.14 270.761L206.231 284.814C215.221 279.192 246.122 273.571 246.122 273.571C242.858 282.023 240.961 290.943 240.505 299.992C239.943 314.328 232.077 345.809 227.3 354.241C226.941 354.871 226.536 355.478 226.11 356.085C229.203 356.417 232.232 357.201 235.1 358.412C241.831 344.043 249.078 327.324 252.505 314.248C258.687 290.638 269.924 250.162 269.361 245.103Z" fill="#1C2642"/>
<path d="M246.123 273.571C246.123 273.571 254.551 256.424 261.854 249.398" stroke="#1C2642" stroke-linecap="round" stroke-linejoin="round"/>
</g>
<path d="M227.3 354.241C226.941 354.871 226.536 355.478 226.11 356.085C231.92 356.632 237.43 358.929 241.909 362.673C243.255 363.844 244.538 365.086 245.751 366.394C251.135 359.154 257.191 336.319 264.024 326.92C281.678 302.646 280.677 257.549 281.239 246.586C281.801 235.624 276.744 234.501 252.304 241.808C227.862 249.116 203.14 270.76 203.14 270.76L206.231 284.813C215.221 279.193 246.122 273.571 246.122 273.571C242.858 282.023 240.961 290.943 240.505 299.993C239.943 314.328 232.077 345.808 227.3 354.241Z" stroke="#1C2642" stroke-linecap="round" stroke-linejoin="round"/>
<path d="M166.102 293.448C175.151 293.035 184.098 291.351 192.678 288.445C205.387 283.814 182.273 275.335 173.417 279.968C170.944 281.168 168.906 283.114 167.594 285.532C166.282 287.95 165.76 290.719 166.102 293.448Z" fill="#1C2642" stroke="#1C2642" stroke-linecap="round" stroke-linejoin="round"/>
<path d="M129.536 275.257C129.536 275.257 120.546 280.316 117.456 285.939C114.365 291.561 127.659 300.925 141.706 300.363C155.752 299.801 181.509 284.533 181.509 284.533C181.509 284.533 181.789 309.268 186.564 318.263C191.341 327.257 213.253 349.181 221.963 354.804C230.671 360.424 259.888 381.506 264.383 384.879C268.878 388.251 277.306 394.436 279.272 394.716C281.239 394.998 301.748 369.981 306.523 361.549C311.298 353.116 315.513 335.409 313.827 331.474C312.142 327.539 308.77 330.911 305.399 333.722C302.028 336.533 271.126 357.051 268.316 358.457C266.782 359.245 265.185 359.903 263.541 360.424C263.541 360.424 238.257 336.251 224.771 317.701C211.286 299.149 210.164 275.257 205.107 266.263C200.049 257.268 192.746 253.333 181.789 254.457C170.832 255.581 148.077 261.484 129.536 275.257Z" fill="white"/>
<mask id="mask8_271_5" style="mask-type:luminance" maskUnits="userSpaceOnUse" x="117" y="254" width="198" height="141">
<path d="M129.536 275.257C129.536 275.257 120.546 280.316 117.456 285.939C114.365 291.561 127.659 300.925 141.706 300.363C155.752 299.801 181.509 284.533 181.509 284.533C181.509 284.533 181.789 309.268 186.564 318.263C191.341 327.257 213.253 349.181 221.963 354.804C230.671 360.424 259.888 381.506 264.383 384.879C268.878 388.251 277.306 394.436 279.272 394.716C281.239 394.998 301.748 369.981 306.523 361.549C311.298 353.116 315.513 335.409 313.827 331.474C312.142 327.539 308.77 330.911 305.399 333.722C302.028 336.533 271.126 357.051 268.316 358.457C266.782 359.245 265.185 359.903 263.541 360.424C263.541 360.424 238.257 336.251 224.771 317.701C211.286 299.149 210.164 275.257 205.107 266.263C200.049 257.268 192.746 253.333 181.789 254.457C170.832 255.581 148.077 261.484 129.536 275.257Z" fill="white"/>
</mask>
<g mask="url(#mask8_271_5)">
<path d="M248.405 373.275C255.91 378.649 262.44 383.395 264.383 384.855C268.878 388.23 277.306 394.413 279.273 394.695C279.97 394.795 283.004 391.704 286.835 387.307L254.663 366.598L248.405 373.275Z" fill="#1D4ED8"/>
<path opacity="0.5" d="M248.405 373.275C255.91 378.649 262.44 383.395 264.383 384.855C268.878 388.23 277.306 394.413 279.273 394.695C279.97 394.795 283.004 391.704 286.835 387.307L254.663 366.598L248.405 373.275Z" fill="white"/>
</g>
<path d="M129.536 275.257C129.536 275.257 120.546 280.316 117.456 285.939C114.365 291.561 127.659 300.925 141.706 300.363C155.752 299.801 181.509 284.533 181.509 284.533C181.509 284.533 181.789 309.268 186.564 318.263C191.341 327.257 213.253 349.181 221.963 354.804C230.671 360.424 259.888 381.506 264.383 384.879C268.878 388.251 277.306 394.436 279.272 394.716C281.239 394.998 301.748 369.981 306.523 361.549C311.298 353.116 315.513 335.409 313.827 331.474C312.142 327.539 308.77 330.911 305.399 333.722C302.028 336.533 271.126 357.051 268.316 358.457C266.782 359.245 265.185 359.903 263.541 360.424C263.541 360.424 238.257 336.251 224.771 317.701C211.286 299.149 210.164 275.257 205.107 266.263C200.049 257.268 192.746 253.333 181.789 254.457C170.832 255.581 148.077 261.484 129.536 275.257Z" stroke="#1C2642" stroke-linecap="round" stroke-linejoin="round"/>
<path d="M261.799 358.738C255.855 352.936 233.571 323.018 224.772 305.816C211.883 280.609 210.489 272.019 205.433 263.025C200.376 254.03 192.746 253.333 181.834 254.456C170.924 255.581 151.269 257.617 127.221 271.266C127.221 271.266 117.108 276.753 114.029 282.375C110.95 287.995 122.198 302.152 141.751 300.363C155.752 299.081 181.554 284.533 181.554 284.533C181.554 284.533 181.834 309.268 186.611 318.263C191.386 327.256 213.299 349.181 222.008 354.803C227.525 358.367 241.291 368.149 251.776 375.682C254.36 366.271 259.001 361.122 261.799 358.738Z" fill="#1C2642"/>
<mask id="mask9_271_5" style="mask-type:luminance" maskUnits="userSpaceOnUse" x="113" y="254" width="149" height="122">
<path d="M261.799 358.738C255.855 352.936 233.571 323.018 224.772 305.816C211.883 280.609 210.489 272.019 205.433 263.025C200.376 254.03 192.746 253.333 181.834 254.456C170.924 255.581 151.269 257.617 127.221 271.266C127.221 271.266 117.108 276.753 114.029 282.375C110.95 287.995 122.198 302.152 141.751 300.363C155.752 299.081 181.554 284.533 181.554 284.533C181.554 284.533 181.834 309.268 186.611 318.263C191.386 327.256 213.299 349.181 222.008 354.803C227.525 358.367 241.291 368.149 251.776 375.682C254.36 366.271 259.001 361.122 261.799 358.738Z" fill="white"/>
</mask>
<g mask="url(#mask9_271_5)">
<path opacity="0.53" d="M261.799 358.738C255.855 352.936 233.571 323.018 224.772 305.816C211.883 280.609 210.489 272.019 205.433 263.025C200.376 254.03 192.746 253.333 181.834 254.456C170.924 255.581 151.269 257.617 127.221 271.266C127.221 271.266 117.108 276.753 114.029 282.375C110.95 287.995 122.198 302.152 141.751 300.363C155.752 299.081 181.554 284.533 181.554 284.533C181.554 284.533 181.834 309.268 186.611 318.263C191.386 327.256 213.299 349.181 222.008 354.803C227.525 358.367 241.291 368.149 251.776 375.682C254.36 366.271 259.001 361.122 261.799 358.738Z" fill="white"/>
<path opacity="0.14" d="M205.309 318.746C196.881 297.385 201.938 254.66 178.34 260.281C161.147 264.374 129.626 278.922 113.792 286.512C115.669 292.966 126.007 301.802 141.706 300.363C155.708 299.081 181.509 284.533 181.509 284.533C181.509 284.533 181.789 309.268 186.565 318.263C191.342 327.257 213.253 349.181 221.963 354.804C227.48 358.367 241.246 368.149 251.73 375.682C252.632 372.391 253.95 369.229 255.652 366.271C234.729 350.79 210.018 330.676 205.309 318.746Z" fill="#1C2642"/>
<path d="M181.509 284.534L180.665 269.917" stroke="#1C2642" stroke-linecap="round" stroke-linejoin="round"/>
</g>
<path d="M261.799 358.738C255.855 352.936 233.571 323.018 224.772 305.816C211.883 280.609 210.489 272.019 205.433 263.025C200.376 254.03 192.746 253.333 181.834 254.456C170.924 255.581 151.269 257.617 127.221 271.266C127.221 271.266 117.108 276.753 114.029 282.375C110.95 287.995 122.198 302.152 141.751 300.363C155.752 299.081 181.554 284.533 181.554 284.533C181.554 284.533 181.834 309.268 186.611 318.263C191.386 327.256 213.299 349.181 222.008 354.803C227.525 358.367 241.291 368.149 251.776 375.682C254.36 366.271 259.001 361.122 261.799 358.738Z" stroke="#1C2642" stroke-linecap="round" stroke-linejoin="round"/>
<path d="M264.383 384.879C268.878 388.251 277.306 394.436 279.273 394.716C281.239 394.998 301.748 369.981 306.523 361.549C311.298 353.116 315.513 335.408 313.827 331.473C312.142 327.538 308.77 330.911 305.399 333.721C302.028 336.533 271.125 357.051 268.316 358.456C267.575 358.828 266.901 359.131 266.305 359.39C265.497 360.931 264.506 363.314 265.181 364.921C266.305 367.451 271.08 370.824 271.08 370.824L262.574 383.575L264.383 384.879Z" fill="#1C2642" stroke="#1C2642" stroke-linecap="round" stroke-linejoin="round"/>
<path d="M306.523 361.549C311.3 353.116 315.513 335.409 313.827 331.474C312.85 329.224 311.31 329.37 309.524 330.472C310.704 335.723 309.524 345.853 303.714 356.771C298.534 366.507 282.531 383.754 274.497 392.097C275.96 393.199 277.577 394.082 279.295 394.716C281.239 394.998 301.748 369.981 306.523 361.549Z" fill="white"/>
<mask id="mask10_271_5" style="mask-type:luminance" maskUnits="userSpaceOnUse" x="274" y="329" width="41" height="66">
<path d="M306.523 361.549C311.3 353.116 315.513 335.409 313.827 331.474C312.85 329.224 311.31 329.37 309.524 330.472C310.704 335.723 309.524 345.853 303.714 356.771C298.534 366.507 282.531 383.754 274.497 392.097C275.96 393.199 277.577 394.082 279.295 394.716C281.239 394.998 301.748 369.981 306.523 361.549Z" fill="white"/>
</mask>
<g mask="url(#mask10_271_5)">
<path d="M279.554 394.638L279.8 394.514L279.868 394.457C280.004 394.38 280.132 394.291 280.25 394.188L280.386 394.075L280.711 393.806L280.891 393.638L281.328 393.233L281.599 392.974L281.969 392.615L282.284 392.299L282.598 391.985L283.396 391.142L283.532 391.006L284.026 390.467L284.228 390.253C284.813 389.612 285.441 388.915 286.094 388.173V388.117L286.79 387.33L281.879 384.17C279.092 387.207 276.497 389.949 274.429 392.097L275.182 392.592L275.295 392.659L275.991 393.097L277.115 393.738L277.429 393.918L277.745 394.088L278.103 394.266L278.339 394.379C278.453 394.436 278.569 394.485 278.689 394.525L278.856 394.593C278.986 394.647 279.123 394.685 279.261 394.705C279.331 394.724 279.405 394.724 279.474 394.705L279.554 394.638Z" fill="#1D4ED8"/>
<path opacity="0.5" d="M279.554 394.638L279.8 394.514L279.868 394.457C280.004 394.38 280.132 394.291 280.25 394.188L280.386 394.075L280.711 393.806L280.891 393.638L281.328 393.233L281.599 392.974L281.969 392.615L282.284 392.299L282.598 391.985L283.396 391.142L283.532 391.006L284.026 390.467L284.228 390.253C284.813 389.612 285.441 388.915 286.094 388.173V388.117L286.79 387.33L281.879 384.17C279.092 387.207 276.497 389.949 274.429 392.097L275.182 392.592L275.295 392.659L275.991 393.097L277.115 393.738L277.429 393.918L277.745 394.088L278.103 394.266L278.339 394.379C278.453 394.436 278.569 394.485 278.689 394.525L278.856 394.593C278.986 394.647 279.123 394.685 279.261 394.705C279.331 394.724 279.405 394.724 279.474 394.705L279.554 394.638Z" fill="white"/>
</g>
<path d="M306.523 361.549C311.3 353.116 315.513 335.409 313.827 331.474C312.85 329.224 311.31 329.37 309.524 330.472C310.704 335.723 309.524 345.853 303.714 356.771C298.534 366.507 282.531 383.754 274.497 392.097C275.96 393.199 277.577 394.082 279.295 394.716C281.239 394.998 301.748 369.981 306.523 361.549Z" stroke="#1C2642" stroke-linecap="round" stroke-linejoin="round"/>
<path d="M261.854 401.181C253.426 395.841 243.874 380.944 243.594 375.884C243.582 375.331 243.626 374.776 243.729 374.232C242.051 374.285 240.432 374.862 239.099 375.884C235.64 372.744 231.98 369.833 228.142 367.171C225.052 365.39 221.59 364.354 218.03 364.146C213.95 367.519 210.164 370.217 209.568 372.511C208.444 376.728 216.029 393.592 234.29 405.398C252.55 417.203 258.73 415.236 264.069 414.111C269.406 412.986 270.282 406.521 261.854 401.181Z" fill="#1C2642" stroke="#1C2642" stroke-linecap="round" stroke-linejoin="round"/>
<path d="M261.855 401.181C259.063 399.287 256.543 397.018 254.371 394.436C248.573 391.961 240.83 388.814 234.042 384.586C226.738 380.088 228.424 377.278 224.21 373.063C220.974 369.824 214.613 369.408 211.849 369.385C210.851 370.218 210.078 371.289 209.602 372.5C208.478 376.716 216.063 393.581 234.324 405.386C252.584 417.192 258.764 415.223 264.103 414.1C269.44 412.975 270.283 406.521 261.855 401.181Z" fill="white"/>
<mask id="mask11_271_5" style="mask-type:luminance" maskUnits="userSpaceOnUse" x="209" y="369" width="60" height="46">
<path d="M261.855 401.181C259.063 399.287 256.543 397.018 254.371 394.436C248.573 391.961 240.83 388.814 234.042 384.586C226.738 380.088 228.424 377.278 224.21 373.063C220.974 369.824 214.613 369.408 211.849 369.385C210.851 370.218 210.078 371.289 209.602 372.5C208.478 376.716 216.063 393.581 234.324 405.386C252.584 417.192 258.764 415.223 264.103 414.1C269.44 412.975 270.283 406.521 261.855 401.181Z" fill="white"/>
</mask>
<g mask="url(#mask11_271_5)">
<path d="M261.855 401.181C259.063 399.287 256.543 397.018 254.371 394.436C248.573 391.961 240.83 388.814 234.042 384.586C226.738 380.088 228.424 377.278 224.21 373.063C220.974 369.824 214.613 369.408 211.849 369.385C210.851 370.218 210.078 371.289 209.602 372.5C208.478 376.716 216.063 393.581 234.324 405.386C252.584 417.192 258.764 415.223 264.103 414.1C269.44 412.975 270.283 406.521 261.855 401.181Z" fill="#1D4ED8"/>
<path opacity="0.5" d="M261.855 401.181C259.063 399.287 256.543 397.018 254.371 394.436C248.573 391.961 240.83 388.814 234.042 384.586C226.738 380.088 228.424 377.278 224.21 373.063C220.974 369.824 214.613 369.408 211.849 369.385C210.851 370.218 210.078 371.289 209.602 372.5C208.478 376.716 216.063 393.581 234.324 405.386C252.584 417.192 258.764 415.223 264.103 414.1C269.44 412.975 270.283 406.521 261.855 401.181Z" fill="white"/>
</g>
<path d="M261.855 401.181C259.063 399.287 256.543 397.018 254.371 394.436C248.573 391.961 240.83 388.814 234.042 384.586C226.738 380.088 228.424 377.278 224.21 373.063C220.974 369.824 214.613 369.408 211.849 369.385C210.851 370.218 210.078 371.289 209.602 372.5C208.478 376.716 216.063 393.581 234.324 405.386C252.584 417.192 258.764 415.223 264.103 414.1C269.44 412.975 270.283 406.521 261.855 401.181Z" stroke="#1C2642" stroke-linecap="round" stroke-linejoin="round"/>
<path d="M263.259 403.149C255.955 398.933 241.065 396.121 231.513 389.656C221.963 383.191 224.491 377.571 217.468 373.073C216.345 372.234 215.001 371.744 213.602 371.664C212.203 371.583 210.812 371.918 209.602 372.623C208.624 377.008 216.231 393.682 234.324 405.398C252.415 417.112 258.764 415.236 264.103 414.111C267.652 413.357 269.192 410.254 267.361 406.691C266.214 405.276 264.825 404.076 263.259 403.149Z" fill="#1C2642"/>
<mask id="mask12_271_5" style="mask-type:luminance" maskUnits="userSpaceOnUse" x="209" y="371" width="60" height="44">
<path d="M263.259 403.149C255.955 398.933 241.065 396.121 231.513 389.656C221.963 383.191 224.491 377.571 217.468 373.073C216.345 372.234 215.001 371.744 213.602 371.664C212.203 371.583 210.812 371.918 209.602 372.623C208.624 377.008 216.231 393.682 234.324 405.398C252.415 417.112 258.764 415.236 264.103 414.111C267.652 413.357 269.192 410.254 267.361 406.691C266.214 405.276 264.825 404.076 263.259 403.149Z" fill="white"/>
</mask>
<g mask="url(#mask12_271_5)">
<path opacity="0.53" d="M263.259 403.149C255.955 398.933 241.065 396.121 231.513 389.656C221.963 383.191 224.491 377.571 217.468 373.073C216.345 372.234 215.001 371.744 213.602 371.664C212.203 371.583 210.812 371.918 209.602 372.623C208.624 377.008 216.231 393.682 234.324 405.398C252.415 417.112 258.764 415.236 264.103 414.111C267.652 413.357 269.192 410.254 267.361 406.691C266.214 405.276 264.825 404.076 263.259 403.149Z" fill="white"/>
</g>
<path d="M263.259 403.149C255.955 398.933 241.065 396.121 231.513 389.656C221.963 383.191 224.491 377.571 217.468 373.073C216.345 372.234 215.001 371.744 213.602 371.664C212.203 371.583 210.812 371.918 209.602 372.623C208.624 377.008 216.231 393.682 234.324 405.398C252.415 417.112 258.764 415.236 264.103 414.111C267.652 413.357 269.192 410.254 267.361 406.691C266.214 405.276 264.825 404.076 263.259 403.149Z" stroke="#1C2642" stroke-linecap="round" stroke-linejoin="round"/>
<path d="M123.265 349.385C123.265 349.385 128.659 342.829 129.423 347.844C130.187 352.858 129.041 362.1 125.187 365.562C121.332 369.026 119.411 363.64 119.411 363.64L121.725 360.56C121.725 360.56 123.647 364.416 125.187 358.244C126.726 352.072 122.108 352.847 122.108 352.847L123.265 349.385Z" fill="white" stroke="#1C2642" stroke-linecap="round" stroke-linejoin="round"/>
<path d="M119.141 374.052C115.95 376.412 105.544 376.412 102.364 374.052C95.6218 369.047 96.7455 344.875 96.7455 344.875H124.681C124.681 344.875 125.895 369.047 119.141 374.052Z" fill="white" stroke="#1C2642" stroke-linecap="round" stroke-linejoin="round"/>
<path d="M99.8022 340.131C99.8022 337.095 102.623 337.095 102.623 334.048C102.623 331 99.8022 331 99.8022 327.965C99.8022 324.93 102.623 324.919 102.623 321.871C102.623 318.824 99.8022 318.824 99.8022 315.778C99.8022 312.73 102.623 312.73 102.623 309.684" stroke="#1C2642" stroke-linecap="round" stroke-linejoin="round"/>
<path d="M109.455 340.131C109.455 337.881 112.275 337.881 112.275 335.51C112.275 333.137 109.455 333.205 109.455 330.888C109.455 328.572 112.275 328.585 112.275 326.267C112.275 323.952 109.455 323.952 109.455 321.636C109.455 319.32 112.275 319.331 112.275 317.015" stroke="#1C2642" stroke-linecap="round" stroke-linejoin="round"/>
<path d="M120.074 340.131C120.074 337.095 122.883 337.095 122.883 334.048C122.883 331 120.074 331 120.074 327.965C120.074 324.93 122.883 324.919 122.883 321.871C122.883 318.824 120.074 318.824 120.074 315.778C120.074 312.73 122.883 312.73 122.883 309.684" stroke="#1C2642" stroke-linecap="round" stroke-linejoin="round"/>
<path d="M124.704 344.875C124.704 345.583 118.456 346.146 110.736 346.146C103.016 346.146 96.7681 345.583 96.7681 344.875C96.7681 344.167 103.016 343.605 110.736 343.605C118.456 343.605 124.704 344.167 124.704 344.875Z" fill="white" stroke="#1C2642" stroke-linecap="round" stroke-linejoin="round"/>
<path d="M150.493 170.897C150.493 170.897 151.808 185.097 152.359 189.583C152.909 194.07 154.157 206.954 155.449 211.215C156.741 215.477 163.787 222.886 164.439 221.176C165.09 219.468 168.597 207.877 167.203 200.939C165.809 194.002 165.383 188.077 166.248 186.323C167.114 184.568 170.226 182.601 170.226 182.601C166.601 180.743 163.077 178.69 159.674 176.452C154.708 173.145 151.19 169.401 150.493 170.897Z" fill="white"/>
<mask id="mask13_271_5" style="mask-type:luminance" maskUnits="userSpaceOnUse" x="150" y="170" width="21" height="52">
<path d="M150.493 170.897C150.493 170.897 151.808 185.097 152.359 189.583C152.909 194.07 154.157 206.954 155.449 211.215C156.741 215.477 163.787 222.886 164.439 221.176C165.09 219.468 168.597 207.877 167.203 200.939C165.809 194.002 165.383 188.077 166.248 186.323C167.114 184.568 170.226 182.601 170.226 182.601C166.601 180.743 163.077 178.69 159.674 176.452C154.708 173.145 151.19 169.401 150.493 170.897Z" fill="white"/>
</mask>
<g mask="url(#mask13_271_5)">
<path d="M168.529 183.366L167.406 181.184C165.338 180.06 162.461 178.396 159.729 176.564C154.729 173.191 151.212 169.401 150.516 170.942C150.516 170.942 151.83 185.143 152.381 189.628C152.932 194.114 154.18 207 155.472 211.26C155.912 212.506 156.52 213.686 157.281 214.768C155.921 206.291 157.393 190.977 157.393 190.977L168.529 183.366Z" fill="#1D4ED8"/>
<path opacity="0.5" d="M168.529 183.366L167.406 181.184C165.338 180.06 162.461 178.396 159.729 176.564C154.729 173.191 151.212 169.401 150.516 170.942C150.516 170.942 151.83 185.143 152.381 189.628C152.932 194.114 154.18 207 155.472 211.26C155.912 212.506 156.52 213.686 157.281 214.768C155.921 206.291 157.393 190.977 157.393 190.977L168.529 183.366Z" fill="white"/>
</g>
<path d="M150.493 170.897C150.493 170.897 151.808 185.097 152.359 189.583C152.909 194.07 154.157 206.954 155.449 211.215C156.741 215.477 163.787 222.886 164.439 221.176C165.09 219.468 168.597 207.877 167.203 200.939C165.809 194.002 165.383 188.077 166.248 186.323C167.114 184.568 170.226 182.601 170.226 182.601C166.601 180.743 163.077 178.69 159.674 176.452C154.708 173.145 151.19 169.401 150.493 170.897Z" stroke="#1C2642" stroke-linecap="round" stroke-linejoin="round"/>
<path d="M149.976 172.954C149.976 172.954 158.067 179.701 164.269 182.174C170.472 184.647 180.003 184.49 181.361 181.263C182.721 178.037 179.002 152.48 175.799 145.757C172.597 139.034 169.18 138.921 163.529 138.404C157.876 137.887 146.571 142.496 144.582 147.961C142.593 153.425 144.863 161.16 146.504 165.748C147.371 168.279 148.537 170.698 149.976 172.954Z" fill="white"/>
<mask id="mask14_271_5" style="mask-type:luminance" maskUnits="userSpaceOnUse" x="143" y="138" width="39" height="46">
<path d="M149.976 172.954C149.976 172.954 158.067 179.701 164.269 182.174C170.472 184.647 180.003 184.49 181.361 181.263C182.721 178.037 179.002 152.48 175.799 145.757C172.597 139.034 169.18 138.921 163.529 138.404C157.876 137.887 146.571 142.496 144.582 147.961C142.593 153.425 144.863 161.16 146.504 165.748C147.371 168.279 148.537 170.698 149.976 172.954Z" fill="white"/>
</mask>
<g mask="url(#mask14_271_5)">
<path d="M164.505 172.65C161.641 164.152 160.922 150.772 160.922 147.207C160.922 144.453 168.09 141.428 171.361 140.192C169.214 138.865 166.719 138.696 163.495 138.404C157.876 137.898 146.537 142.497 144.548 147.961C142.559 153.425 144.829 161.16 146.47 165.748C147.338 168.279 148.503 170.698 149.942 172.954C149.942 172.954 158.033 179.701 164.236 182.174C168.535 183.802 173.192 184.248 177.721 183.466C173.283 181.792 166.416 178.328 164.505 172.65Z" fill="#1D4ED8"/>
<path opacity="0.5" d="M164.505 172.65C161.641 164.152 160.922 150.772 160.922 147.207C160.922 144.453 168.09 141.428 171.361 140.192C169.214 138.865 166.719 138.696 163.495 138.404C157.876 137.898 146.537 142.497 144.548 147.961C142.559 153.425 144.829 161.16 146.47 165.748C147.338 168.279 148.503 170.698 149.942 172.954C149.942 172.954 158.033 179.701 164.236 182.174C168.535 183.802 173.192 184.248 177.721 183.466C173.283 181.792 166.416 178.328 164.505 172.65Z" fill="white"/>
</g>
<path d="M149.976 172.954C149.976 172.954 158.067 179.701 164.269 182.174C170.472 184.647 180.003 184.49 181.361 181.263C182.721 178.037 179.002 152.48 175.799 145.757C172.597 139.034 169.18 138.921 163.529 138.404C157.876 137.887 146.571 142.496 144.582 147.961C142.593 153.425 144.863 161.16 146.504 165.748C147.371 168.279 148.537 170.698 149.976 172.954Z" stroke="#1C2642" stroke-linecap="round" stroke-linejoin="round"/>
<path d="M176.406 156.28C176.541 159.519 174.507 162.229 171.912 162.329C169.316 162.431 167.046 159.901 166.923 156.709C166.798 153.515 168.822 150.761 171.416 150.648C174.013 150.536 176.283 153.009 176.406 156.28Z" stroke="#1C2642" stroke-linecap="round" stroke-linejoin="round"/>
<path d="M182.767 155.021C182.903 158.26 181.857 160.924 180.442 160.981C179.025 161.036 177.767 158.462 177.642 155.223C177.519 151.986 178.565 149.31 179.98 149.254C181.397 149.198 182.644 151.784 182.767 155.021Z" stroke="#1C2642" stroke-linecap="round" stroke-linejoin="round"/>
<path d="M176.743 155.089C176.743 155.089 186.026 156.855 185.127 159.092C184.227 161.329 177.958 163.747 177.958 163.747" fill="white"/>
<path d="M176.743 155.089C176.743 155.089 186.026 156.855 185.127 159.092C184.227 161.329 177.958 163.747 177.958 163.747" stroke="#1C2642" stroke-linecap="round" stroke-linejoin="round"/>
<path d="M176.17 154.033C176.17 154.033 176.305 152.908 177.733 153.617" stroke="#1C2642" stroke-linecap="round" stroke-linejoin="round"/>
<path d="M166.63 157.159L149.752 163.802" stroke="#1C2642" stroke-linecap="round" stroke-linejoin="round"/>
<path d="M166.855 151.694C167.211 150.89 167.804 150.215 168.557 149.76C169.308 149.306 170.181 149.094 171.057 149.153" stroke="#1C2642" stroke-width="2" stroke-linecap="round" stroke-linejoin="round"/>
<path d="M178.092 149.231L175.496 150.21" stroke="#1C2642" stroke-width="2" stroke-linecap="round" stroke-linejoin="round"/>
<path d="M170.069 168.087C170.069 168.087 173.44 167.209 175.351 169.21" stroke="#1C2642" stroke-linecap="round" stroke-linejoin="round"/>
<path d="M172.237 156.866C172.396 157.991 172.237 158.957 171.777 159.014C171.316 159.069 170.911 158.203 170.754 157.068C170.597 155.932 170.811 154.988 171.227 154.932C171.643 154.875 172.092 155.741 172.237 156.866Z" fill="#1C2642"/>
<path d="M151.325 163.849C151.325 163.849 150.202 166.097 153.371 166.209C156.539 166.321 158.697 164.781 157.158 162.836C155.618 160.89 153.337 159.069 155.686 156.529C158.035 153.988 162.596 151.851 160.035 149.018C157.472 146.185 148.044 148.759 150.404 146.466C152.764 144.172 163.665 141.777 168.563 142.081C173.463 142.385 182.61 138.584 184.621 133.615C186.632 128.645 183.824 119.46 177.239 119.954C170.654 120.449 165.743 126.284 162.821 126.7C159.899 127.116 153.91 123.867 148.887 126.7C143.864 129.534 143.695 137.674 143.268 138.674C142.841 139.675 136.032 141.159 134.829 148.051C134.378 150.83 134.571 153.675 135.393 156.367C136.215 159.06 137.645 161.527 139.571 163.577C142.392 166.648 143.662 167.816 143.662 167.816L151.325 163.849Z" fill="#1C2642" stroke="#1C2642" stroke-linecap="round" stroke-linejoin="round"/>
<path d="M137.031 151.39C136.973 152.436 137.223 153.476 137.75 154.381" stroke="white" stroke-width="0.75" stroke-linecap="round" stroke-linejoin="round"/>
<path d="M165.676 133.592C165.676 133.592 163.226 128.229 169.473 128.229C175.722 128.229 176.62 136.099 170.148 138.955C163.675 141.811 149.595 142.53 141.998 145.892C140.508 146.476 139.181 147.414 138.133 148.624" stroke="white" stroke-width="0.75" stroke-linecap="round" stroke-linejoin="round"/>
<path d="M154.358 152.638C152.112 153.448 149.201 154.572 146.246 155.944C139.987 158.856 141.324 161.756 141.324 161.756" stroke="white" stroke-width="0.75" stroke-linecap="round" stroke-linejoin="round"/>
<path d="M158.529 151.255C158.529 151.255 157.978 151.413 157.044 151.716" stroke="white" stroke-width="0.75" stroke-linecap="round" stroke-linejoin="round"/>
<path d="M152.392 166.253C152.392 166.253 148.763 161.015 144.942 163.116C141.121 165.22 144.088 172.697 146.392 175.293C148.695 177.891 153.134 173.045 153.595 171.831" fill="white"/>
<mask id="mask15_271_5" style="mask-type:luminance" maskUnits="userSpaceOnUse" x="143" y="162" width="11" height="15">
<path d="M152.392 166.253C152.392 166.253 148.763 161.015 144.942 163.116C141.121 165.22 144.088 172.697 146.392 175.293C148.695 177.891 153.134 173.045 153.595 171.831" fill="white"/>
</mask>
<g mask="url(#mask15_271_5)">
<path d="M152.392 166.253C152.392 166.253 148.763 161.015 144.942 163.116C141.121 165.22 144.088 172.697 146.392 175.293C148.695 177.891 153.134 173.045 153.595 171.831" fill="#1D4ED8"/>
<path opacity="0.5" d="M152.392 166.253C152.392 166.253 148.763 161.015 144.942 163.116C141.121 165.22 144.088 172.697 146.392 175.293C148.695 177.891 153.134 173.045 153.595 171.831" fill="white"/>
</g>
<path d="M152.392 166.253C152.392 166.253 148.763 161.015 144.942 163.116C141.121 165.22 144.088 172.697 146.392 175.293C148.695 177.891 153.134 173.045 153.595 171.831" stroke="#1C2642" stroke-linecap="round" stroke-linejoin="round"/>
<path d="M106.556 161.476H26.007C22.8294 161.476 20.2534 164.053 20.2534 167.232V226.147C20.2534 229.325 22.8294 231.903 26.007 231.903H106.556C109.733 231.903 112.309 229.325 112.309 226.147V167.232C112.309 164.053 109.733 161.476 106.556 161.476Z" fill="white" stroke="#1C2642" stroke-linecap="round" stroke-linejoin="round"/>
<path d="M110.556 212.137L164.494 226.192L110.556 199.77" fill="white"/>
<path d="M110.556 212.137L164.494 226.192L110.556 199.77" stroke="#1C2642" stroke-linecap="round" stroke-linejoin="round"/>
<path d="M49.3471 168.244H27.6929V225.134H49.3471V168.244Z" fill="#1D4ED8" stroke="#1C2642" stroke-linecap="round" stroke-linejoin="round"/>
<path d="M107.533 168.244H104.825V225.134H107.533V168.244Z" fill="#1D4ED8" stroke="#1C2642" stroke-linecap="round" stroke-linejoin="round"/>
<path d="M107.533 194.249H104.825V199.107H107.533V194.249Z" fill="#1C2642" stroke="#1C2642" stroke-linecap="round" stroke-linejoin="round"/>
<path d="M56.1226 169.592H98.7681" stroke="#1C2642" stroke-linecap="round" stroke-linejoin="round"/>
<path d="M56.1226 175.688H98.7681" stroke="#1C2642" stroke-linecap="round" stroke-linejoin="round"/>
<path d="M56.1226 181.792H98.7681" stroke="#1C2642" stroke-linecap="round" stroke-linejoin="round"/>
<path d="M56.1226 187.886H98.7681" stroke="#1C2642" stroke-linecap="round" stroke-linejoin="round"/>
<path d="M56.1226 202.783H98.7681" stroke="#1C2642" stroke-linecap="round" stroke-linejoin="round"/>
<path d="M56.1226 208.202H98.7681" stroke="#1C2642" stroke-linecap="round" stroke-linejoin="round"/>
<path d="M56.1226 213.622H98.7681" stroke="#1C2642" stroke-linecap="round" stroke-linejoin="round"/>
<path d="M56.1226 224.865H98.7681" stroke="#1C2642" stroke-linecap="round" stroke-linejoin="round"/>
<path d="M27.6929 225.124L49.3584 168.244" stroke="#1C2642" stroke-linecap="round" stroke-linejoin="round"/>
<path d="M354.056 382.563C364.44 382.563 372.857 378.786 372.857 374.13C372.857 369.473 364.44 365.698 354.056 365.698C343.674 365.698 335.257 369.473 335.257 374.13C335.257 378.786 343.674 382.563 354.056 382.563Z" fill="#1D4ED8"/>
<path opacity="0.5" d="M354.056 382.563C364.44 382.563 372.857 378.786 372.857 374.13C372.857 369.473 364.44 365.698 354.056 365.698C343.674 365.698 335.257 369.473 335.257 374.13C335.257 378.786 343.674 382.563 354.056 382.563Z" fill="white"/>
<path d="M332.065 249.352C334.077 250.23 338.999 250.118 338.999 250.118C338.999 250.118 337.942 246.89 337.875 246.743C336.751 244.496 333.38 240.752 330.605 241.123C330.149 241.204 329.715 241.382 329.33 241.639C328.945 241.896 328.617 242.232 328.367 242.622C328.118 243.012 327.95 243.451 327.877 243.908C327.804 244.366 327.825 244.833 327.941 245.283C328.356 247.172 330.346 248.599 332.065 249.352Z" fill="#1C2642"/>
<path d="M396.522 232.588C393.735 232.296 390.42 236.107 389.397 238.402C389.308 238.603 388.275 241.853 388.341 241.853H388.398C387.87 242.449 387.274 243.101 386.724 243.82C385.6 245.159 384.408 246.677 383.194 248.43C381.862 250.298 380.644 252.242 379.543 254.254C378.294 256.502 377.249 258.858 376.419 261.292C376.413 261.322 376.413 261.352 376.419 261.383C376.419 260.562 376.419 258.257 376.419 258.077C376.092 255.604 374.013 250.983 371.249 250.476C370.79 250.413 370.324 250.447 369.879 250.572C369.432 250.698 369.018 250.914 368.659 251.207C368.3 251.501 368.006 251.865 367.795 252.276C367.583 252.689 367.458 253.14 367.429 253.603C367.272 255.57 368.699 257.548 370.093 258.796C371.665 260.202 376.026 261.562 376.374 261.664C375.596 264.163 374.98 266.708 374.531 269.287C374.261 270.793 374.047 272.312 373.835 273.84C373.835 273.121 373.835 272.491 373.835 272.401C373.508 269.916 371.429 265.306 368.676 264.801C368.217 264.736 367.75 264.767 367.304 264.892C366.857 265.015 366.442 265.231 366.083 265.523C365.722 265.814 365.427 266.178 365.214 266.589C365.002 267.001 364.875 267.452 364.845 267.915C364.688 269.894 366.114 271.862 367.507 273.11C368.901 274.358 372.62 275.617 373.61 275.931C373.542 276.516 373.464 277.056 373.385 277.686C373.048 280.496 372.732 283.307 372.329 286.061C372.182 287.029 372.013 287.973 371.845 288.918C371.845 288.288 371.845 287.793 371.845 287.681C371.519 285.195 369.44 280.586 366.676 280.069C366.217 280.006 365.75 280.039 365.305 280.165C364.859 280.29 364.444 280.507 364.085 280.8C363.727 281.092 363.433 281.456 363.222 281.869C363.009 282.28 362.884 282.732 362.855 283.194C362.698 285.174 364.126 287.141 365.519 288.389C366.911 289.637 370.271 290.773 371.44 291.143C371.238 292.11 371.024 293.078 370.789 294.01C370.609 294.64 370.475 295.258 370.261 295.877C370.047 296.495 369.868 297.113 369.665 297.72C369.249 298.845 368.822 300.082 368.383 301.195C368.08 301.982 367.777 302.724 367.486 303.444C367.63 302.476 367.889 300.587 367.889 300.43C367.863 298.227 367.27 296.067 366.171 294.156C366.187 293.913 366.187 293.67 366.171 293.426C366.104 292.967 365.944 292.528 365.699 292.133C365.456 291.741 365.134 291.402 364.754 291.137C364.373 290.873 363.942 290.691 363.488 290.6C363.034 290.511 362.566 290.516 362.114 290.616C359.406 291.335 357.686 296.09 357.552 298.586C357.552 298.743 357.641 300.352 357.719 301.364C357.585 300.779 357.461 300.239 357.316 299.598C357.023 298.395 356.709 297.204 356.372 295.933C356.181 295.315 356.001 294.696 355.81 294.078C355.619 293.46 355.371 292.819 355.157 292.178C354.618 290.716 354.034 289.255 353.349 287.793C354.406 287.545 358.114 286.601 359.607 285.454C361.103 284.308 362.664 282.453 362.641 280.473C362.653 280.011 362.566 279.55 362.388 279.122C362.21 278.694 361.943 278.308 361.606 277.991C361.269 277.672 360.869 277.429 360.431 277.276C359.994 277.122 359.53 277.063 359.068 277.1C356.27 277.404 353.854 281.846 353.349 284.296C353.349 284.454 353.158 286.252 353.078 287.242C352.685 286.365 352.293 285.499 351.865 284.622C350.617 282.116 349.281 279.62 347.955 277.111C347.539 276.347 347.146 275.583 346.752 274.808C347.123 274.728 351.561 273.683 353.224 272.412C354.709 271.287 356.281 269.411 356.27 267.431C356.272 266.97 356.178 266.512 355.995 266.089C355.811 265.665 355.545 265.284 355.208 264.967C354.872 264.651 354.475 264.408 354.041 264.251C353.608 264.095 353.146 264.029 352.685 264.058C349.898 264.362 347.482 268.804 346.977 271.255C346.977 271.434 346.707 274.031 346.674 274.695C345.797 272.997 344.943 271.321 344.156 269.602C343.096 267.309 342.183 264.95 341.425 262.54C341.595 262.54 346.235 261.416 347.944 260.135C349.427 259.011 350.999 257.132 350.988 255.154C350.99 254.692 350.896 254.236 350.713 253.812C350.531 253.388 350.263 253.006 349.927 252.69C349.592 252.373 349.194 252.13 348.76 251.974C348.326 251.817 347.864 251.752 347.403 251.781C344.618 252.085 342.202 256.525 341.695 258.977C341.695 259.179 341.404 261.967 341.392 262.473C341.392 262.328 341.292 262.192 341.245 262.046C340.552 259.605 340.078 257.106 339.83 254.581C339.673 253.197 339.605 251.848 339.561 250.544C340.448 250.443 344.471 249.903 346.145 248.891C347.819 247.879 349.516 246.249 349.72 244.27C349.773 243.81 349.733 243.344 349.599 242.901C349.465 242.457 349.242 242.045 348.943 241.693C348.643 241.338 348.274 241.05 347.859 240.847C347.444 240.642 346.991 240.525 346.527 240.503C343.718 240.503 340.83 244.652 340.055 247.025C340.055 247.159 339.741 248.52 339.55 249.521C339.55 248.925 339.55 248.318 339.55 247.755C339.55 245.642 339.684 243.697 339.819 241.976C339.909 240.999 339.998 240.121 340.1 239.289C340.91 238.739 344.145 236.445 345.146 234.792C346.145 233.14 346.921 230.891 346.19 229.059C346.036 228.618 345.791 228.216 345.469 227.878C345.149 227.539 344.761 227.273 344.33 227.096C343.899 226.918 343.435 226.835 342.97 226.849C342.505 226.865 342.048 226.977 341.629 227.18C339.134 228.462 338.481 233.477 338.886 235.95C338.886 236.164 339.864 239.435 339.909 239.414C339.807 240.2 339.695 241.055 339.595 241.976C339.425 243.697 339.246 245.642 339.2 247.779C339.122 250.07 339.174 252.362 339.357 254.647C339.561 257.211 339.989 259.75 340.639 262.237C340.632 262.266 340.632 262.297 340.639 262.328C340.201 261.641 338.897 259.741 338.785 259.607C337.145 257.706 332.874 255.019 330.29 256.109C329.873 256.31 329.5 256.593 329.198 256.944C328.895 257.294 328.667 257.702 328.529 258.145C328.392 258.587 328.345 259.052 328.395 259.513C328.445 259.974 328.589 260.419 328.818 260.821C329.773 262.564 332.054 263.417 333.908 263.687C335.986 263.992 340.381 262.721 340.729 262.619C341.455 265.13 342.345 267.589 343.392 269.984C343.999 271.389 344.652 272.783 345.325 274.167C344.921 273.581 344.561 273.042 344.505 273.042C342.864 271.153 338.583 268.455 336.01 269.545C335.591 269.745 335.218 270.03 334.913 270.381C334.61 270.731 334.382 271.141 334.243 271.585C334.105 272.028 334.06 272.495 334.111 272.957C334.162 273.418 334.306 273.865 334.537 274.267C335.492 275.999 337.774 276.865 339.616 277.134C341.459 277.404 345.235 276.392 346.258 276.111C346.516 276.64 346.775 277.168 347.045 277.697C348.314 280.237 349.595 282.756 350.776 285.263C351.192 286.151 351.561 287.04 351.899 287.927C351.55 287.399 351.247 286.972 351.192 286.904C349.55 285.015 345.269 282.317 342.696 283.408C342.277 283.608 341.904 283.892 341.599 284.243C341.296 284.595 341.068 285.004 340.93 285.448C340.791 285.89 340.746 286.359 340.797 286.819C340.848 287.282 340.993 287.727 341.224 288.131C342.179 289.862 344.459 290.716 346.302 290.986C348.146 291.255 351.584 290.345 352.764 290.02C353.124 290.941 353.494 291.864 353.799 292.774C354.001 293.392 354.236 293.976 354.393 294.617C354.55 295.258 354.741 295.865 354.921 296.484C355.203 297.688 355.507 298.923 355.765 300.093C355.944 300.914 356.101 301.689 356.26 302.476C355.855 301.589 355.023 299.879 354.944 299.745C353.606 297.62 349.786 294.303 347.079 294.999C346.629 295.126 346.21 295.344 345.851 295.643C345.492 295.942 345.201 296.313 344.997 296.733C344.792 297.153 344.678 297.611 344.662 298.078C344.649 298.544 344.732 299.01 344.909 299.441C345.583 301.296 347.707 302.487 349.495 303.039C351.472 303.635 355.831 303.039 356.372 303.039C356.629 304.344 356.877 305.613 357.079 306.817C357.821 310.977 358.271 314.473 358.551 316.935C358.551 317.374 358.642 317.756 358.686 318.127H350.248L352.955 371.083C353.057 373.022 353.897 374.848 355.303 376.185C356.711 377.521 358.577 378.267 360.517 378.267C362.458 378.267 364.323 377.521 365.727 376.184C367.133 374.847 367.971 373.021 368.069 371.083L370.789 318.127H362.923C362.978 318.004 363.035 317.892 363.103 317.767C364.226 315.519 365.676 312.28 367.295 308.334C367.8 307.086 368.328 305.737 368.845 304.355C369.374 304.467 373.688 305.344 375.7 304.883C377.531 304.478 379.734 303.444 380.553 301.644C380.754 301.225 380.864 300.769 380.88 300.304C380.895 299.84 380.814 299.376 380.643 298.945C380.47 298.514 380.212 298.122 379.88 297.796C379.551 297.467 379.155 297.213 378.722 297.047C376.058 296.158 371.981 299.182 370.519 301.195C370.43 301.307 369.631 302.712 369.136 303.601C369.34 303.028 369.552 302.476 369.766 301.892C370.193 300.768 370.575 299.575 371.003 298.316C371.181 297.709 371.372 297.092 371.553 296.461C371.733 295.831 371.89 295.169 372.059 294.517C372.418 292.999 372.711 291.448 372.969 289.873C373.979 290.244 377.598 291.503 379.475 291.368C381.351 291.234 383.678 290.548 384.757 288.895C385.016 288.51 385.192 288.077 385.276 287.621C385.36 287.165 385.349 286.695 385.242 286.243C385.138 285.792 384.941 285.367 384.663 284.995C384.386 284.624 384.035 284.313 383.633 284.083C381.139 282.79 376.677 285.208 374.902 286.927C374.789 287.04 373.655 288.456 373.048 289.243C373.205 288.288 373.351 287.343 373.474 286.388C373.822 283.599 374.081 280.766 374.351 277.956L374.62 275.381C374.98 275.515 379.251 277.1 381.363 276.954C383.228 276.82 385.566 276.134 386.645 274.481C386.904 274.096 387.08 273.663 387.164 273.205C387.247 272.749 387.237 272.281 387.13 271.83C387.026 271.378 386.829 270.953 386.551 270.582C386.274 270.21 385.923 269.899 385.521 269.669C383.027 268.375 378.553 270.793 376.79 272.514C376.654 272.648 375.025 274.683 374.643 275.224C374.834 273.323 375.059 271.434 375.352 269.602C375.729 267.099 376.265 264.625 376.958 262.192C377.127 262.26 381.576 263.935 383.701 263.778C385.566 263.654 387.903 262.967 388.981 261.303C389.24 260.92 389.417 260.485 389.502 260.029C389.585 259.573 389.574 259.105 389.468 258.653C389.363 258.202 389.165 257.776 388.889 257.405C388.612 257.032 388.261 256.723 387.859 256.491C385.364 255.21 380.903 257.616 379.127 259.348C378.992 259.482 377.239 261.675 376.958 262.091C376.958 261.956 377.025 261.799 377.07 261.664C377.837 259.242 378.818 256.894 380.004 254.647C380.632 253.399 381.319 252.242 382.004 251.14C382.802 251.533 386.499 253.31 388.409 253.388C390.32 253.467 392.668 253.04 393.926 251.512C394.228 251.157 394.453 250.746 394.588 250.302C394.724 249.859 394.765 249.39 394.711 248.93C394.658 248.467 394.51 248.024 394.276 247.621C394.042 247.221 393.727 246.873 393.353 246.598C391.016 245.047 386.319 246.913 384.363 248.475C384.262 248.566 383.239 249.6 382.566 250.275L383.51 248.779C384.69 247.014 385.869 245.474 386.881 244.113C387.488 243.337 388.061 242.663 388.589 242.022C389.577 242.022 393.544 241.887 395.275 241.078C397.006 240.267 398.905 238.828 399.32 236.861C399.453 236.396 399.485 235.906 399.413 235.426C399.341 234.947 399.165 234.49 398.899 234.084C398.634 233.678 398.284 233.334 397.873 233.077C397.463 232.82 397.003 232.652 396.522 232.588ZM365.653 307.513C363.968 311.393 362.418 314.564 361.304 316.756L360.698 317.959H360.507C360.45 317.531 360.394 317.06 360.316 316.531C359.978 314.057 359.45 310.538 358.619 306.411C358.349 305.085 358.046 303.669 357.719 302.23C359.031 301.698 360.314 301.099 361.563 300.43C363.257 301.888 365.15 303.099 367.182 304.028C366.642 305.208 366.147 306.401 365.653 307.513Z" fill="#1C2642"/>
<path d="M381.835 250.432C381.835 250.432 382.723 247.159 382.757 246.947C383.105 244.462 382.307 239.47 379.79 238.245C379.365 238.064 378.907 237.975 378.447 237.98C377.986 237.984 377.531 238.083 377.109 238.271C376.688 238.457 376.309 238.73 375.997 239.071C375.686 239.409 375.447 239.81 375.295 240.246C374.62 242.112 375.475 244.394 376.497 245.968C377.666 247.813 381.824 250.432 381.835 250.432Z" fill="#1C2642"/>
</g>
</svg>
