<svg width="405" height="416" viewBox="0 0 405 416" fill="none" xmlns="http://www.w3.org/2000/svg">
<mask id="mask0_271_5" style="mask-type:luminance" maskUnits="userSpaceOnUse" x="0" y="0" width="405" height="416">
<path d="M0.228851 0H404.771V416H0.228851V0Z" fill="white"/>
</mask>
<g mask="url(#mask0_271_5)">
<path d="M238.898 293.392V40.4868" stroke="#1C2642" stroke-linecap="round" stroke-linejoin="round"/>
<path d="M403.21 295.899H243.764L1.52174 374.131" stroke="#1C2642" stroke-linecap="round" stroke-linejoin="round"/>
<path d="M330.606 289.963H341.618V107.755H318.885L328.695 72.3276H358.137L367.947 107.755H345.214V289.963H356.26C359.085 289.966 361.796 291.077 363.811 293.056C365.826 295.036 366.984 297.728 367.037 300.554C367.037 300.554 367.037 300.611 367.037 300.632C367.037 300.632 367.037 300.7 367.037 300.723C366.711 303.264 356.283 305.31 343.439 305.31C330.595 305.31 320.166 303.264 319.84 300.723C319.849 297.87 320.987 295.136 323.004 293.121C325.021 291.104 327.754 289.969 330.606 289.963Z" fill="#1C2642"/>
<path d="M183.858 27.9507V242.494L22.4123 269.073V1.37158L183.858 27.9507ZM26.604 89.3837L108.636 94.0384V19.4957L26.604 6.43104V89.3837ZM108.636 101.875L26.604 98.1084V173.056L108.636 169.223V101.875ZM115.288 168.907L181.149 165.838V105.203L115.344 102.19L115.288 168.907ZM115.288 20.5525V94.4432L181.149 98.1422V31.0312L115.288 20.5525ZM181.149 172.899L115.344 176.687V249.893L181.149 239.414V172.899ZM108.691 250.95V177.07L26.6594 181.792V264.014L108.691 250.95Z" fill="#1C2642" stroke="#1C2642" stroke-linecap="round" stroke-linejoin="round"/>
<path d="M239.539 400.202C168.199 400.202 110.367 382.177 110.367 359.941C110.367 337.705 168.199 319.679 239.539 319.679C310.879 319.679 368.711 337.705 368.711 359.941C368.711 382.177 310.879 400.202 239.539 400.202Z" fill="#1D4ED8"/>
<path opacity="0.5" d="M239.539 400.202C168.199 400.202 110.367 382.177 110.367 359.941C110.367 337.705 168.199 319.679 239.539 319.679C310.879 319.679 368.711 337.705 368.711 359.941C368.711 382.177 310.879 400.202 239.539 400.202Z" fill="white"/>
<path d="M250.451 182.41C250.451 182.41 279.724 178.935 298.984 193.968C318.245 209 334.809 271.816 334.427 301.903C334.045 331.991 322.863 346.999 294.748 359.322C266.632 371.645 214.255 367.035 184.982 357.783C155.708 348.529 146.079 316.183 146.461 298.823C146.843 281.464 166.103 261.439 172.655 257.223C179.206 253.006 197.691 244.124 206.928 230.239C216.166 216.354 229.662 186.266 250.451 182.41Z" fill="#1D4ED8"/>
<mask id="mask1_271_5" style="mask-type:luminance" maskUnits="userSpaceOnUse" x="146" y="182" width="189" height="185">
<path d="M250.451 182.41C250.451 182.41 279.724 178.935 298.984 193.968C318.245 209 334.809 271.816 334.427 301.903C334.045 331.991 322.863 346.999 294.748 359.322C266.632 371.645 214.255 367.035 184.982 357.783C155.708 348.529 146.079 316.183 146.461 298.823C146.843 281.464 166.103 261.439 172.655 257.223C179.206 253.006 197.691 244.124 206.928 230.239C216.166 216.354 229.662 186.266 250.451 182.41Z" fill="white"/>
</mask>
<g mask="url(#mask1_271_5)">
<path opacity="0.13" d="M179.611 355.703C190.68 354.207 203.805 351.205 213.739 345.167C234.719 332.428 239.954 308.436 247.451 299.441C254.945 290.446 268.43 291.2 274.419 281.452C280.409 271.703 270.677 199.758 287.904 195.261C291.4 194.25 295.02 193.733 298.658 193.72C298.76 193.811 298.883 193.879 298.984 193.968C318.245 209 334.809 271.816 334.427 301.903C334.045 331.991 322.863 346.999 294.748 359.322C266.632 371.645 214.255 367.035 184.982 357.783C183.15 357.202 181.356 356.507 179.611 355.703Z" fill="#1C2642"/>
</g>
<path d="M250.451 182.41C250.451 182.41 279.724 178.935 298.984 193.968C318.245 209 334.809 271.816 334.427 301.903C334.045 331.991 322.863 346.999 294.748 359.322C266.632 371.645 214.255 367.035 184.982 357.783C155.708 348.529 146.079 316.183 146.461 298.823C146.843 281.464 166.103 261.439 172.655 257.223C179.206 253.006 197.691 244.124 206.928 230.239C216.166 216.354 229.662 186.266 250.451 182.41Z" stroke="#1C2642" stroke-linecap="round" stroke-linejoin="round"/>
<path d="M261.98 195.993C261.98 195.993 281.083 199.646 284.454 203.019C287.826 206.393 301.872 259.236 301.872 259.236C297.967 258.283 293.87 258.479 290.073 259.798C284.454 262.046 283.892 267.948 283.33 270.76C282.879 274.116 282.598 277.493 282.488 280.878C282.488 280.878 225.705 275.808 213.626 273.008C201.546 270.209 183.162 268.904 183.162 268.904C183.162 268.904 214.221 198.814 218.998 196.284C223.773 193.754 243.719 193.474 246.528 194.036C249.337 194.598 261.98 195.993 261.98 195.993Z" fill="#1C2642" stroke="#1C2642" stroke-linecap="round" stroke-linejoin="round"/>
<path d="M280.802 260.921L276.026 221.851" stroke="white" stroke-linecap="round" stroke-linejoin="round"/>
<path d="M277.15 232.251L270.688 223.819" stroke="white" stroke-linecap="round" stroke-linejoin="round"/>
<path d="M257.765 237.311C257.765 237.311 239.504 231.408 227.424 231.408" stroke="white" stroke-linecap="round" stroke-linejoin="round"/>
<path d="M240.527 221.199L241.753 230.565C241.753 230.565 238.662 230.565 238.382 231.971C238.362 232.491 238.451 233.011 238.645 233.494C238.839 233.98 239.132 234.417 239.505 234.781C239.505 234.781 230.796 239.56 229.672 245.181" stroke="white" stroke-linecap="round" stroke-linejoin="round"/>
<path d="M251.495 185.513C251.495 185.513 261.98 188.887 263.486 191.506C264.991 194.125 263.856 212.497 263.856 214.745C263.856 216.995 262.542 213.431 261.418 210.81C260.294 208.191 256.361 204.245 255.058 204.627C253.754 205.009 252.99 206.493 252.99 208.933C252.99 211.372 250.001 214.745 247.371 216.612C244.742 218.478 242.315 220.367 242.315 220.367C242.315 220.367 236.887 212.497 235.572 210.428C234.257 208.36 234.448 204.065 234.269 202.558C234.089 201.051 230.706 206.684 229.954 205.189C229.201 203.693 231.639 202.378 234.269 198.251C236.898 194.125 236.134 189.819 240.067 186.818C244 183.816 248.495 184.748 251.495 185.513Z" fill="white"/>
<mask id="mask2_271_5" style="mask-type:luminance" maskUnits="userSpaceOnUse" x="229" y="184" width="36" height="37">
<path d="M251.495 185.513C251.495 185.513 261.98 188.887 263.486 191.506C264.991 194.125 263.856 212.497 263.856 214.745C263.856 216.995 262.542 213.431 261.418 210.81C260.294 208.191 256.361 204.245 255.058 204.627C253.754 205.009 252.99 206.493 252.99 208.933C252.99 211.372 250.001 214.745 247.371 216.612C244.742 218.478 242.315 220.367 242.315 220.367C242.315 220.367 236.887 212.497 235.572 210.428C234.257 208.36 234.448 204.065 234.269 202.558C234.089 201.051 230.706 206.684 229.954 205.189C229.201 203.693 231.639 202.378 234.269 198.251C236.898 194.125 236.134 189.819 240.067 186.818C244 183.816 248.495 184.748 251.495 185.513Z" fill="white"/>
</mask>
<g mask="url(#mask2_271_5)">
<path d="M263.486 191.495C264.475 193.249 264.317 201.996 264.092 208.36C261.699 205.279 256.766 199.455 253.911 200.556C250.271 201.962 248.877 212.317 248.877 212.317L251.338 185.513H251.495C251.495 185.513 261.98 188.887 263.486 191.495Z" fill="#1D4ED8"/>
<path opacity="0.5" d="M263.486 191.495C264.475 193.249 264.317 201.996 264.092 208.36C261.699 205.279 256.766 199.455 253.911 200.556C250.271 201.962 248.877 212.317 248.877 212.317L251.338 185.513H251.495C251.495 185.513 261.98 188.887 263.486 191.495Z" fill="white"/>
</g>
<path d="M251.495 185.513C251.495 185.513 261.98 188.887 263.486 191.506C264.991 194.125 263.856 212.497 263.856 214.745C263.856 216.995 262.542 213.431 261.418 210.81C260.294 208.191 256.361 204.245 255.058 204.627C253.754 205.009 252.99 206.493 252.99 208.933C252.99 211.372 250.001 214.745 247.371 216.612C244.742 218.478 242.315 220.367 242.315 220.367C242.315 220.367 236.887 212.497 235.572 210.428C234.257 208.36 234.448 204.065 234.269 202.558C234.089 201.051 230.706 206.684 229.954 205.189C229.201 203.693 231.639 202.378 234.269 198.251C236.898 194.125 236.134 189.819 240.067 186.818C244 183.816 248.495 184.748 251.495 185.513Z" stroke="#1C2642" stroke-linecap="round" stroke-linejoin="round"/>
<path d="M276.307 261.484C276.307 261.484 282.768 252.208 290.634 251.366C298.501 250.521 308.052 256.986 308.333 259.236C308.614 261.484 310.581 273.571 309.176 275.256C307.771 276.943 302.433 278.349 292.039 274.976C281.645 271.603 277.431 267.386 276.307 261.484Z" fill="white"/>
<mask id="mask3_271_5" style="mask-type:luminance" maskUnits="userSpaceOnUse" x="276" y="251" width="34" height="27">
<path d="M276.307 261.484C276.307 261.484 282.768 252.208 290.634 251.366C298.501 250.521 308.052 256.986 308.333 259.236C308.614 261.484 310.581 273.571 309.176 275.256C307.771 276.943 302.433 278.349 292.039 274.976C281.645 271.603 277.431 267.386 276.307 261.484Z" fill="white"/>
</mask>
<g mask="url(#mask3_271_5)">
<path d="M302.591 274.965C302.591 274.965 304.838 268.534 303.715 266.297C302.591 264.058 298.096 260.675 295.32 257.302C292.545 253.928 301.872 259.202 302.321 257.302C302.67 255.772 297.388 252.714 295.309 251.578C301.849 252.838 308.108 257.391 308.333 259.202C308.614 261.45 310.581 273.537 309.176 275.224C308.457 276.088 306.67 276.888 303.692 276.988C303.018 275.831 302.591 274.965 302.591 274.965Z" fill="#1D4ED8"/>
<path opacity="0.5" d="M302.591 274.965C302.591 274.965 304.838 268.534 303.715 266.297C302.591 264.058 298.096 260.675 295.32 257.302C292.545 253.928 301.872 259.202 302.321 257.302C302.67 255.772 297.388 252.714 295.309 251.578C301.849 252.838 308.108 257.391 308.333 259.202C308.614 261.45 310.581 273.537 309.176 275.224C308.457 276.088 306.67 276.888 303.692 276.988C303.018 275.831 302.591 274.965 302.591 274.965Z" fill="white"/>
</g>
<path d="M276.307 261.484C276.307 261.484 282.768 252.208 290.634 251.366C298.501 250.521 308.052 256.986 308.333 259.236C308.614 261.484 310.581 273.571 309.176 275.256C307.771 276.943 302.433 278.349 292.039 274.976C281.645 271.603 277.431 267.386 276.307 261.484Z" stroke="#1C2642" stroke-linecap="round" stroke-linejoin="round"/>
<path d="M298.22 264.013C298.22 264.013 308.76 268.197 309.176 276.381C309.412 280.878 301.872 282.846 294.006 282.846C286.14 282.846 274.902 273.008 267.598 268.791C260.294 264.576 243.438 254.738 241.471 253.895C239.505 253.051 232.763 255.301 229.953 256.143C227.276 256.718 224.544 257 221.807 256.986C221.807 256.986 217.874 263.171 215.907 263.171C213.941 263.171 220.12 253.895 220.964 251.928C221.807 249.959 235.572 245.463 237.258 245.463C238.943 245.463 278.274 255.301 284.173 257.548C290.073 259.798 298.22 264.013 298.22 264.013Z" fill="white"/>
<mask id="mask4_271_5" style="mask-type:luminance" maskUnits="userSpaceOnUse" x="215" y="245" width="95" height="38">
<path d="M298.22 264.013C298.22 264.013 308.76 268.197 309.176 276.381C309.412 280.878 301.872 282.846 294.006 282.846C286.14 282.846 274.902 273.008 267.598 268.791C260.294 264.576 243.438 254.738 241.471 253.895C239.505 253.051 232.763 255.301 229.953 256.143C227.276 256.718 224.544 257 221.807 256.986C221.807 256.986 217.874 263.171 215.907 263.171C213.941 263.171 220.12 253.895 220.964 251.928C221.807 249.959 235.572 245.463 237.258 245.463C238.943 245.463 278.274 255.301 284.173 257.548C290.073 259.798 298.22 264.013 298.22 264.013Z" fill="white"/>
</mask>
<g mask="url(#mask4_271_5)">
<path d="M276.184 262.844C260.126 254.806 237.258 245.463 237.258 245.463C238.943 245.463 278.274 255.301 284.173 257.548C290.073 259.798 298.22 264.013 298.22 264.013C298.22 264.013 308.76 268.197 309.176 276.381C309.412 280.878 301.872 282.846 294.006 282.846C286.14 282.846 274.902 273.008 267.598 268.791L263.171 266.229C273.902 267.589 288.252 268.871 276.184 262.844Z" fill="#1D4ED8"/>
<path opacity="0.5" d="M276.184 262.844C260.126 254.806 237.258 245.463 237.258 245.463C238.943 245.463 278.274 255.301 284.173 257.548C290.073 259.798 298.22 264.013 298.22 264.013C298.22 264.013 308.76 268.197 309.176 276.381C309.412 280.878 301.872 282.846 294.006 282.846C286.14 282.846 274.902 273.008 267.598 268.791L263.171 266.229C273.902 267.589 288.252 268.871 276.184 262.844Z" fill="white"/>
</g>
<path d="M298.22 264.013C298.22 264.013 308.76 268.197 309.176 276.381C309.412 280.878 301.872 282.846 294.006 282.846C286.14 282.846 274.902 273.008 267.598 268.791C260.294 264.576 243.438 254.738 241.471 253.895C239.505 253.051 232.763 255.301 229.953 256.143C227.276 256.718 224.544 257 221.807 256.986C221.807 256.986 217.874 263.171 215.907 263.171C213.941 263.171 220.12 253.895 220.964 251.928C221.807 249.959 235.572 245.463 237.258 245.463C238.943 245.463 278.274 255.301 284.173 257.548C290.073 259.798 298.22 264.013 298.22 264.013Z" stroke="#1C2642" stroke-linecap="round" stroke-linejoin="round"/>
<path d="M216.053 201.501L224.615 249.679L162.81 249.961L153.619 204.267C153.542 203.865 153.554 203.449 153.652 203.051C153.751 202.652 153.936 202.281 154.191 201.96C154.449 201.64 154.77 201.378 155.137 201.195C155.503 201.011 155.905 200.908 156.315 200.894L213.177 199.186C213.853 199.164 214.516 199.384 215.043 199.81C215.571 200.235 215.93 200.836 216.053 201.501Z" fill="white" stroke="#1C2642" stroke-linecap="round" stroke-linejoin="round"/>
<path d="M224.615 249.679L254.709 270.973L185.88 269.006L162.81 249.961L224.615 249.679Z" fill="white"/>
<mask id="mask5_271_5" style="mask-type:luminance" maskUnits="userSpaceOnUse" x="162" y="249" width="93" height="22">
<path d="M224.615 249.679L254.709 270.973L185.88 269.006L162.81 249.961L224.615 249.679Z" fill="white"/>
</mask>
<g mask="url(#mask5_271_5)">
<path d="M224.615 249.679L254.709 270.973L185.88 269.006L162.81 249.961L224.615 249.679Z" fill="#1D4ED8"/>
<path opacity="0.5" d="M224.615 249.679L254.709 270.973L185.88 269.006L162.81 249.961L224.615 249.679Z" fill="white"/>
</g>
<path d="M224.615 249.679L254.709 270.973L185.88 269.006L162.81 249.961L224.615 249.679Z" stroke="#1C2642" stroke-linecap="round" stroke-linejoin="round"/>
<path d="M201.86 270.76C201.86 270.76 177.138 249.116 152.696 241.808C128.256 234.501 123.199 235.624 123.761 246.586C124.323 257.549 136.122 314.889 143.988 329.506C151.854 344.121 161.686 370.824 161.406 375.884C161.124 380.943 151.574 395.841 143.146 401.181C134.718 406.521 135.56 412.986 140.897 414.111C146.235 415.236 152.416 417.203 170.676 405.398C188.937 393.593 196.522 376.728 195.398 372.511C194.274 368.295 182.475 362.673 177.7 354.241C172.923 345.808 165.057 314.328 164.495 299.993C164.039 290.943 162.142 282.023 158.878 273.571C158.878 273.571 189.779 279.193 198.769 284.813L201.86 270.76Z" fill="white"/>
<mask id="mask6_271_5" style="mask-type:luminance" maskUnits="userSpaceOnUse" x="123" y="237" width="79" height="178">
<path d="M201.86 270.76C201.86 270.76 177.138 249.116 152.696 241.808C128.256 234.501 123.199 235.624 123.761 246.586C124.323 257.549 136.122 314.889 143.988 329.506C151.854 344.121 161.686 370.824 161.406 375.884C161.124 380.943 151.574 395.841 143.146 401.181C134.718 406.521 135.56 412.986 140.897 414.111C146.235 415.236 152.416 417.203 170.676 405.398C188.937 393.593 196.522 376.728 195.398 372.511C194.274 368.295 182.475 362.673 177.7 354.241C172.923 345.808 165.057 314.328 164.495 299.993C164.039 290.943 162.142 282.023 158.878 273.571C158.878 273.571 189.779 279.193 198.769 284.813L201.86 270.76Z" fill="white"/>
</mask>
<g mask="url(#mask6_271_5)">
<path d="M201.86 270.76C201.86 270.76 177.138 249.116 152.696 241.808C128.256 234.501 123.199 235.624 123.761 246.586C124.323 257.549 136.122 314.889 143.988 329.506C151.854 344.121 161.686 370.824 161.406 375.884C161.124 380.943 151.574 395.841 143.146 401.181C134.718 406.521 135.56 412.986 140.897 414.111C146.235 415.236 152.416 417.203 170.676 405.398C188.937 393.593 196.522 376.728 195.398 372.511C194.274 368.295 182.475 362.673 177.7 354.241C172.923 345.808 165.057 314.328 164.495 299.993C164.039 290.943 162.142 282.023 158.878 273.571C158.878 273.571 189.779 279.193 198.769 284.813L201.86 270.76Z" fill="#1D4ED8"/>
<path opacity="0.5" d="M201.86 270.76C201.86 270.76 177.138 249.116 152.696 241.808C128.256 234.501 123.199 235.624 123.761 246.586C124.323 257.549 136.122 314.889 143.988 329.506C151.854 344.121 161.686 370.824 161.406 375.884C161.124 380.943 151.574 395.841 143.146 401.181C134.718 406.521 135.56 412.986 140.897 414.111C146.235 415.236 152.416 417.203 170.676 405.398C188.937 393.593 196.522 376.728 195.398 372.511C194.274 368.295 182.475 362.673 177.7 354.241C172.923 345.808 165.057 314.328 164.495 299.993C164.039 290.943 162.142 282.023 158.878 273.571C158.878 273.571 189.779 279.193 198.769 284.813L201.86 270.76Z" fill="white"/>
</g>
<path d="M201.86 270.76C201.86 270.76 177.138 249.116 152.696 241.808C128.256 234.501 123.199 235.624 123.761 246.586C124.323 257.549 136.122 314.889 143.988 329.506C151.854 344.121 161.686 370.824 161.406 375.884C161.124 380.943 151.574 395.841 143.146 401.181C134.718 406.521 135.56 412.986 140.897 414.111C146.235 415.236 152.416 417.203 170.676 405.398C188.937 393.593 196.522 376.728 195.398 372.511C194.274 368.295 182.475 362.673 177.7 354.241C172.923 345.808 165.057 314.328 164.495 299.993C164.039 290.943 162.142 282.023 158.878 273.571C158.878 273.571 189.779 279.193 198.769 284.813L201.86 270.76Z" stroke="#1C2642" stroke-linecap="round" stroke-linejoin="round"/>
<path d="M177.7 354.241C178.059 354.871 178.464 355.478 178.89 356.085C173.08 356.632 167.57 358.929 163.091 362.673C161.745 363.844 160.462 365.086 159.249 366.394C155.169 353.705 150.066 341.368 143.988 329.506C136.122 314.889 124.323 257.549 123.761 246.586C123.199 235.624 128.256 234.501 152.696 241.808C177.138 249.116 201.86 270.76 201.86 270.76L198.769 284.813C189.779 279.193 158.878 273.571 158.878 273.571C162.142 282.023 164.039 290.943 164.495 299.993C165.057 314.328 172.923 345.808 177.7 354.241Z" fill="white" stroke="#1C2642" stroke-linecap="round" stroke-linejoin="round"/>
<path d="M177.7 354.241C178.059 354.871 178.464 355.478 178.89 356.085C173.08 356.632 167.57 358.929 163.091 362.673C161.745 363.844 160.462 365.086 159.249 366.394C153.865 359.154 147.809 336.319 140.976 326.92C123.322 302.646 124.323 257.549 123.761 246.586C123.199 235.624 128.256 234.501 152.696 241.808C177.138 249.116 201.86 270.76 201.86 270.76L198.769 284.813C189.779 279.193 158.878 273.571 158.878 273.571C162.142 282.023 164.039 290.943 164.495 299.993C165.057 314.328 172.923 345.808 177.7 354.241Z" fill="#1C2642"/>
<mask id="mask7_271_5" style="mask-type:luminance" maskUnits="userSpaceOnUse" x="123" y="237" width="79" height="130">
<path d="M177.7 354.241C178.059 354.871 178.464 355.478 178.89 356.085C173.08 356.632 167.57 358.929 163.091 362.673C161.745 363.844 160.462 365.086 159.249 366.394C153.865 359.154 147.809 336.319 140.976 326.92C123.322 302.646 124.323 257.549 123.761 246.586C123.199 235.624 128.256 234.501 152.696 241.808C177.138 249.116 201.86 270.76 201.86 270.76L198.769 284.813C189.779 279.193 158.878 273.571 158.878 273.571C162.142 282.023 164.039 290.943 164.495 299.993C165.057 314.328 172.923 345.808 177.7 354.241Z" fill="white"/>
</mask>
<g mask="url(#mask7_271_5)">
<path opacity="0.53" d="M177.7 354.241C178.059 354.871 178.464 355.478 178.89 356.085C173.08 356.632 167.57 358.929 163.091 362.673C161.745 363.844 160.462 365.086 159.249 366.394C153.865 359.154 147.809 336.319 140.976 326.92C123.322 302.646 124.323 257.549 123.761 246.586C123.199 235.624 128.256 234.501 152.696 241.808C177.138 249.116 201.86 270.76 201.86 270.76L198.769 284.813C189.779 279.193 158.878 273.571 158.878 273.571C162.142 282.023 164.039 290.943 164.495 299.993C165.057 314.328 172.923 345.808 177.7 354.241Z" fill="white"/>
<path opacity="0.14" d="M135.639 245.103C136.077 241.112 179.531 259.516 197.859 267.454C200.398 269.479 201.86 270.761 201.86 270.761L198.769 284.814C189.779 279.192 158.878 273.571 158.878 273.571C162.142 282.023 164.039 290.943 164.495 299.992C165.057 314.328 172.923 345.809 177.7 354.241C178.059 354.871 178.464 355.478 178.89 356.085C175.797 356.417 172.768 357.201 169.9 358.412C163.169 344.043 155.922 327.324 152.495 314.248C146.313 290.638 135.076 250.162 135.639 245.103Z" fill="#1C2642"/>
<path d="M158.877 273.571C158.877 273.571 150.449 256.424 143.146 249.398" stroke="#1C2642" stroke-linecap="round" stroke-linejoin="round"/>
</g>
<path d="M177.7 354.241C178.059 354.871 178.464 355.478 178.89 356.085C173.08 356.632 167.57 358.929 163.091 362.673C161.745 363.844 160.462 365.086 159.249 366.394C153.865 359.154 147.809 336.319 140.976 326.92C123.322 302.646 124.323 257.549 123.761 246.586C123.199 235.624 128.256 234.501 152.696 241.808C177.138 249.116 201.86 270.76 201.86 270.76L198.769 284.813C189.779 279.193 158.878 273.571 158.878 273.571C162.142 282.023 164.039 290.943 164.495 299.993C165.057 314.328 172.923 345.808 177.7 354.241Z" stroke="#1C2642" stroke-linecap="round" stroke-linejoin="round"/>
<path d="M238.898 293.448C229.849 293.035 220.902 291.351 212.322 288.445C199.613 283.814 222.727 275.335 231.583 279.968C234.056 281.168 236.094 283.114 237.406 285.532C238.718 287.95 239.24 290.719 238.898 293.448Z" fill="#1C2642" stroke="#1C2642" stroke-linecap="round" stroke-linejoin="round"/>
<path d="M275.464 275.257C275.464 275.257 284.454 280.316 287.544 285.939C290.635 291.561 277.341 300.925 263.294 300.363C249.248 299.801 223.491 284.533 223.491 284.533C223.491 284.533 223.211 309.268 218.436 318.263C213.659 327.257 191.747 349.181 183.037 354.804C174.329 360.424 145.112 381.506 140.617 384.879C136.122 388.251 127.694 394.436 125.728 394.716C123.761 394.998 103.252 369.981 98.4771 361.549C93.7018 353.116 89.487 335.409 91.1732 331.474C92.8579 327.539 96.2304 330.911 99.6012 333.722C102.972 336.533 133.874 357.051 136.684 358.457C138.218 359.245 139.815 359.903 141.459 360.424C141.459 360.424 166.743 336.251 180.229 317.701C193.714 299.149 194.836 275.257 199.893 266.263C204.951 257.268 212.254 253.333 223.211 254.457C234.168 255.581 256.923 261.484 275.464 275.257Z" fill="white"/>
<mask id="mask8_271_5" style="mask-type:luminance" maskUnits="userSpaceOnUse" x="90" y="254" width="198" height="141">
<path d="M275.464 275.257C275.464 275.257 284.454 280.316 287.544 285.939C290.635 291.561 277.341 300.925 263.294 300.363C249.248 299.801 223.491 284.533 223.491 284.533C223.491 284.533 223.211 309.268 218.436 318.263C213.659 327.257 191.747 349.181 183.037 354.804C174.329 360.424 145.112 381.506 140.617 384.879C136.122 388.251 127.694 394.436 125.728 394.716C123.761 394.998 103.252 369.981 98.4771 361.549C93.7018 353.116 89.487 335.409 91.1732 331.474C92.8579 327.539 96.2304 330.911 99.6012 333.722C102.972 336.533 133.874 357.051 136.684 358.457C138.218 359.245 139.815 359.903 141.459 360.424C141.459 360.424 166.743 336.251 180.229 317.701C193.714 299.149 194.836 275.257 199.893 266.263C204.951 257.268 212.254 253.333 223.211 254.457C234.168 255.581 256.923 261.484 275.464 275.257Z" fill="white"/>
</mask>
<g mask="url(#mask8_271_5)">
<path d="M156.595 373.275C149.09 378.649 142.56 383.395 140.617 384.855C136.122 388.23 127.694 394.413 125.727 394.695C125.03 394.795 121.996 391.704 118.165 387.307L150.337 366.598L156.595 373.275Z" fill="#1D4ED8"/>
<path opacity="0.5" d="M156.595 373.275C149.09 378.649 142.56 383.395 140.617 384.855C136.122 388.23 127.694 394.413 125.727 394.695C125.03 394.795 121.996 391.704 118.165 387.307L150.337 366.598L156.595 373.275Z" fill="white"/>
</g>
<path d="M275.464 275.257C275.464 275.257 284.454 280.316 287.544 285.939C290.635 291.561 277.341 300.925 263.294 300.363C249.248 299.801 223.491 284.533 223.491 284.533C223.491 284.533 223.211 309.268 218.436 318.263C213.659 327.257 191.747 349.181 183.037 354.804C174.329 360.424 145.112 381.506 140.617 384.879C136.122 388.251 127.694 394.436 125.728 394.716C123.761 394.998 103.252 369.981 98.4771 361.549C93.7018 353.116 89.487 335.409 91.1732 331.474C92.8579 327.539 96.2304 330.911 99.6012 333.722C102.972 336.533 133.874 357.051 136.684 358.457C138.218 359.245 139.815 359.903 141.459 360.424C141.459 360.424 166.743 336.251 180.229 317.701C193.714 299.149 194.836 275.257 199.893 266.263C204.951 257.268 212.254 253.333 223.211 254.457C234.168 255.581 256.923 261.484 275.464 275.257Z" stroke="#1C2642" stroke-linecap="round" stroke-linejoin="round"/>
<path d="M143.201 358.738C149.145 352.936 171.429 323.018 180.228 305.816C193.117 280.609 194.511 272.019 199.567 263.025C204.624 254.03 212.254 253.333 223.166 254.456C234.076 255.581 253.731 257.617 277.779 271.266C277.779 271.266 287.892 276.753 290.971 282.375C294.05 287.995 282.802 302.152 263.249 300.363C249.248 299.081 223.446 284.533 223.446 284.533C223.446 284.533 223.166 309.268 218.389 318.263C213.614 327.256 191.701 349.181 182.992 354.803C177.475 358.367 163.709 368.149 153.224 375.682C150.64 366.271 145.999 361.122 143.201 358.738Z" fill="#1C2642"/>
<mask id="mask9_271_5" style="mask-type:luminance" maskUnits="userSpaceOnUse" x="143" y="254" width="149" height="122">
<path d="M143.201 358.738C149.145 352.936 171.429 323.018 180.228 305.816C193.117 280.609 194.511 272.019 199.567 263.025C204.624 254.03 212.254 253.333 223.166 254.456C234.076 255.581 253.731 257.617 277.779 271.266C277.779 271.266 287.892 276.753 290.971 282.375C294.05 287.995 282.802 302.152 263.249 300.363C249.248 299.081 223.446 284.533 223.446 284.533C223.446 284.533 223.166 309.268 218.389 318.263C213.614 327.256 191.701 349.181 182.992 354.803C177.475 358.367 163.709 368.149 153.224 375.682C150.64 366.271 145.999 361.122 143.201 358.738Z" fill="white"/>
</mask>
<g mask="url(#mask9_271_5)">
<path opacity="0.53" d="M143.201 358.738C149.145 352.936 171.429 323.018 180.228 305.816C193.117 280.609 194.511 272.019 199.567 263.025C204.624 254.03 212.254 253.333 223.166 254.456C234.076 255.581 253.731 257.617 277.779 271.266C277.779 271.266 287.892 276.753 290.971 282.375C294.05 287.995 282.802 302.152 263.249 300.363C249.248 299.081 223.446 284.533 223.446 284.533C223.446 284.533 223.166 309.268 218.389 318.263C213.614 327.256 191.701 349.181 182.992 354.803C177.475 358.367 163.709 368.149 153.224 375.682C150.64 366.271 145.999 361.122 143.201 358.738Z" fill="white"/>
<path opacity="0.14" d="M199.691 318.746C208.119 297.385 203.062 254.66 226.66 260.281C243.853 264.374 275.374 278.922 291.208 286.512C289.331 292.966 278.993 301.802 263.294 300.363C249.292 299.081 223.491 284.533 223.491 284.533C223.491 284.533 223.211 309.268 218.435 318.263C213.658 327.257 191.747 349.181 183.037 354.804C177.52 358.367 163.754 368.149 153.27 375.682C152.368 372.391 151.05 369.229 149.348 366.271C170.271 350.79 194.982 330.676 199.691 318.746Z" fill="#1C2642"/>
<path d="M223.491 284.534L224.335 269.917" stroke="#1C2642" stroke-linecap="round" stroke-linejoin="round"/>
</g>
<path d="M143.201 358.738C149.145 352.936 171.429 323.018 180.228 305.816C193.117 280.609 194.511 272.019 199.567 263.025C204.624 254.03 212.254 253.333 223.166 254.456C234.076 255.581 253.731 257.617 277.779 271.266C277.779 271.266 287.892 276.753 290.971 282.375C294.05 287.995 282.802 302.152 263.249 300.363C249.248 299.081 223.446 284.533 223.446 284.533C223.446 284.533 223.166 309.268 218.389 318.263C213.614 327.256 191.701 349.181 182.992 354.803C177.475 358.367 163.709 368.149 153.224 375.682C150.64 366.271 145.999 361.122 143.201 358.738Z" stroke="#1C2642" stroke-linecap="round" stroke-linejoin="round"/>
<path d="M140.617 384.879C136.122 388.251 127.694 394.436 125.727 394.716C123.761 394.998 103.252 369.981 98.4768 361.549C93.7015 353.116 89.4868 335.408 91.173 331.473C92.8576 327.538 96.2301 330.911 99.601 333.721C102.972 336.533 133.875 357.051 136.684 358.456C137.425 358.828 138.099 359.131 138.695 359.39C139.503 360.931 140.494 363.314 139.819 364.921C138.695 367.451 133.92 370.824 133.92 370.824L142.426 383.575L140.617 384.879Z" fill="#1C2642" stroke="#1C2642" stroke-linecap="round" stroke-linejoin="round"/>
<path d="M98.4771 361.549C93.7003 353.116 89.487 335.409 91.1733 331.474C92.1496 329.224 93.6895 329.37 95.4758 330.472C94.2962 335.723 95.4758 345.853 101.286 356.771C106.466 366.507 122.469 383.754 130.503 392.097C129.04 393.199 127.423 394.082 125.705 394.716C123.761 394.998 103.252 369.981 98.4771 361.549Z" fill="white"/>
<mask id="mask10_271_5" style="mask-type:luminance" maskUnits="userSpaceOnUse" x="90" y="329" width="41" height="66">
<path d="M98.4771 361.549C93.7003 353.116 89.487 335.409 91.1733 331.474C92.1496 329.224 93.6895 329.37 95.4758 330.472C94.2962 335.723 95.4758 345.853 101.286 356.771C106.466 366.507 122.469 383.754 130.503 392.097C129.04 393.199 127.423 394.082 125.705 394.716C123.761 394.998 103.252 369.981 98.4771 361.549Z" fill="white"/>
</mask>
<g mask="url(#mask10_271_5)">
<path d="M125.446 394.638L125.2 394.514L125.132 394.457C124.996 394.38 124.868 394.291 124.75 394.188L124.614 394.075L124.289 393.806L124.109 393.638L123.672 393.233L123.401 392.974L123.031 392.615L122.716 392.299L122.402 391.985L121.604 391.142L121.468 391.006L120.974 390.467L120.772 390.253C120.187 389.612 119.559 388.915 118.906 388.173V388.117L118.21 387.33L123.121 384.17C125.908 387.207 128.503 389.949 130.571 392.097L129.818 392.592L129.705 392.659L129.009 393.097L127.885 393.738L127.571 393.918L127.255 394.088L126.897 394.266L126.661 394.379C126.547 394.436 126.431 394.485 126.311 394.525L126.144 394.593C126.014 394.647 125.877 394.685 125.739 394.705C125.669 394.724 125.595 394.724 125.526 394.705L125.446 394.638Z" fill="#1D4ED8"/>
<path opacity="0.5" d="M125.446 394.638L125.2 394.514L125.132 394.457C124.996 394.38 124.868 394.291 124.75 394.188L124.614 394.075L124.289 393.806L124.109 393.638L123.672 393.233L123.401 392.974L123.031 392.615L122.716 392.299L122.402 391.985L121.604 391.142L121.468 391.006L120.974 390.467L120.772 390.253C120.187 389.612 119.559 388.915 118.906 388.173V388.117L118.21 387.33L123.121 384.17C125.908 387.207 128.503 389.949 130.571 392.097L129.818 392.592L129.705 392.659L129.009 393.097L127.885 393.738L127.571 393.918L127.255 394.088L126.897 394.266L126.661 394.379C126.547 394.436 126.431 394.485 126.311 394.525L126.144 394.593C126.014 394.647 125.877 394.685 125.739 394.705C125.669 394.724 125.595 394.724 125.526 394.705L125.446 394.638Z" fill="white"/>
</g>
<path d="M98.4771 361.549C93.7003 353.116 89.487 335.409 91.1733 331.474C92.1496 329.224 93.6895 329.37 95.4758 330.472C94.2962 335.723 95.4758 345.853 101.286 356.771C106.466 366.507 122.469 383.754 130.503 392.097C129.04 393.199 127.423 394.082 125.705 394.716C123.761 394.998 103.252 369.981 98.4771 361.549Z" stroke="#1C2642" stroke-linecap="round" stroke-linejoin="round"/>
<path d="M143.146 401.181C151.574 395.841 161.126 380.944 161.406 375.884C161.418 375.331 161.374 374.776 161.271 374.232C162.949 374.285 164.568 374.862 165.901 375.884C169.36 372.744 173.02 369.833 176.858 367.171C179.948 365.39 183.41 364.354 186.97 364.146C191.05 367.519 194.836 370.217 195.432 372.511C196.556 376.728 188.971 393.592 170.71 405.398C152.45 417.203 146.27 415.236 140.931 414.111C135.594 412.986 134.718 406.521 143.146 401.181Z" fill="#1C2642" stroke="#1C2642" stroke-linecap="round" stroke-linejoin="round"/>
<path d="M143.145 401.181C145.937 399.287 148.457 397.018 150.629 394.436C156.427 391.961 164.17 388.814 170.958 384.586C178.262 380.088 176.576 377.278 180.79 373.063C184.026 369.824 190.387 369.408 193.151 369.385C194.149 370.218 194.922 371.289 195.398 372.5C196.522 376.716 188.937 393.581 170.676 405.386C152.416 417.192 146.236 415.223 140.897 414.1C135.56 412.975 134.717 406.521 143.145 401.181Z" fill="white"/>
<mask id="mask11_271_5" style="mask-type:luminance" maskUnits="userSpaceOnUse" x="136" y="369" width="60" height="46">
<path d="M143.145 401.181C145.937 399.287 148.457 397.018 150.629 394.436C156.427 391.961 164.17 388.814 170.958 384.586C178.262 380.088 176.576 377.278 180.79 373.063C184.026 369.824 190.387 369.408 193.151 369.385C194.149 370.218 194.922 371.289 195.398 372.5C196.522 376.716 188.937 393.581 170.676 405.386C152.416 417.192 146.236 415.223 140.897 414.1C135.56 412.975 134.717 406.521 143.145 401.181Z" fill="white"/>
</mask>
<g mask="url(#mask11_271_5)">
<path d="M143.145 401.181C145.937 399.287 148.457 397.018 150.629 394.436C156.427 391.961 164.17 388.814 170.958 384.586C178.262 380.088 176.576 377.278 180.79 373.063C184.026 369.824 190.387 369.408 193.151 369.385C194.149 370.218 194.922 371.289 195.398 372.5C196.522 376.716 188.937 393.581 170.676 405.386C152.416 417.192 146.236 415.223 140.897 414.1C135.56 412.975 134.717 406.521 143.145 401.181Z" fill="#1D4ED8"/>
<path opacity="0.5" d="M143.145 401.181C145.937 399.287 148.457 397.018 150.629 394.436C156.427 391.961 164.17 388.814 170.958 384.586C178.262 380.088 176.576 377.278 180.79 373.063C184.026 369.824 190.387 369.408 193.151 369.385C194.149 370.218 194.922 371.289 195.398 372.5C196.522 376.716 188.937 393.581 170.676 405.386C152.416 417.192 146.236 415.223 140.897 414.1C135.56 412.975 134.717 406.521 143.145 401.181Z" fill="white"/>
</g>
<path d="M143.145 401.181C145.937 399.287 148.457 397.018 150.629 394.436C156.427 391.961 164.17 388.814 170.958 384.586C178.262 380.088 176.576 377.278 180.79 373.063C184.026 369.824 190.387 369.408 193.151 369.385C194.149 370.218 194.922 371.289 195.398 372.5C196.522 376.716 188.937 393.581 170.676 405.386C152.416 417.192 146.236 415.223 140.897 414.1C135.56 412.975 134.717 406.521 143.145 401.181Z" stroke="#1C2642" stroke-linecap="round" stroke-linejoin="round"/>
<path d="M141.741 403.149C149.045 398.933 163.935 396.121 173.487 389.656C183.037 383.191 180.509 377.571 187.532 373.073C188.655 372.234 189.999 371.744 191.398 371.664C192.797 371.583 194.188 371.918 195.398 372.623C196.376 377.008 188.769 393.682 170.676 405.398C152.585 417.112 146.236 415.236 140.897 414.111C137.348 413.357 135.808 410.254 137.639 406.691C138.786 405.276 140.175 404.076 141.741 403.149Z" fill="#1C2642"/>
<mask id="mask12_271_5" style="mask-type:luminance" maskUnits="userSpaceOnUse" x="136" y="371" width="60" height="44">
<path d="M141.741 403.149C149.045 398.933 163.935 396.121 173.487 389.656C183.037 383.191 180.509 377.571 187.532 373.073C188.655 372.234 189.999 371.744 191.398 371.664C192.797 371.583 194.188 371.918 195.398 372.623C196.376 377.008 188.769 393.682 170.676 405.398C152.585 417.112 146.236 415.236 140.897 414.111C137.348 413.357 135.808 410.254 137.639 406.691C138.786 405.276 140.175 404.076 141.741 403.149Z" fill="white"/>
</mask>
<g mask="url(#mask12_271_5)">
<path opacity="0.53" d="M141.741 403.149C149.045 398.933 163.935 396.121 173.487 389.656C183.037 383.191 180.509 377.571 187.532 373.073C188.655 372.234 189.999 371.744 191.398 371.664C192.797 371.583 194.188 371.918 195.398 372.623C196.376 377.008 188.769 393.682 170.676 405.398C152.585 417.112 146.236 415.236 140.897 414.111C137.348 413.357 135.808 410.254 137.639 406.691C138.786 405.276 140.175 404.076 141.741 403.149Z" fill="white"/>
</g>
<path d="M141.741 403.149C149.045 398.933 163.935 396.121 173.487 389.656C183.037 383.191 180.509 377.571 187.532 373.073C188.655 372.234 189.999 371.744 191.398 371.664C192.797 371.583 194.188 371.918 195.398 372.623C196.376 377.008 188.769 393.682 170.676 405.398C152.585 417.112 146.236 415.236 140.897 414.111C137.348 413.357 135.808 410.254 137.639 406.691C138.786 405.276 140.175 404.076 141.741 403.149Z" stroke="#1C2642" stroke-linecap="round" stroke-linejoin="round"/>
<path d="M281.735 349.385C281.735 349.385 276.341 342.829 275.577 347.844C274.813 352.858 275.959 362.1 279.813 365.562C283.668 369.026 285.589 363.64 285.589 363.64L283.275 360.56C283.275 360.56 281.353 364.416 279.813 358.244C278.274 352.072 282.892 352.847 282.892 352.847L281.735 349.385Z" fill="white" stroke="#1C2642" stroke-linecap="round" stroke-linejoin="round"/>
<path d="M285.859 374.052C289.05 376.412 299.456 376.412 302.636 374.052C309.378 369.047 308.254 344.875 308.254 344.875H280.319C280.319 344.875 279.105 369.047 285.859 374.052Z" fill="white" stroke="#1C2642" stroke-linecap="round" stroke-linejoin="round"/>
<path d="M305.198 340.131C305.198 337.095 302.377 337.095 302.377 334.048C302.377 331 305.198 331 305.198 327.965C305.198 324.93 302.377 324.919 302.377 321.871C302.377 318.824 305.198 318.824 305.198 315.778C305.198 312.73 302.377 312.73 302.377 309.684" stroke="#1C2642" stroke-linecap="round" stroke-linejoin="round"/>
<path d="M295.545 340.131C295.545 337.881 292.725 337.881 292.725 335.51C292.725 333.137 295.545 333.205 295.545 330.888C295.545 328.572 292.725 328.585 292.725 326.267C292.725 323.952 295.545 323.952 295.545 321.636C295.545 319.32 292.725 319.331 292.725 317.015" stroke="#1C2642" stroke-linecap="round" stroke-linejoin="round"/>
<path d="M284.926 340.131C284.926 337.095 282.117 337.095 282.117 334.048C282.117 331 284.926 331 284.926 327.965C284.926 324.93 282.117 324.919 282.117 321.871C282.117 318.824 284.926 318.824 284.926 315.778C284.926 312.73 282.117 312.73 282.117 309.684" stroke="#1C2642" stroke-linecap="round" stroke-linejoin="round"/>
<path d="M280.296 344.875C280.296 345.583 286.544 346.146 294.264 346.146C301.984 346.146 308.232 345.583 308.232 344.875C308.232 344.167 301.984 343.605 294.264 343.605C286.544 343.605 280.296 344.167 280.296 344.875Z" fill="white" stroke="#1C2642" stroke-linecap="round" stroke-linejoin="round"/>
<path d="M254.507 170.897C254.507 170.897 253.192 185.097 252.641 189.583C252.091 194.07 250.843 206.954 249.551 211.215C248.259 215.477 241.213 222.886 240.561 221.176C239.91 219.468 236.403 207.877 237.797 200.939C239.191 194.002 239.617 188.077 238.752 186.323C237.886 184.568 234.774 182.601 234.774 182.601C238.399 180.743 241.923 178.69 245.326 176.452C250.292 173.145 253.81 169.401 254.507 170.897Z" fill="white"/>
<mask id="mask13_271_5" style="mask-type:luminance" maskUnits="userSpaceOnUse" x="234" y="170" width="21" height="52">
<path d="M254.507 170.897C254.507 170.897 253.192 185.097 252.641 189.583C252.091 194.07 250.843 206.954 249.551 211.215C248.259 215.477 241.213 222.886 240.561 221.176C239.91 219.468 236.403 207.877 237.797 200.939C239.191 194.002 239.617 188.077 238.752 186.323C237.886 184.568 234.774 182.601 234.774 182.601C238.399 180.743 241.923 178.69 245.326 176.452C250.292 173.145 253.81 169.401 254.507 170.897Z" fill="white"/>
</mask>
<g mask="url(#mask13_271_5)">
<path d="M236.471 183.366L237.594 181.184C239.662 180.06 242.539 178.396 245.271 176.564C250.271 173.191 253.788 169.401 254.484 170.942C254.484 170.942 253.17 185.143 252.619 189.628C252.068 194.114 250.82 207 249.528 211.26C249.088 212.506 248.48 213.686 247.719 214.768C249.079 206.291 247.607 190.977 247.607 190.977L236.471 183.366Z" fill="#1D4ED8"/>
<path opacity="0.5" d="M236.471 183.366L237.594 181.184C239.662 180.06 242.539 178.396 245.271 176.564C250.271 173.191 253.788 169.401 254.484 170.942C254.484 170.942 253.17 185.143 252.619 189.628C252.068 194.114 250.82 207 249.528 211.26C249.088 212.506 248.48 213.686 247.719 214.768C249.079 206.291 247.607 190.977 247.607 190.977L236.471 183.366Z" fill="white"/>
</g>
<path d="M254.507 170.897C254.507 170.897 253.192 185.097 252.641 189.583C252.091 194.07 250.843 206.954 249.551 211.215C248.259 215.477 241.213 222.886 240.561 221.176C239.91 219.468 236.403 207.877 237.797 200.939C239.191 194.002 239.617 188.077 238.752 186.323C237.886 184.568 234.774 182.601 234.774 182.601C238.399 180.743 241.923 178.69 245.326 176.452C250.292 173.145 253.81 169.401 254.507 170.897Z" stroke="#1C2642" stroke-linecap="round" stroke-linejoin="round"/>
<path d="M255.024 172.954C255.024 172.954 246.933 179.701 240.731 182.174C234.528 184.647 224.997 184.49 223.639 181.263C222.279 178.037 225.998 152.48 229.201 145.757C232.403 139.034 235.82 138.921 241.471 138.404C247.124 137.887 258.429 142.496 260.418 147.961C262.407 153.425 260.137 161.16 258.496 165.748C257.629 168.279 256.463 170.698 255.024 172.954Z" fill="white"/>
<mask id="mask14_271_5" style="mask-type:luminance" maskUnits="userSpaceOnUse" x="223" y="138" width="39" height="46">
<path d="M255.024 172.954C255.024 172.954 246.933 179.701 240.731 182.174C234.528 184.647 224.997 184.49 223.639 181.263C222.279 178.037 225.998 152.48 229.201 145.757C232.403 139.034 235.82 138.921 241.471 138.404C247.124 137.887 258.429 142.496 260.418 147.961C262.407 153.425 260.137 161.16 258.496 165.748C257.629 168.279 256.463 170.698 255.024 172.954Z" fill="white"/>
</mask>
<g mask="url(#mask14_271_5)">
<path d="M240.495 172.65C243.359 164.152 244.078 150.772 244.078 147.207C244.078 144.453 236.91 141.428 233.639 140.192C235.786 138.865 238.281 138.696 241.505 138.404C247.124 137.898 258.463 142.497 260.452 147.961C262.441 153.425 260.171 161.16 258.53 165.748C257.662 168.279 256.497 170.698 255.058 172.954C255.058 172.954 246.967 179.701 240.764 182.174C236.465 183.802 231.808 184.248 227.279 183.466C231.717 181.792 238.584 178.328 240.495 172.65Z" fill="#1D4ED8"/>
<path opacity="0.5" d="M240.495 172.65C243.359 164.152 244.078 150.772 244.078 147.207C244.078 144.453 236.91 141.428 233.639 140.192C235.786 138.865 238.281 138.696 241.505 138.404C247.124 137.898 258.463 142.497 260.452 147.961C262.441 153.425 260.171 161.16 258.53 165.748C257.662 168.279 256.497 170.698 255.058 172.954C255.058 172.954 246.967 179.701 240.764 182.174C236.465 183.802 231.808 184.248 227.279 183.466C231.717 181.792 238.584 178.328 240.495 172.65Z" fill="white"/>
</g>
<path d="M255.024 172.954C255.024 172.954 246.933 179.701 240.731 182.174C234.528 184.647 224.997 184.49 223.639 181.263C222.279 178.037 225.998 152.48 229.201 145.757C232.403 139.034 235.82 138.921 241.471 138.404C247.124 137.887 258.429 142.496 260.418 147.961C262.407 153.425 260.137 161.16 258.496 165.748C257.629 168.279 256.463 170.698 255.024 172.954Z" stroke="#1C2642" stroke-linecap="round" stroke-linejoin="round"/>
<path d="M228.594 156.28C228.459 159.519 230.493 162.229 233.088 162.329C235.684 162.431 237.954 159.901 238.077 156.709C238.202 153.515 236.178 150.761 233.584 150.648C230.987 150.536 228.717 153.009 228.594 156.28Z" stroke="#1C2642" stroke-linecap="round" stroke-linejoin="round"/>
<path d="M222.233 155.021C222.097 158.26 223.143 160.924 224.558 160.981C225.975 161.036 227.233 158.462 227.358 155.223C227.481 151.986 226.435 149.31 225.02 149.254C223.603 149.198 222.356 151.784 222.233 155.021Z" stroke="#1C2642" stroke-linecap="round" stroke-linejoin="round"/>
<path d="M228.257 155.089C228.257 155.089 218.974 156.855 219.873 159.092C220.773 161.329 227.042 163.747 227.042 163.747" fill="white"/>
<path d="M228.257 155.089C228.257 155.089 218.974 156.855 219.873 159.092C220.773 161.329 227.042 163.747 227.042 163.747" stroke="#1C2642" stroke-linecap="round" stroke-linejoin="round"/>
<path d="M228.83 154.033C228.83 154.033 228.695 152.908 227.267 153.617" stroke="#1C2642" stroke-linecap="round" stroke-linejoin="round"/>
<path d="M238.37 157.159L255.248 163.802" stroke="#1C2642" stroke-linecap="round" stroke-linejoin="round"/>
<path d="M238.145 151.694C237.789 150.89 237.196 150.215 236.443 149.76C235.692 149.306 234.819 149.094 233.943 149.153" stroke="#1C2642" stroke-width="2" stroke-linecap="round" stroke-linejoin="round"/>
<path d="M226.908 149.231L229.504 150.21" stroke="#1C2642" stroke-width="2" stroke-linecap="round" stroke-linejoin="round"/>
<path d="M234.931 168.087C234.931 168.087 231.56 167.209 229.649 169.21" stroke="#1C2642" stroke-linecap="round" stroke-linejoin="round"/>
<path d="M232.763 156.866C232.604 157.991 232.763 158.957 233.223 159.014C233.684 159.069 234.089 158.203 234.246 157.068C234.403 155.932 234.189 154.988 233.773 154.932C233.357 154.875 232.908 155.741 232.763 156.866Z" fill="#1C2642"/>
<path d="M253.675 163.849C253.675 163.849 254.798 166.097 251.629 166.209C248.461 166.321 246.303 164.781 247.842 162.836C249.382 160.89 251.663 159.069 249.314 156.529C246.965 153.988 242.404 151.851 244.965 149.018C247.528 146.185 256.956 148.759 254.596 146.466C252.236 144.172 241.335 141.777 236.437 142.081C231.537 142.385 222.39 138.584 220.379 133.615C218.368 128.645 221.176 119.46 227.761 119.954C234.346 120.449 239.257 126.284 242.179 126.7C245.101 127.116 251.09 123.867 256.113 126.7C261.136 129.534 261.305 137.674 261.732 138.674C262.159 139.675 268.968 141.159 270.171 148.051C270.622 150.83 270.429 153.675 269.607 156.367C268.785 159.06 267.355 161.527 265.429 163.577C262.608 166.648 261.338 167.816 261.338 167.816L253.675 163.849Z" fill="#1C2642" stroke="#1C2642" stroke-linecap="round" stroke-linejoin="round"/>
<path d="M267.969 151.39C268.027 152.436 267.777 153.476 267.25 154.381" stroke="white" stroke-width="0.75" stroke-linecap="round" stroke-linejoin="round"/>
<path d="M239.324 133.592C239.324 133.592 241.774 128.229 235.527 128.229C229.278 128.229 228.38 136.099 234.852 138.955C241.325 141.811 255.405 142.53 263.002 145.892C264.492 146.476 265.819 147.414 266.867 148.624" stroke="white" stroke-width="0.75" stroke-linecap="round" stroke-linejoin="round"/>
<path d="M250.642 152.638C252.888 153.448 255.799 154.572 258.754 155.944C265.013 158.856 263.676 161.756 263.676 161.756" stroke="white" stroke-width="0.75" stroke-linecap="round" stroke-linejoin="round"/>
<path d="M246.471 151.255C246.471 151.255 247.022 151.413 247.956 151.716" stroke="white" stroke-width="0.75" stroke-linecap="round" stroke-linejoin="round"/>
<path d="M252.608 166.253C252.608 166.253 256.237 161.015 260.058 163.116C263.879 165.22 260.912 172.697 258.608 175.293C256.305 177.891 251.866 173.045 251.405 171.831" fill="white"/>
<mask id="mask15_271_5" style="mask-type:luminance" maskUnits="userSpaceOnUse" x="251" y="162" width="11" height="15">
<path d="M252.608 166.253C252.608 166.253 256.237 161.015 260.058 163.116C263.879 165.22 260.912 172.697 258.608 175.293C256.305 177.891 251.866 173.045 251.405 171.831" fill="white"/>
</mask>
<g mask="url(#mask15_271_5)">
<path d="M252.608 166.253C252.608 166.253 256.237 161.015 260.058 163.116C263.879 165.22 260.912 172.697 258.608 175.293C256.305 177.891 251.866 173.045 251.405 171.831" fill="#1D4ED8"/>
<path opacity="0.5" d="M252.608 166.253C252.608 166.253 256.237 161.015 260.058 163.116C263.879 165.22 260.912 172.697 258.608 175.293C256.305 177.891 251.866 173.045 251.405 171.831" fill="white"/>
</g>
<path d="M252.608 166.253C252.608 166.253 256.237 161.015 260.058 163.116C263.879 165.22 260.912 172.697 258.608 175.293C256.305 177.891 251.866 173.045 251.405 171.831" stroke="#1C2642" stroke-linecap="round" stroke-linejoin="round"/>
<path d="M298.444 161.476H378.993C382.171 161.476 384.747 164.053 384.747 167.232V226.147C384.747 229.325 382.171 231.903 378.993 231.903H298.444C295.267 231.903 292.691 229.325 292.691 226.147V167.232C292.691 164.053 295.267 161.476 298.444 161.476Z" fill="white" stroke="#1C2642" stroke-linecap="round" stroke-linejoin="round"/>
<path d="M294.444 212.137L240.506 226.192L294.444 199.77" fill="white"/>
<path d="M294.444 212.137L240.506 226.192L294.444 199.77" stroke="#1C2642" stroke-linecap="round" stroke-linejoin="round"/>
<path d="M355.653 168.244H377.307V225.134H355.653V168.244Z" fill="#1D4ED8" stroke="#1C2642" stroke-linecap="round" stroke-linejoin="round"/>
<path d="M297.467 168.244H300.175V225.134H297.467V168.244Z" fill="#1D4ED8" stroke="#1C2642" stroke-linecap="round" stroke-linejoin="round"/>
<path d="M297.467 194.249H300.175V199.107H297.467V194.249Z" fill="#1C2642" stroke="#1C2642" stroke-linecap="round" stroke-linejoin="round"/>
<path d="M348.877 169.592H306.232" stroke="#1C2642" stroke-linecap="round" stroke-linejoin="round"/>
<path d="M348.877 175.688H306.232" stroke="#1C2642" stroke-linecap="round" stroke-linejoin="round"/>
<path d="M348.877 181.792H306.232" stroke="#1C2642" stroke-linecap="round" stroke-linejoin="round"/>
<path d="M348.877 187.886H306.232" stroke="#1C2642" stroke-linecap="round" stroke-linejoin="round"/>
<path d="M348.877 202.783H306.232" stroke="#1C2642" stroke-linecap="round" stroke-linejoin="round"/>
<path d="M348.877 208.202H306.232" stroke="#1C2642" stroke-linecap="round" stroke-linejoin="round"/>
<path d="M348.877 213.622H306.232" stroke="#1C2642" stroke-linecap="round" stroke-linejoin="round"/>
<path d="M348.877 224.865H306.232" stroke="#1C2642" stroke-linecap="round" stroke-linejoin="round"/>
<path d="M377.307 225.124L355.642 168.244" stroke="#1C2642" stroke-linecap="round" stroke-linejoin="round"/>
<path d="M50.9438 382.563C40.5601 382.563 32.1429 378.786 32.1429 374.13C32.1429 369.473 40.5601 365.698 50.9438 365.698C61.326 365.698 69.7432 369.473 69.7432 374.13C69.7432 378.786 61.326 382.563 50.9438 382.563Z" fill="#1D4ED8"/>
<path opacity="0.5" d="M50.9438 382.563C40.5601 382.563 32.1429 378.786 32.1429 374.13C32.1429 369.473 40.5601 365.698 50.9438 365.698C61.326 365.698 69.7432 369.473 69.7432 374.13C69.7432 378.786 61.326 382.563 50.9438 382.563Z" fill="white"/>
<path d="M72.9355 249.352C70.9228 250.23 66.0012 250.118 66.0012 250.118C66.0012 250.118 67.0576 246.89 67.1253 246.743C68.2495 244.496 71.6204 240.752 74.3953 241.123C74.8511 241.204 75.2854 241.382 75.6704 241.639C76.0554 241.896 76.3834 242.232 76.6328 242.622C76.8823 243.012 77.0501 243.451 77.1225 243.908C77.1964 244.366 77.1749 244.833 77.0594 245.283C76.6436 247.172 74.654 248.599 72.9355 249.352Z" fill="#1C2642"/>
<path d="M8.47758 232.588C11.2648 232.296 14.5803 236.107 15.6028 238.402C15.6921 238.603 16.7254 241.853 16.6592 241.853H16.6022C17.1304 242.449 17.7264 243.101 18.2761 243.82C19.4002 245.159 20.5922 246.677 21.8056 248.43C23.1377 250.298 24.3557 252.242 25.4568 254.254C26.7057 256.502 27.7513 258.858 28.5813 261.292C28.5874 261.322 28.5874 261.352 28.5813 261.383C28.5813 260.562 28.5813 258.257 28.5813 258.077C28.9077 255.604 30.9867 250.983 33.7508 250.476C34.2097 250.413 34.6763 250.447 35.1214 250.572C35.5679 250.698 35.9822 250.914 36.341 251.207C36.6998 251.501 36.9939 251.865 37.2049 252.276C37.4174 252.689 37.5421 253.14 37.5714 253.603C37.7284 255.57 36.3009 257.548 34.9073 258.796C33.335 260.202 28.974 261.562 28.6259 261.664C29.4036 264.163 30.0196 266.708 30.4692 269.287C30.7387 270.793 30.9528 272.312 31.1653 273.84C31.1653 273.121 31.1653 272.491 31.1653 272.401C31.4918 269.916 33.5706 265.306 36.324 264.801C36.7829 264.736 37.2495 264.767 37.6961 264.892C38.1427 265.015 38.5585 265.231 38.9173 265.523C39.2776 265.814 39.5733 266.178 39.7858 266.589C39.9983 267.001 40.1246 267.452 40.1554 267.915C40.3124 269.894 38.8865 271.862 37.4928 273.11C36.0992 274.358 32.3803 275.617 31.3901 275.931C31.4579 276.516 31.5364 277.056 31.6149 277.686C31.9522 280.496 32.2679 283.307 32.6713 286.061C32.8176 287.029 32.987 287.973 33.1549 288.918C33.1549 288.288 33.1549 287.793 33.1549 287.681C33.4813 285.195 35.5602 280.586 38.3244 280.069C38.7833 280.006 39.2499 280.039 39.6949 280.165C40.1415 280.29 40.5557 280.507 40.9145 280.8C41.2733 281.092 41.5675 281.456 41.7784 281.869C41.991 282.28 42.1157 282.732 42.1449 283.194C42.302 285.174 40.8745 287.141 39.4809 288.389C38.0888 289.637 34.7287 290.773 33.5599 291.143C33.7616 292.11 33.9756 293.078 34.2113 294.01C34.3914 294.64 34.5254 295.258 34.7394 295.877C34.9535 296.495 35.1321 297.113 35.3354 297.72C35.7512 298.845 36.1777 300.082 36.6166 301.195C36.92 301.982 37.2233 302.724 37.5144 303.444C37.3696 302.476 37.1109 300.587 37.1109 300.43C37.1371 298.227 37.73 296.067 38.8295 294.156C38.8125 293.913 38.8125 293.67 38.8295 293.426C38.8957 292.967 39.0558 292.528 39.3007 292.133C39.544 291.741 39.8658 291.402 40.2462 291.137C40.6266 290.873 41.0577 290.691 41.512 290.6C41.9663 290.511 42.4344 290.516 42.8856 290.616C45.5944 291.335 47.3145 296.09 47.4484 298.586C47.4484 298.743 47.3591 300.352 47.2806 301.364C47.4146 300.779 47.5393 300.239 47.684 299.598C47.9766 298.395 48.2908 297.204 48.628 295.933C48.819 295.315 48.9991 294.696 49.1901 294.078C49.381 293.46 49.629 292.819 49.843 292.178C50.382 290.716 50.9656 289.255 51.6509 287.793C50.5945 287.545 46.8864 286.601 45.3926 285.454C43.8974 284.308 42.3359 282.453 42.359 280.473C42.3467 280.011 42.4344 279.55 42.6115 279.122C42.7902 278.694 43.0566 278.308 43.3938 277.991C43.7311 277.672 44.1314 277.429 44.5688 277.276C45.0061 277.122 45.4696 277.063 45.9316 277.1C48.7296 277.404 51.1458 281.846 51.6509 284.296C51.6509 284.454 51.8418 286.252 51.9219 287.242C52.3146 286.365 52.7073 285.499 53.1354 284.622C54.3827 282.116 55.7194 279.62 57.0452 277.111C57.461 276.347 57.8537 275.583 58.2479 274.808C57.8768 274.728 53.4387 273.683 51.7756 272.412C50.2911 271.287 48.7189 269.411 48.7296 267.431C48.7281 266.97 48.822 266.512 49.0053 266.089C49.1885 265.665 49.455 265.284 49.7922 264.967C50.1279 264.651 50.5252 264.408 50.9595 264.251C51.3922 264.095 51.8542 264.029 52.3146 264.058C55.1019 264.362 57.518 268.804 58.0231 271.255C58.0231 271.434 58.2926 274.031 58.3265 274.695C59.2027 272.997 60.0573 271.321 60.8442 269.602C61.9037 267.309 62.8169 264.95 63.5745 262.54C63.4051 262.54 58.7653 261.416 57.056 260.135C55.5731 259.011 54.0008 257.132 54.0116 255.154C54.0101 254.692 54.104 254.236 54.2872 253.812C54.469 253.388 54.7369 253.006 55.0726 252.69C55.4083 252.373 55.8056 252.13 56.2399 251.974C56.6741 251.817 57.1361 251.752 57.5965 251.781C60.3822 252.085 62.7984 256.525 63.305 258.977C63.305 259.179 63.5961 261.967 63.6084 262.473C63.6084 262.328 63.7085 262.192 63.7547 262.046C64.4477 259.605 64.922 257.106 65.1699 254.581C65.327 253.197 65.3947 251.848 65.4394 250.544C64.5524 250.443 60.5285 249.903 58.8546 248.891C57.1807 247.879 55.4837 246.249 55.2805 244.27C55.2266 243.81 55.2666 243.344 55.4006 242.901C55.5346 242.457 55.7579 242.045 56.0566 241.693C56.3569 241.338 56.7265 241.05 57.1407 240.847C57.5565 240.642 58.0092 240.525 58.4727 240.503C61.2816 240.503 64.1705 244.652 64.945 247.025C64.945 247.159 65.2592 248.52 65.4501 249.521C65.4501 248.925 65.4501 248.318 65.4501 247.755C65.4501 245.642 65.3162 243.697 65.1807 241.976C65.0913 240.999 65.002 240.121 64.9004 239.289C64.0904 238.739 60.855 236.445 59.8541 234.792C58.8546 233.14 58.0785 230.891 58.81 229.059C58.964 228.618 59.2088 228.216 59.5307 227.878C59.851 227.539 60.239 227.273 60.6702 227.096C61.1014 226.918 61.5649 226.835 62.03 226.849C62.495 226.865 62.9524 226.977 63.3712 227.18C65.8659 228.462 66.5188 233.477 66.1138 235.95C66.1138 236.164 65.136 239.435 65.0913 239.414C65.193 240.2 65.3054 241.055 65.4055 241.976C65.5749 243.697 65.7535 245.642 65.7997 247.779C65.8782 250.07 65.8259 252.362 65.6426 254.647C65.4394 257.211 65.0113 259.75 64.3614 262.237C64.3676 262.266 64.3676 262.297 64.3614 262.328C64.7988 261.641 66.1031 259.741 66.2155 259.607C67.8555 257.706 72.1257 255.019 74.7097 256.109C75.127 256.31 75.4997 256.593 75.8015 256.944C76.1049 257.294 76.3328 257.702 76.4714 258.145C76.6084 258.587 76.6546 259.052 76.6054 259.513C76.5545 259.974 76.4113 260.419 76.1819 260.821C75.2271 262.564 72.9465 263.417 71.0924 263.687C69.0135 263.992 64.6186 262.721 64.2706 262.619C63.5452 265.13 62.6552 267.589 61.608 269.984C61.0013 271.389 60.3484 272.783 59.6754 274.167C60.0789 273.581 60.4392 273.042 60.4947 273.042C62.1362 271.153 66.4172 268.455 68.9904 269.545C69.4093 269.745 69.782 270.03 70.0869 270.381C70.3902 270.731 70.6181 271.141 70.7567 271.585C70.8953 272.028 70.94 272.495 70.8892 272.957C70.8383 273.418 70.6936 273.865 70.4626 274.267C69.5079 275.999 67.2257 276.865 65.3839 277.134C63.5406 277.404 59.7647 276.392 58.7422 276.111C58.4835 276.64 58.2248 277.168 57.9553 277.697C56.6864 280.237 55.4052 282.756 54.2241 285.263C53.8083 286.151 53.4387 287.04 53.1015 287.927C53.4495 287.399 53.7529 286.972 53.8083 286.904C55.4499 285.015 59.7309 282.317 62.3041 283.408C62.7229 283.608 63.0956 283.892 63.4005 284.243C63.7039 284.595 63.9318 285.004 64.0704 285.448C64.209 285.89 64.2536 286.359 64.2028 286.819C64.152 287.282 64.0072 287.727 63.7762 288.131C62.8215 289.862 60.5409 290.716 58.6976 290.986C56.8543 291.255 53.4156 290.345 52.2361 290.02C51.8757 290.941 51.5061 291.864 51.2012 292.774C50.9995 293.392 50.7639 293.976 50.6068 294.617C50.4498 295.258 50.2588 295.865 50.0786 296.484C49.7968 297.688 49.4935 298.923 49.2347 300.093C49.0561 300.914 48.899 301.689 48.7404 302.476C49.1454 301.589 49.977 299.879 50.0555 299.745C51.3937 297.62 55.2143 294.303 57.9215 294.999C58.3711 295.126 58.79 295.344 59.1488 295.643C59.5076 295.942 59.7986 296.313 60.0034 296.733C60.2082 297.153 60.3222 297.611 60.3376 298.078C60.3515 298.544 60.2683 299.01 60.0912 299.441C59.4167 301.296 57.2932 302.487 55.5053 303.039C53.5281 303.635 49.1685 303.039 48.628 303.039C48.3709 304.344 48.1229 305.613 47.9212 306.817C47.179 310.977 46.7293 314.473 46.449 316.935C46.449 317.374 46.3582 317.756 46.3135 318.127H54.7523L52.0451 371.083C51.9435 373.022 51.1027 374.848 49.6967 376.185C48.2892 377.521 46.4228 378.267 44.4825 378.267C42.5422 378.267 40.6774 377.521 39.273 376.184C37.867 374.847 37.0293 373.021 36.9307 371.083L34.2113 318.127H42.0772C42.0217 318.004 41.9648 317.892 41.897 317.767C40.7744 315.519 39.3238 312.28 37.7053 308.334C37.2002 307.086 36.672 305.737 36.1546 304.355C35.6264 304.467 31.3116 305.344 29.3004 304.883C27.4694 304.478 25.2658 303.444 24.4466 301.644C24.2464 301.225 24.1355 300.769 24.1201 300.304C24.1047 299.84 24.1863 299.376 24.3573 298.945C24.5297 298.514 24.7884 298.122 25.1195 297.796C25.4491 297.467 25.8448 297.213 26.2775 297.047C28.9416 296.158 33.0194 299.182 34.4807 301.195C34.5701 301.307 35.3693 302.712 35.8636 303.601C35.6603 303.028 35.4478 302.476 35.2338 301.892C34.8072 300.768 34.4253 299.575 33.9972 298.316C33.8186 297.709 33.6276 297.092 33.4474 296.461C33.2673 295.831 33.1102 295.169 32.9408 294.517C32.582 292.999 32.2894 291.448 32.0307 289.873C31.0205 290.244 27.4017 291.503 25.5245 291.368C23.6489 291.234 21.3221 290.548 20.2426 288.895C19.9839 288.51 19.8083 288.077 19.7236 287.621C19.6405 287.165 19.6513 286.695 19.7575 286.243C19.8622 285.792 20.0593 285.367 20.3365 284.995C20.6137 284.624 20.9648 284.313 21.3667 284.083C23.8614 282.79 28.3226 285.208 30.0981 286.927C30.2105 287.04 31.3454 288.456 31.9522 289.243C31.7951 288.288 31.6488 287.343 31.5256 286.388C31.1776 283.599 30.9189 280.766 30.6494 277.956L30.3799 275.381C30.0196 275.515 25.7494 277.1 23.6366 276.954C21.7717 276.82 19.4341 276.134 18.3547 274.481C18.0959 274.096 17.9204 273.663 17.8357 273.205C17.7525 272.749 17.7633 272.281 17.8696 271.83C17.9743 271.378 18.1714 270.953 18.4486 270.582C18.7258 270.21 19.0769 269.899 19.4788 269.669C21.9735 268.375 26.447 270.793 28.2102 272.514C28.3457 272.648 29.9749 274.683 30.3568 275.224C30.1659 273.323 29.941 271.434 29.6485 269.602C29.2712 267.099 28.7353 264.625 28.0423 262.192C27.8729 262.26 23.4241 263.935 21.299 263.778C19.4341 263.654 17.0965 262.967 16.0186 261.303C15.7599 260.92 15.5828 260.485 15.4981 260.029C15.4149 259.573 15.4257 259.105 15.532 258.653C15.6367 258.202 15.8353 257.776 16.111 257.405C16.3882 257.032 16.7393 256.723 17.1412 256.491C19.6359 255.21 24.097 257.616 25.8725 259.348C26.0081 259.482 27.7605 261.675 28.0423 262.091C28.0423 261.956 27.9745 261.799 27.9299 261.664C27.163 259.242 26.1821 256.894 24.9963 254.647C24.368 253.399 23.6812 252.242 22.996 251.14C22.1983 251.533 18.5009 253.31 16.5914 253.388C14.6804 253.467 12.332 253.04 11.0739 251.512C10.7721 251.157 10.5472 250.746 10.4117 250.302C10.2762 249.859 10.2346 249.39 10.2885 248.93C10.3424 248.467 10.4902 248.024 10.7243 247.621C10.9584 247.221 11.2725 246.873 11.6467 246.598C13.9843 245.047 18.6811 246.913 20.6368 248.475C20.7384 248.566 21.7609 249.6 22.4339 250.275L21.4899 248.779C20.3104 247.014 19.1308 245.474 18.119 244.113C17.5123 243.337 16.9395 242.663 16.4113 242.022C15.4226 242.022 11.4558 241.887 9.72492 241.078C7.99404 240.267 6.09529 238.828 5.67951 236.861C5.54708 236.396 5.51475 235.906 5.58712 235.426C5.6595 234.947 5.83507 234.49 6.10148 234.084C6.36635 233.678 6.71589 233.334 7.12705 233.077C7.53667 232.82 7.99712 232.652 8.47758 232.588ZM39.3469 307.513C41.0316 311.393 42.5823 314.564 43.6956 316.756L44.3024 317.959H44.4933C44.5503 317.531 44.6057 317.06 44.6843 316.531C45.0215 314.057 45.5497 310.538 46.3813 306.411C46.6508 305.085 46.9541 303.669 47.2806 302.23C45.9686 301.698 44.6858 301.099 43.4369 300.43C41.743 301.888 39.8504 303.099 37.8177 304.028C38.3583 305.208 38.8526 306.401 39.3469 307.513Z" fill="#1C2642"/>
<path d="M23.1653 250.432C23.1653 250.432 22.2768 247.159 22.2429 246.947C21.8949 244.462 22.6926 239.47 25.2103 238.245C25.6354 238.064 26.0927 237.975 26.5531 237.98C27.0136 237.984 27.4694 238.083 27.8913 238.271C28.3117 238.457 28.6906 238.73 29.0032 239.071C29.3142 239.409 29.5529 239.81 29.7054 240.246C30.3798 242.112 29.5252 244.394 28.5027 245.968C27.3339 247.813 23.1761 250.432 23.1653 250.432Z" fill="#1C2642"/>
</g>
</svg>
