<svg width="31" height="31" viewBox="0 0 31 31" fill="none" xmlns="http://www.w3.org/2000/svg">
<g id="SVG" clip-path="url(#clip0_52_801)">
<path id="Vector" d="M29.3932 4.01741C27.2389 9.38917 21.8391 16.6914 17.3207 20.3145L14.5649 22.5247C14.2152 22.7765 13.8654 23.0004 13.4737 23.1542C13.4737 22.9024 13.4598 22.6227 13.4178 22.3569C13.2639 21.1818 12.7323 20.0907 11.7951 19.1534C10.8438 18.2022 9.6827 17.6426 8.49364 17.4887C8.21386 17.4747 7.93408 17.4468 7.6543 17.4747C7.80818 17.0411 8.04599 16.6354 8.33976 16.2997L10.522 13.5438C14.1312 9.02545 21.4614 3.59774 26.8192 1.45743C27.6446 1.14967 28.4419 1.3735 28.9455 1.89109C29.4771 2.40868 29.7289 3.20605 29.3932 4.01741Z" stroke="#4270FF" stroke-width="1.56" stroke-linecap="round" stroke-linejoin="round"/>
<path id="Vector_2" d="M13.4738 23.1543C13.4738 24.693 12.8862 26.162 11.7811 27.2811C10.9278 28.1344 9.76665 28.722 8.38174 28.9038L4.94046 29.2814C3.06594 29.4913 1.45721 27.8966 1.68103 25.9941L2.05874 22.5528C2.39447 19.4892 4.95445 17.5307 7.66831 17.4747C7.94809 17.4608 8.24185 17.4747 8.50764 17.4887C9.69671 17.6426 10.8578 18.1882 11.8091 19.1534C12.7463 20.0907 13.2779 21.1818 13.4318 22.3569C13.4458 22.6227 13.4738 22.8885 13.4738 23.1543Z" stroke="#4270FF" stroke-width="1.56" stroke-linecap="round" stroke-linejoin="round"/>
<path id="Vector_3" d="M18.8043 18.7477C18.8043 15.0966 15.8386 12.1309 12.1875 12.1309" stroke="#4270FF" stroke-width="1.56" stroke-linecap="round" stroke-linejoin="round"/>
<path id="Vector_4" d="M27.0292 16.3137L28.0644 17.3349C30.1488 19.4192 30.1488 21.4756 28.0644 23.56L23.9237 27.7007C21.8673 29.7571 19.7829 29.7571 17.7266 27.7007" stroke="#4270FF" stroke-width="1.56" stroke-linecap="round"/>
<path id="Vector_5" d="M3.23369 13.2081C1.17731 11.1237 1.17731 9.06742 3.23369 6.98306L7.37442 2.84233C9.4308 0.785955 11.5152 0.785955 13.5716 2.84233L14.6068 3.87752" stroke="#4270FF" stroke-width="1.56" stroke-linecap="round"/>
<path id="Vector_6" d="M14.6212 3.89136L9.44531 9.06727" stroke="#4270FF" stroke-width="1.56" stroke-linecap="round"/>
<path id="Vector_7" d="M27.0295 16.3137L22.8887 20.4404" stroke="#4270FF" stroke-width="1.56" stroke-linecap="round"/>
</g>
<defs>
<clipPath id="clip0_52_801">
<rect width="30" height="30" fill="white" transform="translate(0.660156 0.300049)"/>
</clipPath>
</defs>
</svg>
