<svg width="33" height="31" viewBox="0 0 33 31" fill="none" xmlns="http://www.w3.org/2000/svg">
<path id="Vector" d="M30.7105 6.06928H24.8438V4.33851C24.8426 3.26786 24.4489 2.24143 23.749 1.48436C23.0491 0.727289 22.1003 0.301389 21.1105 0.300049H11.5105C10.5207 0.301389 9.57195 0.727289 8.87205 1.48436C8.17218 2.24143 7.77845 3.26786 7.77722 4.33851V6.06928H1.91055C1.4862 6.06928 1.07924 6.25163 0.779177 6.57621C0.479117 6.90079 0.310547 7.34102 0.310547 7.80005V19.3385C0.311887 19.6952 0.415087 20.0427 0.606027 20.3336C0.796957 20.6244 1.06631 20.8443 1.37722 20.9632V28.5692C1.37722 29.0283 1.54579 29.4685 1.84585 29.7931C2.1459 30.1177 2.55287 30.3 2.97722 30.3H29.6438C30.0682 30.3 30.4751 30.1177 30.7752 29.7931C31.0753 29.4685 31.2438 29.0283 31.2438 28.5692V20.9632C31.5547 20.8443 31.8241 20.6244 32.015 20.3336C32.206 20.0427 32.3092 19.6952 32.3105 19.3385V7.80005C32.3105 7.34102 32.1419 6.90079 31.8419 6.57621C31.5418 6.25163 31.1348 6.06928 30.7105 6.06928ZM8.84388 4.33851C8.84477 3.57376 9.126 2.8406 9.62595 2.29983C10.1258 1.75907 10.8035 1.45485 11.5105 1.4539H21.1105C21.8175 1.45485 22.4952 1.75907 22.9951 2.29983C23.4951 2.8406 23.7763 3.57376 23.7772 4.33851V6.06928H22.6892L22.7105 4.33851C22.7094 3.87983 22.5405 3.44027 22.2407 3.11593C21.9409 2.7916 21.5345 2.60888 21.1105 2.60774H11.4905C11.0665 2.60888 10.6601 2.7916 10.3603 3.11593C10.0605 3.44027 9.89165 3.87983 9.89055 4.33851V4.34428L9.90525 6.06928H8.84388V4.33851ZM21.6438 4.33058L21.6225 6.06928H10.9718L10.9552 4.33851C10.9552 4.1855 11.0114 4.03876 11.1114 3.93057C11.2114 3.82237 11.3471 3.76159 11.4885 3.76159H21.1105C21.2507 3.76157 21.3852 3.82127 21.4851 3.92775C21.5849 4.03424 21.6419 4.17895 21.6438 4.33058ZM30.1772 28.5692C30.1772 28.7222 30.121 28.869 30.021 28.9772C29.9209 29.0854 29.7853 29.1462 29.6438 29.1462H2.97722C2.83577 29.1462 2.70011 29.0854 2.60009 28.9772C2.50007 28.869 2.44388 28.7222 2.44388 28.5692V21.0692H6.17722V22.8C6.17722 22.953 6.23341 23.0998 6.33343 23.2079C6.43345 23.3161 6.5691 23.3769 6.71055 23.3769H8.84388C8.98533 23.3769 9.12099 23.3161 9.22101 23.2079C9.32105 23.0998 9.37725 22.953 9.37725 22.8V21.0692H23.2438V22.8C23.2438 22.953 23.3 23.0998 23.4 23.2079C23.5001 23.3161 23.6357 23.3769 23.7772 23.3769H25.9105C26.052 23.3769 26.1876 23.3161 26.2876 23.2079C26.3876 23.0998 26.4438 22.953 26.4438 22.8V21.0692H30.1772V28.5692ZM7.24388 22.2231V19.3385C7.24387 19.2615 7.25841 19.1853 7.28661 19.1146C7.31482 19.0439 7.35609 18.9802 7.40788 18.9274C7.45587 18.8742 7.51334 18.832 7.57683 18.8035C7.64031 18.775 7.70848 18.7607 7.77722 18.7615C7.91867 18.7615 8.05432 18.8223 8.15434 18.9305C8.25436 19.0387 8.31055 19.1855 8.31055 19.3385V22.2231H7.24388ZM24.3105 22.2231V19.3385C24.3105 19.1855 24.3667 19.0387 24.4667 18.9305C24.5667 18.8223 24.7024 18.7615 24.8438 18.7615C24.915 18.7612 24.9854 18.7767 25.0508 18.8071C25.1162 18.8375 25.1751 18.8821 25.2238 18.9382C25.2729 18.9904 25.3118 19.0527 25.3382 19.1215C25.3645 19.1902 25.3778 19.264 25.3772 19.3385V22.2231H24.3105ZM31.2438 19.3385C31.2438 19.4915 31.1876 19.6382 31.0876 19.7464C30.9876 19.8546 30.852 19.9154 30.7105 19.9154H26.4438V19.3385C26.4438 18.8794 26.2753 18.4392 25.9752 18.1146C25.6751 17.79 25.2682 17.6077 24.8438 17.6077C24.4195 17.6077 24.0125 17.79 23.7125 18.1146C23.4124 18.4392 23.2438 18.8794 23.2438 19.3385V19.9154H9.37725V19.3385C9.37725 18.8794 9.20865 18.4392 8.90859 18.1146C8.60853 17.79 8.20156 17.6077 7.77722 17.6077C7.35287 17.6077 6.9459 17.79 6.64585 18.1146C6.34579 18.4392 6.17722 18.8794 6.17722 19.3385V19.9154H1.91055C1.7691 19.9154 1.63345 19.8546 1.53343 19.7464C1.43341 19.6382 1.37722 19.4915 1.37722 19.3385V7.80005C1.37722 7.64704 1.43341 7.5003 1.53343 7.3921C1.63345 7.28391 1.7691 7.22313 1.91055 7.22313H30.7105C30.852 7.22313 30.9876 7.28391 31.0876 7.3921C31.1876 7.5003 31.2438 7.64704 31.2438 7.80005V19.3385Z" fill="#59C578" stroke="#59C578" strokeWidth="0.4"/>
</svg>
