<svg width="33" height="33" viewBox="0 0 33 33" fill="none" xmlns="http://www.w3.org/2000/svg">
<g id="SVG" clip-path="url(#clip0_52_840)">
<path id="Vector" d="M13.2207 18.9252C13.2207 20.3802 14.3457 21.5502 15.7257 21.5502H18.5457C19.7457 21.5502 20.7207 20.5302 20.7207 19.2552C20.7207 17.8902 20.1207 17.3952 19.2357 17.0802L14.7207 15.5052C13.8357 15.1902 13.2357 14.7102 13.2357 13.3302C13.2357 12.0702 14.2107 11.0352 15.4107 11.0352H18.2307C19.6107 11.0352 20.7357 12.2052 20.7357 13.6602" stroke="#2675FF" stroke-width="1.5" stroke-linecap="round" stroke-linejoin="round"/>
<path id="Vector_2" d="M16.9707 9.55005V23.05" stroke="#2675FF" stroke-width="1.5" stroke-linecap="round" stroke-linejoin="round"/>
<path id="Vector_3" d="M31.9707 16.3C31.9707 24.58 25.2507 31.3 16.9707 31.3C8.6907 31.3 1.9707 24.58 1.9707 16.3C1.9707 8.02005 8.6907 1.30005 16.9707 1.30005" stroke="#2675FF" stroke-width="1.5" stroke-linecap="round" stroke-linejoin="round"/>
<path id="Vector_4" d="M31.9707 7.30005V1.30005H25.9707" stroke="#2675FF" stroke-width="1.5" stroke-linecap="round" stroke-linejoin="round"/>
<path id="Vector_5" d="M24.4707 8.80005L31.9707 1.30005" stroke="#2675FF" stroke-width="1.5" stroke-linecap="round" stroke-linejoin="round"/>
</g>
<defs>
<clipPath id="clip0_52_840">
<rect width="32" height="32" fill="white" transform="translate(0.970703 0.300049)"/>
</clipPath>
</defs>
</svg>
