<svg width="35" height="31" viewBox="0 0 35 31" fill="none" xmlns="http://www.w3.org/2000/svg">
<g id="SVG">
<g id="Group">
<g id="Group_2">
<path id="Vector" d="M25.4355 25.0902C25.3593 25.0902 25.2843 25.0765 25.2105 25.049L8.96055 18.799C8.7193 18.7065 8.56055 18.474 8.56055 18.2152V10.7152C8.56055 10.4565 8.7193 10.224 8.96055 10.1315L25.2105 3.88146C25.4043 3.80646 25.618 3.83396 25.7893 3.95021C25.9593 4.06646 26.0605 4.25896 26.0605 4.46521V24.4652C26.0605 24.6715 25.9593 24.864 25.7893 24.9802C25.683 25.0527 25.5605 25.0902 25.4355 25.0902ZM9.81055 17.7852L24.8105 23.5552V5.37521L9.81055 11.1452V17.7852Z" fill="#6151FB"/>
</g>
</g>
<g id="Group_3">
<g id="Group_4">
<path id="Vector_2" d="M9.18555 18.8401H4.81055C3.4318 18.8401 2.31055 17.7188 2.31055 16.3401V12.5901C2.31055 11.2113 3.4318 10.0901 4.81055 10.0901H9.18555C9.53055 10.0901 9.81055 10.3701 9.81055 10.7151V18.2151C9.81055 18.5601 9.53055 18.8401 9.18555 18.8401ZM4.81055 11.3401C4.12055 11.3401 3.56055 11.9001 3.56055 12.5901V16.3401C3.56055 17.0301 4.12055 17.5901 4.81055 17.5901H8.56055V11.3401H4.81055Z" fill="#6151FB"/>
</g>
</g>
<g id="Group_5">
<g id="Group_6">
<path id="Vector_3" d="M11.6856 27.5901H7.93564C7.62439 27.5901 7.36064 27.3613 7.31689 27.0526L6.06689 18.3026C6.01814 17.9613 6.25564 17.6451 6.59814 17.5963C6.93314 17.5538 7.25564 17.7851 7.30439 18.1276L8.47814 26.3401H10.9856L10.1506 18.8976C10.1131 18.5551 10.3594 18.2463 10.7019 18.2063C11.0331 18.1701 11.3531 18.4151 11.3931 18.7576L12.3056 26.8951C12.3256 27.0726 12.2694 27.2488 12.1506 27.3813C12.0331 27.5138 11.8644 27.5901 11.6856 27.5901Z" fill="#6151FB"/>
</g>
</g>
<g id="Group_7">
<g id="Group_8">
<path id="Vector_4" d="M27.9354 11.34C27.7342 11.34 27.5367 11.2425 27.4154 11.0612C27.2242 10.775 27.3017 10.3862 27.5892 10.195L31.3392 7.695C31.6242 7.505 32.0129 7.58 32.2054 7.86875C32.3967 8.155 32.3192 8.54374 32.0317 8.73499L28.2817 11.235C28.1754 11.3062 28.0554 11.34 27.9354 11.34Z" fill="#6151FB"/>
</g>
</g>
<g id="Group_9">
<g id="Group_10">
<path id="Vector_5" d="M31.6851 22.5902C31.5651 22.5902 31.4451 22.5564 31.3389 22.4852L27.5889 19.9852C27.3026 19.7939 27.2239 19.4052 27.4151 19.1189C27.6076 18.8314 27.9976 18.7552 28.2814 18.9452L32.0314 21.4452C32.3176 21.6364 32.3964 22.0252 32.2051 22.3114C32.0839 22.4927 31.8864 22.5902 31.6851 22.5902Z" fill="#6151FB"/>
</g>
</g>
<g id="Group_11">
<g id="Group_12">
<path id="Vector_6" d="M31.6855 15.7151H27.9355C27.5905 15.7151 27.3105 15.4351 27.3105 15.0901C27.3105 14.7451 27.5905 14.4651 27.9355 14.4651H31.6855C32.0305 14.4651 32.3105 14.7451 32.3105 15.0901C32.3105 15.4351 32.0305 15.7151 31.6855 15.7151Z" fill="#6151FB"/>
</g>
</g>
</g>
</svg>
