<svg width="300" height="200" viewBox="0 0 300 200" fill="none" xmlns="http://www.w3.org/2000/svg">
<path d="M207.43 136.011H152.774C148.657 136.011 145.307 132.661 145.307 128.544C145.307 124.426 148.657 121.076 152.774 121.076H207.43C211.548 121.076 214.898 124.426 214.898 128.544C214.898 132.661 211.548 136.011 207.43 136.011ZM152.774 121.476C148.877 121.476 145.707 124.646 145.707 128.544C145.707 132.441 148.877 135.611 152.774 135.611H207.43C211.327 135.611 214.498 132.441 214.498 128.544C214.498 124.646 211.327 121.476 207.43 121.476H152.774Z" fill="#E7E7EA"/>
<path d="M153.804 124.597L155.085 127.31L157.954 127.612L155.691 129.475L156.369 132.49L153.804 130.929L151.239 132.49L151.917 129.475L149.654 127.612L152.522 127.31L153.804 124.597Z" fill="#FDB306"/>
<path d="M166.952 124.597L168.234 127.31L171.102 127.612L168.839 129.475L169.517 132.49L166.952 130.929L164.388 132.49L165.065 129.475L162.803 127.612L165.671 127.31L166.952 124.597Z" fill="#FDB306"/>
<path d="M180.101 124.597L181.382 127.31L184.25 127.612L181.988 129.475L182.665 132.49L180.101 130.929L177.536 132.49L178.214 129.475L175.951 127.612L178.819 127.31L180.101 124.597Z" fill="#E7E7EA"/>
<path d="M193.251 124.597L194.533 127.31L197.401 127.612L195.138 129.475L195.816 132.49L193.251 130.929L190.686 132.49L191.364 129.475L189.102 127.612L191.969 127.31L193.251 124.597Z" fill="#E7E7EA"/>
<path d="M206.4 124.597L207.681 127.31L210.549 127.612L208.286 129.475L208.964 132.49L206.4 130.929L203.835 132.49L204.513 129.475L202.25 127.612L205.118 127.31L206.4 124.597Z" fill="#E7E7EA"/>
<path d="M93.5888 23.2211H61.0562C58.6053 23.2211 56.6113 21.2271 56.6113 18.7761C56.6113 16.3251 58.6053 14.3311 61.0562 14.3311H93.5887C96.0397 14.3311 98.0337 16.3251 98.0337 18.7761C98.0337 21.2271 96.0397 23.2211 93.5888 23.2211ZM61.0562 14.5692C58.7365 14.5692 56.8494 16.4564 56.8494 18.7761C56.8494 21.0958 58.7366 22.983 61.0562 22.983H93.5887C95.9084 22.983 97.7956 21.0958 97.7956 18.7761C97.7956 16.4564 95.9084 14.5692 93.5887 14.5692H61.0562Z" fill="#E7E7EA"/>
<path d="M61.6692 16.427L62.432 18.0417L64.1391 18.2215L62.7924 19.3306L63.1956 21.1251L61.6692 20.1958L60.1426 21.1251L60.5459 19.3306L59.1992 18.2215L60.9063 18.0417L61.6692 16.427Z" fill="#FDB306"/>
<path d="M69.4953 16.427L70.2581 18.0417L71.9652 18.2215L70.6185 19.3306L71.0218 21.1251L69.4953 20.1958L67.9688 21.1251L68.3721 19.3306L67.0254 18.2215L68.7324 18.0417L69.4953 16.427Z" fill="#FDB306"/>
<path d="M77.3215 16.427L78.0844 18.0417L79.7915 18.2215L78.4447 19.3306L78.848 21.1251L77.3215 20.1958L75.795 21.1251L76.1983 19.3306L74.8516 18.2215L76.5587 18.0417L77.3215 16.427Z" fill="#FDB306"/>
<path d="M85.1497 16.427L85.9125 18.0417L87.6196 18.2215L86.2729 19.3306L86.6762 21.1251L85.1497 20.1958L83.6231 21.1251L84.0265 19.3306L82.6797 18.2215L84.3868 18.0417L85.1497 16.427Z" fill="#FDB306"/>
<path d="M92.9758 16.427L93.7387 18.0417L95.4457 18.2215L94.099 19.3306L94.5023 21.1251L92.9758 20.1958L91.4493 21.1251L91.8526 19.3306L90.5059 18.2215L92.2129 18.0417L92.9758 16.427Z" fill="#E7E7EA"/>
<path d="M200.891 92.8634H164.793C162.074 92.8634 159.861 90.6509 159.861 87.9313C159.861 85.2118 162.074 82.9993 164.793 82.9993H200.891C203.611 82.9993 205.823 85.2118 205.823 87.9313C205.823 90.6508 203.611 92.8634 200.891 92.8634ZM164.793 83.2634C162.22 83.2634 160.126 85.3574 160.126 87.9313C160.126 90.5052 162.219 92.5993 164.793 92.5993H200.891C203.465 92.5993 205.559 90.5053 205.559 87.9313C205.559 85.3574 203.465 83.2634 200.891 83.2634H164.793Z" fill="#E7E7EA"/>
<path d="M165.473 85.3248L166.32 87.1165L168.214 87.316L166.719 88.5466L167.167 90.5377L165.473 89.5066L163.779 90.5377L164.227 88.5466L162.732 87.316L164.627 87.1165L165.473 85.3248Z" fill="#FDB306"/>
<path d="M174.157 85.3248L175.003 87.1165L176.897 87.316L175.403 88.5466L175.85 90.5377L174.157 89.5066L172.463 90.5377L172.91 88.5466L171.416 87.316L173.31 87.1165L174.157 85.3248Z" fill="#FDB306"/>
<path d="M182.842 85.3248L183.689 87.1165L185.583 87.316L184.088 88.5466L184.536 90.5377L182.842 89.5066L181.148 90.5377L181.596 88.5466L180.102 87.316L181.996 87.1165L182.842 85.3248Z" fill="#FDB306"/>
<path d="M191.526 85.3248L192.372 87.1165L194.266 87.316L192.772 88.5466L193.22 90.5377L191.526 89.5066L189.832 90.5377L190.279 88.5466L188.785 87.316L190.679 87.1165L191.526 85.3248Z" fill="#E7E7EA"/>
<path d="M200.209 85.3248L201.056 87.1165L202.95 87.316L201.456 88.5466L201.903 90.5377L200.209 89.5066L198.516 90.5377L198.963 88.5466L197.469 87.316L199.363 87.1165L200.209 85.3248Z" fill="#E7E7EA"/>
<path d="M134.561 25.0931H123.397C123.319 25.0931 123.256 25.0296 123.256 24.9512V21.2361L121.147 20.2261C121.098 20.2025 121.066 20.1527 121.066 20.0981C121.066 20.0435 121.098 19.9937 121.147 19.9701L123.256 18.9602V15.0547C123.256 14.9763 123.319 14.9128 123.397 14.9128H134.561C134.639 14.9128 134.702 14.9763 134.702 15.0547V24.9512C134.702 25.0296 134.639 25.0931 134.561 25.0931ZM123.539 24.8093H134.419V15.1966H123.539V19.0496C123.539 19.1042 123.508 19.154 123.459 19.1776L121.537 20.0982L123.459 21.0188C123.508 21.0424 123.539 21.0922 123.539 21.1468V24.8093Z" fill="#E7E7EA"/>
<path d="M125.451 17.3753C127.137 15.4229 128.979 17.93 128.979 17.93C128.979 17.93 130.82 15.4229 132.506 17.3753C134.354 19.5146 128.979 23.5653 128.979 23.5653C128.979 23.5653 123.603 19.5146 125.451 17.3753Z" fill="#D94612"/>
<path d="M269.859 28.6702C269.805 28.6702 269.755 28.6388 269.731 28.5896L268.721 26.4811H264.816C264.737 26.4811 264.674 26.4176 264.674 26.3392V16.7414C264.674 16.663 264.737 16.5995 264.816 16.5995H274.712C274.791 16.5995 274.854 16.663 274.854 16.7414V26.3392C274.854 26.4176 274.791 26.4811 274.712 26.4811H270.997L269.987 28.5896C269.964 28.6389 269.914 28.6702 269.859 28.6702ZM264.958 26.1973H268.811C268.865 26.1973 268.915 26.2287 268.938 26.2779L269.859 28.1999L270.78 26.2779C270.803 26.2286 270.853 26.1973 270.908 26.1973H274.57V16.8832H264.958L264.958 26.1973Z" fill="#E7E7EA"/>
<path d="M266.734 19.415C268.182 17.7386 269.763 19.8913 269.763 19.8913C269.763 19.8913 271.345 17.7386 272.792 19.415C274.379 21.2519 269.763 24.7302 269.763 24.7302C269.763 24.7302 265.148 21.2519 266.734 19.415Z" fill="#D94612"/>
<path d="M60.3892 52.0749H49.5932C49.5051 52.0749 49.4336 52.0034 49.4336 51.9153V40.7833C49.4336 40.6952 49.5051 40.6237 49.5932 40.6237H60.3893C60.4774 40.6237 60.5489 40.6952 60.5489 40.7833V44.9622L62.9207 46.0983C62.9761 46.1248 63.0114 46.1808 63.0114 46.2423C63.0114 46.3037 62.9761 46.3597 62.9207 46.3862L60.5489 47.5222V51.9152C60.5489 52.0034 60.4774 52.0749 60.3892 52.0749ZM49.7528 51.7556H60.2297V47.4217C60.2297 47.3603 60.265 47.3043 60.3204 47.2778L62.4824 46.2423L60.3204 45.2068C60.265 45.1803 60.2297 45.1243 60.2297 45.0629V40.9431H49.7528V51.7556Z" fill="#E7E7EA"/>
<path d="M51.5843 43.9636C53.2129 42.0779 54.9915 44.4994 54.9915 44.4994C54.9915 44.4994 56.7701 42.0779 58.3987 43.9636C60.1832 46.0299 54.9915 49.9423 54.9915 49.9423C54.9915 49.9423 49.7998 46.0299 51.5843 43.9636Z" fill="#D94612"/>
<path d="M175.25 25.5246V37.944C178.175 39.4664 188.391 40.0273 190.153 39.3062C191.916 38.585 191.836 36.662 191.515 35.6204C191.956 34.9794 193.198 33.5772 192.277 31.8545C192.998 31.534 193.341 28.8899 192.609 28.2488C193.679 27.5678 194.2 24.6832 191.716 23.9621C189.232 23.2409 183.423 23.9621 183.423 23.9621C183.423 23.9621 185.167 20.6385 185.065 19.3549C184.865 16.8309 183.122 14.3983 181.56 14.9079C179.997 15.4175 181.38 18.2131 180.418 19.6754C179.847 20.5439 175.25 25.5246 175.25 25.5246Z" fill="#E7E7EA"/>
<path d="M174.021 25.5247H169.193V37.9441H174.021V25.5247Z" fill="#E7E7EA"/>
<path d="M172.779 35.8508C172.779 36.498 172.255 37.0226 171.607 37.0226C170.96 37.0226 170.436 36.4979 170.436 35.8508C170.436 35.2036 170.96 34.679 171.607 34.679C172.255 34.679 172.779 35.2036 172.779 35.8508Z" fill="#D4D4DD"/>
<path d="M29.1814 37.6407C26.7285 37.6407 23.0818 37.256 21.7366 36.5558C21.6704 36.5214 21.6289 36.453 21.6289 36.3784V28.4775C21.6289 28.4272 21.6478 28.3788 21.6819 28.3419C22.6896 27.2501 24.6694 25.0727 24.9496 24.6466C25.1867 24.286 25.165 23.7443 25.1441 23.2205C25.1154 22.5025 25.0858 21.7601 25.7811 21.5334C26.1266 21.4208 26.4987 21.4875 26.8573 21.7266C27.5985 22.2209 28.1805 23.3764 28.2726 24.5367C28.3262 25.2117 27.6945 26.5929 27.3742 27.2433C28.3605 27.1395 31.0399 26.9083 32.3598 27.2914C33.3232 27.5711 33.5624 28.2793 33.6193 28.6766C33.7019 29.2542 33.5015 29.8935 33.1505 30.2414C33.3519 30.5867 33.3627 31.1417 33.2938 31.5974C33.2596 31.8235 33.1598 32.311 32.9125 32.565C33.3643 33.5994 32.7384 34.4635 32.4301 34.8892C32.418 34.9057 32.4064 34.9218 32.3952 34.9373C32.591 35.6774 32.5793 36.9417 31.3858 37.43C31.0385 37.5722 30.2159 37.6407 29.1814 37.6407ZM22.0289 36.2538C23.9586 37.1487 30.159 37.4998 31.2343 37.0599C32.4407 36.5663 32.0356 35.122 31.9854 34.959C31.9674 34.9006 31.9772 34.8372 32.0118 34.7868C32.0391 34.7471 32.0711 34.7029 32.1061 34.6546C32.4241 34.2156 32.9564 33.4808 32.4845 32.5987C32.4583 32.5497 32.4536 32.492 32.4717 32.4394C32.4897 32.3869 32.5288 32.3441 32.5796 32.3216C32.6686 32.282 32.8263 32.0127 32.8982 31.5376C32.9774 31.0149 32.9095 30.509 32.7404 30.3611C32.693 30.3196 32.6679 30.2582 32.6727 30.1954C32.6775 30.1326 32.7116 30.0757 32.7647 30.0419C33.0505 29.86 33.303 29.2907 33.2232 28.7333C33.1705 28.3646 32.9585 27.8818 32.2482 27.6756C30.7252 27.2334 27.0894 27.6775 27.0528 27.682C26.979 27.6911 26.906 27.6586 26.8637 27.5973C26.8214 27.5361 26.8165 27.4564 26.8511 27.3906C27.1523 26.8166 27.9232 25.1906 27.8738 24.5683C27.7921 23.5385 27.2712 22.4833 26.6353 22.0593C26.3788 21.8883 26.1331 21.8393 25.9051 21.9137C25.5172 22.0402 25.5151 22.4866 25.5438 23.2046C25.5662 23.7642 25.5915 24.3985 25.2838 24.8664C24.9388 25.3911 22.4393 28.1103 22.0289 28.5558V36.2538Z" fill="#E7E7EA"/>
<path d="M21.8282 36.5784H17.9754C17.865 36.5784 17.7754 36.4888 17.7754 36.3784V28.4775C17.7754 28.3671 17.865 28.2775 17.9754 28.2775H21.8282C21.8812 28.2775 21.9321 28.2986 21.9696 28.3361C22.0071 28.3736 22.0282 28.4245 22.0282 28.4775L22.0281 36.3784C22.0282 36.4888 21.9387 36.5784 21.8282 36.5784ZM18.1754 36.1784H21.6282L21.6283 28.6775H18.1755V36.1784H18.1754Z" fill="#E7E7EA"/>
<path d="M228.04 22.6347V15.677C226.401 14.8242 220.678 14.5099 219.691 14.9139C218.703 15.3179 218.748 16.3952 218.927 16.9787C218.681 17.3378 217.985 18.1233 218.501 19.0884C218.097 19.268 217.904 20.7493 218.315 21.1084C217.715 21.49 217.424 23.1059 218.815 23.5099C220.207 23.9139 223.461 23.5099 223.461 23.5099C223.461 23.5099 222.484 25.3719 222.541 26.091C222.653 27.505 223.629 28.8678 224.505 28.5823C225.38 28.2968 224.606 26.7306 225.144 25.9114C225.464 25.425 228.04 22.6347 228.04 22.6347Z" fill="#E7E7EA"/>
<path d="M228.729 22.6346H231.434V15.6769H228.729V22.6346Z" fill="#E7E7EA"/>
<path d="M229.424 16.8499C229.424 16.4873 229.718 16.1934 230.08 16.1934C230.443 16.1934 230.737 16.4874 230.737 16.8499C230.737 17.2124 230.443 17.5064 230.08 17.5064C229.718 17.5063 229.424 17.2124 229.424 16.8499Z" fill="#D4D4DD"/>
<path d="M283.912 128.081C282.408 128.081 280.178 127.846 279.356 127.418C279.29 127.384 279.248 127.315 279.248 127.241V122.451C279.248 122.401 279.267 122.352 279.301 122.315C279.791 121.784 281.101 120.349 281.274 120.085C281.404 119.888 281.391 119.572 281.379 119.267C281.361 118.824 281.341 118.322 281.819 118.166C282.053 118.09 282.302 118.134 282.54 118.293C283.008 118.605 283.375 119.33 283.433 120.056C283.463 120.442 283.148 121.177 282.942 121.61C283.628 121.544 285.098 121.437 285.854 121.656C286.311 121.789 286.61 122.119 286.673 122.561C286.724 122.918 286.613 123.3 286.406 123.535C286.512 123.763 286.517 124.086 286.476 124.354C286.451 124.519 286.392 124.777 286.259 124.944C286.513 125.589 286.131 126.118 285.939 126.383C286.088 126.983 285.942 127.677 285.271 127.951C285.057 128.039 284.55 128.081 283.912 128.081ZM279.648 127.114C280.838 127.626 284.517 127.828 285.12 127.581C285.787 127.308 285.558 126.495 285.53 126.403C285.512 126.345 285.522 126.282 285.556 126.231C285.573 126.207 285.593 126.179 285.614 126.15C285.861 125.81 286.081 125.44 285.838 124.987C285.812 124.938 285.807 124.88 285.826 124.827C285.844 124.775 285.883 124.732 285.933 124.709C285.979 124.678 286.077 124.461 286.097 124.145C286.115 123.856 286.054 123.689 286.011 123.652C285.964 123.611 285.939 123.549 285.943 123.486C285.948 123.423 285.982 123.367 286.035 123.333C286.185 123.238 286.321 122.92 286.278 122.617C286.249 122.417 286.133 122.154 285.743 122.04C284.835 121.777 282.647 122.044 282.625 122.047C282.551 122.057 282.478 122.023 282.436 121.962C282.393 121.901 282.388 121.821 282.423 121.755C282.673 121.279 283.059 120.406 283.034 120.087C282.986 119.485 282.685 118.87 282.318 118.626C282.184 118.536 282.058 118.51 281.944 118.547C281.772 118.603 281.761 118.814 281.779 119.251C281.793 119.602 281.809 120 281.608 120.305C281.4 120.622 279.981 122.167 279.648 122.529V127.114Z" fill="#E7E7EA"/>
<path d="M279.448 127.44H277.112C277.002 127.44 276.912 127.351 276.912 127.24V122.451C276.912 122.34 277.002 122.251 277.112 122.251H279.448C279.558 122.251 279.648 122.34 279.648 122.451V127.24C279.648 127.351 279.558 127.44 279.448 127.44ZM277.312 127.04H279.248V122.651H277.312V127.04Z" fill="#E7E7EA"/>
<path d="M288.499 67.1566C288.499 66.816 288.464 66.4836 288.405 66.1596L288.407 66.1589L290.417 65.3453L289.624 63.3785L287.636 64.1848L287.631 64.1868C287.227 63.5515 286.7 63.0022 286.08 62.5779L286.907 60.6259L284.947 59.7981L284.128 61.7411C283.753 61.6605 283.365 61.6163 282.966 61.6163C282.593 61.6163 282.229 61.6543 281.877 61.7247L281.876 61.7223L281.084 59.7697L279.117 60.5691L279.916 62.5353C279.287 62.9515 278.749 63.4923 278.335 64.1224L278.332 64.1211L276.365 63.2863L275.537 65.2389L277.532 66.0809L277.533 66.0812C277.464 66.4292 277.426 66.7884 277.426 67.1563C277.426 67.5415 277.466 67.9175 277.541 68.2806L277.539 68.2812L275.516 69.109L276.308 71.0761L278.366 70.2415C278.772 70.8439 279.293 71.3622 279.897 71.7657L279.895 71.7695L279.025 73.8286L280.985 74.649L281.855 72.5845C282.214 72.6578 282.586 72.6965 282.966 72.6965C283.319 72.6965 283.664 72.6599 283.999 72.5963L283.999 72.5973L284.848 74.6775L286.815 73.878L285.973 71.8048L285.972 71.8031C286.579 71.4082 287.104 70.8997 287.515 70.3051H287.515L289.567 71.1681L290.395 69.2082L288.366 68.3528C288.451 67.9671 288.499 67.5678 288.499 67.1566ZM285.457 67.1566C285.457 68.5365 284.339 69.6472 282.966 69.6472C281.586 69.6472 280.475 68.5365 280.475 67.1566C280.475 65.7768 281.586 64.6661 282.966 64.6661C284.339 64.6661 285.457 65.7767 285.457 67.1566Z" fill="#E7E7EA"/>
<path d="M272.895 44.7212C272.895 44.5286 272.875 44.3405 272.841 44.1572L272.843 44.1568L273.979 43.6966L273.531 42.5841L272.406 43.0402L272.404 43.0414C272.175 42.682 271.877 42.3713 271.526 42.1313L271.994 41.0272L270.886 40.559L270.422 41.658C270.21 41.6124 269.99 41.5874 269.765 41.5874C269.554 41.5874 269.348 41.6089 269.149 41.6487L269.149 41.6473L268.7 40.5428L267.588 40.995L268.04 42.1072C267.684 42.3426 267.38 42.6485 267.146 43.005L267.144 43.0042L266.031 42.532L265.563 43.6365L266.691 44.1128L266.692 44.113C266.653 44.3098 266.631 44.513 266.631 44.7211C266.631 44.939 266.654 45.1517 266.696 45.3571L266.695 45.3575L265.551 45.8257L265.999 46.9384L267.163 46.4663C267.393 46.8071 267.687 47.1002 268.029 47.3285L268.028 47.3307L267.536 48.4954L268.644 48.9595L269.136 47.7917C269.34 47.8331 269.55 47.855 269.765 47.855C269.965 47.855 270.16 47.8343 270.349 47.7983L270.349 47.7989L270.83 48.9755L271.942 48.5233L271.466 47.3506L271.466 47.3496C271.809 47.1262 272.106 46.8386 272.338 46.5022H272.339L273.499 46.9904L273.967 45.8818L272.82 45.398C272.868 45.1796 272.895 44.9538 272.895 44.7212ZM271.174 44.7212C271.174 45.5018 270.541 46.13 269.765 46.13C268.985 46.13 268.356 45.5018 268.356 44.7212C268.356 43.9407 268.985 43.3125 269.765 43.3125C270.541 43.3124 271.174 43.9407 271.174 44.7212Z" fill="#E7E7EA"/>
<path d="M253.414 182H264.41C264.41 182 284.284 139.573 267.05 134.639C249.816 129.704 253.414 182 253.414 182Z" fill="#D4D4DD"/>
<path d="M259.518 182.232C259.508 182.232 259.497 182.231 259.487 182.23C259.36 182.213 259.27 182.096 259.287 181.969L264.181 144.805C264.198 144.677 264.314 144.589 264.441 144.605C264.569 144.621 264.658 144.738 264.641 144.865L259.747 182.03C259.732 182.147 259.632 182.232 259.518 182.232Z" fill="#C1C1CF"/>
<path d="M262.65 182H273.662C273.662 182 299.158 154.85 285.763 148.565C272.369 142.281 262.65 182 262.65 182Z" fill="#E7E7EA"/>
<path d="M281.606 155.9L267.398 181.9L267.749 182.092L281.957 156.092L281.606 155.9Z" fill="#D4D4DD"/>
<path d="M247.321 182H256.856C256.856 182 254.369 140.035 241.378 143.165C228.387 146.296 247.321 182 247.321 182Z" fill="#E7E7EA"/>
<path d="M244.372 152.09L243.984 152.189L251.593 182.049L251.98 181.95L244.372 152.09Z" fill="#D4D4DD"/>
<path d="M288 181.8H12V182.2H288V181.8Z" fill="#E7E7EA"/>
<path d="M158.332 182L150.729 182C150.729 182 140.431 165.197 146.222 164.382C152.013 163.567 158.332 182 158.332 182Z" fill="#D4D4DD"/>
<path d="M154.158 182.232C154.075 182.232 153.995 182.187 153.953 182.109L147.426 169.907C147.365 169.794 147.408 169.653 147.521 169.593C147.634 169.532 147.775 169.575 147.835 169.688L154.363 181.89C154.423 182.003 154.381 182.144 154.268 182.204C154.233 182.223 154.195 182.232 154.158 182.232Z" fill="#C1C1CF"/>
<path d="M154.879 182H161.776C161.776 182 170.47 169.583 164.522 168.454C158.574 167.324 154.879 182 154.879 182Z" fill="#E7E7EA"/>
<path d="M163.309 172.634L157.33 181.883L157.666 182.1L163.645 172.851L163.309 172.634Z" fill="#D4D4DD"/>
<path d="M222.853 182H214.87C214.87 182 201.409 158.348 211.74 156.626C222.07 154.904 222.853 182 222.853 182Z" fill="#D4D4DD"/>
<path d="M218.679 182.232C218.576 182.232 218.482 182.164 218.454 182.06L213.654 164.178C213.621 164.055 213.695 163.927 213.819 163.894C213.942 163.861 214.07 163.934 214.103 164.058L218.903 181.94C218.936 182.063 218.863 182.191 218.739 182.224C218.719 182.229 218.698 182.232 218.679 182.232Z" fill="#C1C1CF"/>
<path d="M219.439 182H226.918C226.918 182 235.908 166.915 229.224 164.118C222.541 161.322 219.439 182 219.439 182Z" fill="#E7E7EA"/>
<path d="M226.73 169.574L222.146 181.934L222.522 182.074L227.105 169.714L226.73 169.574Z" fill="#D4D4DD"/>
<path d="M187.27 182H194.209C194.209 182 198.696 177.965 196.87 176.765C195.044 175.565 192.288 181.148 192.288 181.148C192.288 181.148 195.461 173.214 191.913 172.929C188.365 172.644 190.244 181.148 190.244 181.148C190.244 181.148 188.365 175.774 186.278 177.026C184.191 178.278 187.27 182 187.27 182Z" fill="#E7E7EA"/>
<path d="M17.5479 182H23.3546C23.3546 182 29.0261 178.087 26.4696 176.409C23.9131 174.731 21.0957 180.313 21.0957 180.313C21.0957 180.313 22.4001 170.43 17.6001 171.369C12.8001 172.308 17.5479 182 17.5479 182Z" fill="#E7E7EA"/>
<path d="M282.592 182H286.035C286.035 182 289.218 177.027 286.713 176.713C284.209 176.4 282.592 182 282.592 182Z" fill="#E7E7EA"/>
<path d="M136.257 182H138.957C138.957 182 138.136 177.579 136.61 177.727C135.083 177.874 136.257 182 136.257 182Z" fill="#E7E7EA"/>
<path d="M80.9506 76.6628L80.5679 76.5466C83.696 66.2488 81.8372 54.3521 75.7168 45.4993L76.0458 45.2719C79.1032 49.6943 81.1723 54.9309 82.0292 60.4156C82.8863 65.9003 82.5133 71.5186 80.9506 76.6628Z" fill="#E7E7EA"/>
<path d="M77.9418 48.7642C77.9418 48.7642 77.5248 39.0384 73.3727 41.021C69.2206 43.0035 77.9418 48.7642 77.9418 48.7642Z" fill="#E7E7EA"/>
<path d="M80.2637 54.1284C80.2637 54.1284 87.1005 48.58 84.2713 46.8967C81.442 45.2134 80.2637 54.1284 80.2637 54.1284Z" fill="#E7E7EA"/>
<path d="M81.8516 60.5793C81.8516 60.5793 89.5936 59.3866 87.011 56.3153C85.1195 54.0659 81.8516 60.5793 81.8516 60.5793Z" fill="#E7E7EA"/>
<path d="M80.2622 54.1284C80.2622 54.1284 71.5379 55.4677 72.5853 52.2133C73.6327 48.9589 80.2622 54.1284 80.2622 54.1284Z" fill="#E7E7EA"/>
<path d="M81.8512 60.5792C81.8512 60.5792 74.0388 62.087 74.3323 58.8588C74.6544 55.3159 81.8512 60.5792 81.8512 60.5792Z" fill="#E7E7EA"/>
<path d="M98.1547 120.023L97.7891 119.86C103.296 107.453 114.285 97.5196 127.184 93.2893L127.309 93.6694C114.515 97.8649 103.617 107.717 98.1547 120.023Z" fill="#E7E7EA"/>
<path d="M120.711 96.1862C120.711 96.1862 128.708 86.7911 131.124 92.6326C132.845 96.7916 120.711 96.1862 120.711 96.1862Z" fill="#E7E7EA"/>
<path d="M114.84 99.6841C114.84 99.6841 110.678 91.6807 114.84 91.0491C119.001 90.4175 114.84 99.6841 114.84 99.6841Z" fill="#E7E7EA"/>
<path d="M107.732 105.676C107.732 105.676 102.186 97.5724 107.012 96.217C111.839 94.8615 107.732 105.676 107.732 105.676Z" fill="#E7E7EA"/>
<path d="M114.838 99.6841C114.838 99.6841 123.987 97.1057 123.45 100.609C122.912 104.113 114.838 99.6841 114.838 99.6841Z" fill="#E7E7EA"/>
<path d="M107.73 105.676C107.73 105.676 116.464 102.116 116.272 105.676C116.081 109.237 107.73 105.676 107.73 105.676Z" fill="#E7E7EA"/>
<path d="M32.8584 171.044C30.3335 171.044 27.8301 170.763 25.416 170.2L25.5068 169.81C35.2593 172.084 46.1555 169.586 53.944 163.292L54.1954 163.603C50.3067 166.746 45.59 169.017 40.5551 170.171C38.0165 170.753 35.4263 171.044 32.8584 171.044Z" fill="#E7E7EA"/>
<path d="M30.957 170.792C30.957 170.792 23.1309 164.139 21.7222 168.6C20.3135 173.061 30.957 170.792 30.957 170.792Z" fill="#E7E7EA"/>
<path d="M37.944 170.462C37.944 170.462 29.7758 165.626 33.1449 163.904C36.514 162.183 37.944 170.462 37.944 170.462Z" fill="#E7E7EA"/>
<path d="M44.4181 168.833C44.4181 168.833 35.6535 163.219 39.4883 161.957C43.323 160.696 44.4181 168.833 44.4181 168.833Z" fill="#E7E7EA"/>
<path d="M37.9428 170.462C37.9428 170.462 36.9339 178.696 33.3972 176.661C29.8607 174.626 37.9428 170.462 37.9428 170.462Z" fill="#E7E7EA"/>
<path d="M44.417 168.833C44.417 168.833 46.7654 177.913 43.1654 176.191C39.5654 174.47 44.417 168.833 44.417 168.833Z" fill="#E7E7EA"/>
<path d="M120.415 170.117C119.116 170.117 117.812 170.018 116.526 169.82C113.206 169.31 109.977 168.134 107.188 166.42L107.397 166.079C113.031 169.541 119.942 170.604 126.357 168.995L126.454 169.383C124.509 169.871 122.468 170.117 120.415 170.117Z" fill="#E7E7EA"/>
<path d="M124.473 169.589C124.473 169.589 132.538 170.244 131.129 166.878C129.721 163.513 124.473 169.589 124.473 169.589Z" fill="#E7E7EA"/>
<path d="M118.094 169.641C118.094 169.641 119.313 163.112 121.896 164.252C124.478 165.391 118.094 169.641 118.094 169.641Z" fill="#E7E7EA"/>
<path d="M118.093 169.641C118.093 169.641 117.825 176.295 121.112 175.108C124.399 173.922 118.093 169.641 118.093 169.641Z" fill="#E7E7EA"/>
<path d="M46.7442 102.035C40.1451 98.0171 34.1716 92.5282 29.4693 86.1619C24.767 79.7955 21.2771 72.4721 19.377 64.9833L19.7647 64.885C23.6276 80.109 33.5371 93.5253 46.9523 101.694L46.7442 102.035Z" fill="#E7E7EA"/>
<path d="M21.2488 70.4056C21.2488 70.4056 13.6321 61.6686 18.762 59.9657C23.8919 58.2627 21.2488 70.4056 21.2488 70.4056Z" fill="#E7E7EA"/>
<path d="M24.8461 78.4797C24.8461 78.4797 24.1877 66.9518 27.8896 68.6045C31.5916 70.2571 24.8461 78.4797 24.8461 78.4797Z" fill="#E7E7EA"/>
<path d="M28.4181 84.0617C28.4181 84.0617 28.3329 72.9226 32.0349 74.9217C35.7368 76.9208 28.4181 84.0617 28.4181 84.0617Z" fill="#E7E7EA"/>
<path d="M32.7034 89.8761C32.7034 89.8761 32.0515 78.6237 35.9305 80.8448C39.8094 83.066 32.7034 89.8761 32.7034 89.8761Z" fill="#E7E7EA"/>
<path d="M24.8459 78.4797C24.8459 78.4797 17.0797 70.5775 15.8951 75.4821C14.7105 80.3867 24.8459 78.4797 24.8459 78.4797Z" fill="#E7E7EA"/>
<path d="M28.4195 84.0617C28.4195 84.0617 21.7147 90.0689 20.323 86.5304C18.9313 82.992 28.4195 84.0617 28.4195 84.0617Z" fill="#E7E7EA"/>
<path d="M32.7047 89.876C32.7047 89.876 29.1491 97.6619 26.2615 94.5101C23.374 91.3583 32.7047 89.876 32.7047 89.876Z" fill="#E7E7EA"/>
<path d="M59.2876 164.223C49.7307 164.552 40.094 162.086 31.8701 157.206C23.6462 152.326 16.8634 145.05 12.5723 136.504C21.8557 134.526 30.9039 137.288 38.714 142.682C46.5241 148.076 53.2098 156.932 59.2876 164.223Z" fill="#D4D4DD"/>
<path d="M53.9885 160.742C53.9477 160.742 53.9063 160.732 53.8688 160.709L19.7471 140.131C19.6373 140.065 19.602 139.923 19.6682 139.813C19.7344 139.703 19.8771 139.668 19.9869 139.734L54.1086 160.311C54.2184 160.378 54.2537 160.52 54.1875 160.63C54.1438 160.702 54.0671 160.742 53.9885 160.742Z" fill="#C1C1CF"/>
<path d="M55.3931 156.296C44.2081 152.598 34.2337 145.329 27.2865 135.815C20.3393 126.301 16.4532 114.587 16.3359 102.807C37.2668 112.389 50.4979 133.803 55.3931 156.296Z" fill="#E7E7EA"/>
<path d="M51.4086 152.004C41.5793 139.368 32.0844 126.215 23.1875 112.908L23.52 112.686C32.4116 125.984 41.9009 139.13 51.7243 151.758L51.4086 152.004Z" fill="#D4D4DD"/>
<path d="M98.7266 160.638C102.072 154.59 107.507 149.723 113.886 147.061C120.265 144.4 127.547 143.961 134.199 145.837C124.767 159.946 111.192 163.114 98.7266 160.638Z" fill="#D4D4DD"/>
<path d="M103.738 159.462C103.635 159.462 103.541 159.393 103.514 159.289C103.481 159.165 103.555 159.038 103.679 159.005C112.039 156.802 120.003 153.374 127.349 148.814C127.458 148.747 127.601 148.78 127.669 148.889C127.736 148.998 127.703 149.141 127.594 149.209C120.209 153.792 112.202 157.24 103.797 159.454C103.777 159.459 103.757 159.462 103.738 159.462Z" fill="#C1C1CF"/>
<path d="M101.801 157.446C102.785 148.91 106.289 140.681 111.76 134.055C117.231 127.43 124.649 122.433 132.845 119.853C132.072 128.539 128.478 137.447 122.97 144.209C117.463 150.971 110.151 154.93 101.801 157.446Z" fill="#E7E7EA"/>
<path d="M104.686 154.76L104.406 154.474C112.97 146.122 120.479 136.714 126.724 126.512L127.065 126.721C120.802 136.951 113.273 146.385 104.686 154.76Z" fill="#D4D4DD"/>
<path d="M44.3982 62.3763H41.8479C36.0792 62.3763 29.3147 67.0528 30.3742 72.8214L48.5081 171.555C49.5677 177.324 55.1031 182 60.8717 182H67.7059L44.3982 62.3763Z" fill="#2C2F37"/>
<path d="M107.57 180.965H63.6284C57.8597 180.965 52.3244 176.288 51.2648 170.519L33.3211 72.8214C32.2616 67.0527 36.0791 62.3763 41.8478 62.3763H85.7894C91.5581 62.3763 97.0934 67.0527 98.1529 72.8214L116.097 170.519C117.156 176.288 113.339 180.965 107.57 180.965Z" fill="white"/>
<path d="M86.0434 63.7571H42.1018C36.3331 63.7571 32.5155 68.4335 33.575 74.2022L50.9482 168.794C52.0077 174.562 57.5431 179.239 63.3118 179.239H107.253C113.022 179.239 116.84 174.562 115.78 168.794L98.4069 74.2022C97.3474 68.4335 91.812 63.7571 86.0434 63.7571ZM113.709 168.794C114.558 173.419 111.498 177.168 106.873 177.168H62.9314C58.3065 177.168 53.8686 173.418 53.0192 168.794L35.6461 74.2022C34.7967 69.5773 37.8573 65.8281 42.4823 65.8281H46.2314C46.6578 65.8281 47.064 66.1457 47.2081 66.5669C47.9728 68.8018 50.2222 70.5104 52.5567 70.5104H78.0692C80.4038 70.5104 82.0256 68.8018 81.9694 66.5669C81.9588 66.1458 82.2483 65.8281 82.6746 65.8281H86.4237C91.0486 65.8281 95.4865 69.5773 96.3359 74.2022L113.709 168.794Z" fill="#E7E7EA"/>
<path d="M39.3066 69.1297H46.2851L45.8551 66.7886L39.2012 68.5557L39.3066 69.1297Z" fill="#E7E7EA"/>
<path d="M85.1971 67.9141C85.2671 68.2954 85.0148 68.6044 84.6335 68.6044C84.2522 68.6044 83.8864 68.2954 83.8164 67.9141C83.7464 67.5329 83.9987 67.2238 84.38 67.2238C84.7612 67.2238 85.127 67.5329 85.1971 67.9141Z" fill="#E7E7EA"/>
<path d="M87.6463 67.9141C87.7163 68.2954 87.464 68.6044 87.0827 68.6044C86.7015 68.6044 86.3356 68.2954 86.2656 67.9141C86.1956 67.5329 86.4479 67.2238 86.8291 67.2238C87.2104 67.2238 87.5762 67.5329 87.6463 67.9141Z" fill="#E7E7EA"/>
<path d="M90.0974 67.9141C90.1674 68.2954 89.915 68.6044 89.5338 68.6044C89.1526 68.6044 88.7867 68.2954 88.7167 67.9141C88.6467 67.5329 88.899 67.2238 89.2803 67.2238C89.6616 67.2238 90.0273 67.5329 90.0974 67.9141Z" fill="#E7E7EA"/>
<path d="M85.7894 62.3763H41.8478C36.0791 62.3763 32.2615 67.0528 33.3211 72.8214L51.455 171.555C52.5145 177.324 58.0499 182 63.8186 182H107.76C113.529 182 117.346 177.324 116.287 171.555L98.1529 72.8214C97.0934 67.0528 91.558 62.3763 85.7894 62.3763ZM114.026 170.519C114.874 175.137 111.807 178.894 107.19 178.894H63.248C58.6305 178.894 54.1839 175.137 53.3358 170.519L35.3921 72.8214C34.544 68.204 37.6107 64.4473 42.2282 64.4473H47.4507C47.9257 67.0332 50.4071 69.1296 52.993 69.1296H77.1248C79.7107 69.1296 81.422 67.0333 80.947 64.4474L86.1696 64.4473C90.7871 64.4473 95.2336 68.2039 96.0817 72.8214L114.026 170.519Z" fill="#41444D"/>
<path d="M104.073 105.057L100.129 83.5818C100.95 83.5818 101.737 84.247 101.888 85.0675L105.286 103.572C105.437 104.392 104.894 105.057 104.073 105.057Z" fill="#2C2F37"/>
<path d="M34.9006 97.4937C34.08 97.4937 33.2927 96.8285 33.142 96.0079L31.1326 85.0675C30.9818 84.247 31.5249 83.5818 32.3455 83.5818L34.9006 97.4937Z" fill="#2C2F37"/>
<path d="M37.8283 113.431C37.0077 113.431 36.2204 112.766 36.0697 111.946L34.0603 101.005C33.9096 100.185 34.4526 99.5197 35.2732 99.5197L37.8283 113.431Z" fill="#2C2F37"/>
<path d="M51.8318 66.5709C51.9018 66.9522 51.6495 67.2613 51.2682 67.2613C50.887 67.2613 50.5211 66.9522 50.4511 66.5709C50.3811 66.1897 50.6334 65.8806 51.0146 65.8806C51.3959 65.8806 51.7617 66.1896 51.8318 66.5709Z" fill="#60636B"/>
<path d="M55.074 66.5709C55.144 66.9522 54.8917 67.2613 54.5104 67.2613C54.1292 67.2613 53.7633 66.9522 53.6933 66.5709C53.6233 66.1897 53.8756 65.8806 54.2568 65.8806C54.6381 65.8806 55.0039 66.1896 55.074 66.5709Z" fill="#60636B"/>
<path d="M77.3658 67.2612H58.7117C58.3304 67.2612 57.9646 66.9521 57.8945 66.5708C57.8245 66.1896 58.0768 65.8805 58.4581 65.8805H77.1123C77.4935 65.8805 77.8594 66.1896 77.9294 66.5708C77.9994 66.9522 77.7471 67.2612 77.3658 67.2612Z" fill="#60636B"/>
<path d="M64.6552 137.098H57.7829C56.2279 137.098 54.7403 135.837 54.4604 134.282L44.7587 80.3942C44.4787 78.8392 45.5124 77.5786 47.0674 77.5786H53.9398C55.4948 77.5786 56.9824 78.8392 57.2623 80.3942L66.964 134.282C67.2439 135.837 66.2102 137.098 64.6552 137.098Z" fill="white"/>
<path d="M64.656 137.27H57.7836C56.1518 137.27 54.5854 135.943 54.2917 134.312L44.59 80.4247C44.4439 79.6131 44.6274 78.8504 45.1067 78.277C45.576 77.7157 46.2725 77.4065 47.068 77.4065H53.9404C55.5722 77.4065 57.1386 78.7331 57.4322 80.3637L67.1339 134.251C67.28 135.063 67.0965 135.826 66.6172 136.399C66.148 136.96 65.4515 137.27 64.656 137.27ZM47.0681 77.7506C46.3763 77.7506 45.7736 78.0159 45.3708 78.4977C44.958 78.9915 44.801 79.6541 44.9288 80.3637L54.6305 134.251C54.896 135.726 56.3105 136.925 57.7837 136.925H64.6561C65.3479 136.925 65.9506 136.66 66.3534 136.178C66.7662 135.685 66.9232 135.022 66.7954 134.312L57.0937 80.4246C56.8282 78.9501 55.4137 77.7505 53.9405 77.7505L47.0681 77.7506Z" fill="#E7E7EA"/>
<path d="M59.3233 126.565L60.8459 128.898L63.3597 129.158L61.7021 130.761L62.7517 133.354L60.3039 132.011L58.3396 133.354L58.4555 130.761L56.2207 129.158L58.641 128.898L59.3233 126.565Z" fill="#E7E7EA"/>
<path d="M57.2881 115.254L58.8107 117.588L61.3245 117.848L59.6668 119.45L60.7167 122.044L58.2688 120.701L56.3044 122.044L56.4203 119.45L54.1855 117.848L56.6058 117.588L57.2881 115.254Z" fill="#E7E7EA"/>
<path d="M55.251 103.943L56.7735 106.277L59.2874 106.537L57.6296 108.14L58.6794 110.733L56.2316 109.39L54.2673 110.733L54.3832 108.14L52.1484 106.537L54.5686 106.277L55.251 103.943Z" fill="#E7E7EA"/>
<path d="M53.2159 92.6324L54.7385 94.966L57.2523 95.2258L55.5946 96.8286L56.6443 99.422L54.1965 98.079L52.2322 99.422L52.3481 96.8286L50.1133 95.2258L52.5336 94.966L53.2159 92.6324Z" fill="#FDB306"/>
<path d="M51.1788 81.3217L52.7013 83.6553L55.2152 83.9151L53.5575 85.5179L54.6072 88.1113L52.1594 86.7683L50.1951 88.1113L50.311 85.5179L48.0762 83.9151L50.4964 83.6553L51.1788 81.3217Z" fill="#FDB306"/>
<path d="M109.47 177.052C109.47 178.126 108.6 178.996 107.526 178.996C106.452 178.996 105.582 178.126 105.582 177.052C105.582 175.979 106.452 175.109 107.526 175.109C108.6 175.109 109.47 175.979 109.47 177.052Z" fill="#E28056"/>
<path d="M111.225 93.5698C113.525 103.036 116.397 131.471 115.579 140.007C114.954 146.526 110.696 170.578 109.387 177.618L105.635 176.612C106.649 163.046 103.523 150.634 108.345 140.185C104.952 130.541 101.023 113.841 100.576 109.287V94.1056L111.225 93.5698Z" fill="#E28056"/>
<path d="M113.912 140.76C113.405 140.76 112.898 140.639 112.446 140.396C112.384 140.362 112.361 140.284 112.394 140.222C112.428 140.159 112.506 140.136 112.568 140.17C113.45 140.645 114.61 140.6 115.453 140.058C115.512 140.02 115.592 140.037 115.63 140.097C115.668 140.157 115.651 140.236 115.591 140.274C115.09 140.597 114.501 140.76 113.912 140.76Z" fill="#AF4E24"/>
<path d="M62.8918 148.565C62.8918 149.639 62.0215 150.509 60.9479 150.509C59.8743 150.509 59.0039 149.639 59.0039 148.565C59.0039 147.492 59.8743 146.621 60.9479 146.621C62.0215 146.621 62.8918 147.492 62.8918 148.565Z" fill="#E28056"/>
<path d="M106.113 94.6414L105.449 110.537C104.059 120.271 98.2541 138.578 95.6644 139.917C93.0747 141.257 65.4899 149.23 61.6453 150.378L60.2031 146.77C73.9642 140.989 82.0013 133.041 90.8422 133.398C90.6636 125.451 87.9845 100.625 94.3696 93.5698L106.113 94.6414Z" fill="#E28056"/>
<path d="M91.6594 136.512C91.6092 136.512 91.5616 136.483 91.5409 136.433C91.0993 135.379 90.8183 134.268 90.7057 133.131C90.6987 133.06 90.7502 132.997 90.8208 132.99C90.8922 132.984 90.9542 133.035 90.9612 133.105C91.0713 134.217 91.3461 135.304 91.7777 136.334C91.8051 136.4 91.7743 136.475 91.7089 136.502C91.6927 136.509 91.6759 136.512 91.6594 136.512Z" fill="#AF4E24"/>
<path d="M117.972 131.709C113.04 135.013 94.6842 136.351 88.5738 131.439C87.2216 119.831 87.0848 101.944 94.3694 93.5713C97.4948 96.1593 108.391 96.1148 111.225 93.5713C114.826 100.609 118.845 118.225 117.972 131.709Z" fill="#2C2F37"/>
<path d="M103.376 98.8325C102.82 98.8325 102.249 98.8201 101.666 98.7951C97.5487 98.6183 93.5891 97.8202 92.2508 96.8972C92.1925 96.857 92.1777 96.777 92.218 96.7186C92.2583 96.6603 92.3382 96.6455 92.3966 96.6858C93.6996 97.5844 97.6026 98.3636 101.677 98.5385C106.548 98.7475 110.514 98.0722 112.557 96.6853C112.615 96.6456 112.695 96.6608 112.735 96.7194C112.775 96.7781 112.76 96.8579 112.701 96.8977C110.86 98.147 107.516 98.8325 103.376 98.8325Z" fill="#60636B"/>
<path d="M92.9903 133.658C92.9329 133.658 92.8806 133.619 92.8659 133.561C89.2863 119.378 91.7477 103.748 94.5383 97.6506C94.5678 97.5862 94.644 97.5578 94.7085 97.5873C94.7729 97.6168 94.8013 97.6931 94.7718 97.7576C91.9963 103.822 89.5503 119.375 93.1148 133.498C93.1321 133.567 93.0905 133.637 93.0217 133.654C93.0113 133.657 93.0007 133.658 92.9903 133.658Z" fill="#60636B"/>
<path d="M92.1458 106.993C92.0796 106.993 92.0234 106.942 92.018 106.875C92.0123 106.804 92.065 106.742 92.1357 106.736C96.185 106.411 98.026 103.915 98.2916 98.3909C98.295 98.32 98.3549 98.2654 98.426 98.2688C98.4968 98.2722 98.5515 98.3324 98.5481 98.4032C98.2749 104.085 96.3634 106.654 92.1563 106.992C92.1528 106.993 92.1493 106.993 92.1458 106.993Z" fill="#60636B"/>
<path d="M102.476 131.502C102.443 131.502 102.411 131.489 102.386 131.465C102.335 131.415 102.335 131.334 102.385 131.283C104.635 129.005 107.54 116.384 108.466 110.257C108.477 110.187 108.543 110.138 108.612 110.149C108.682 110.16 108.731 110.225 108.72 110.295C107.763 116.626 104.889 129.114 102.567 131.464C102.542 131.489 102.509 131.502 102.476 131.502Z" fill="#60636B"/>
<path d="M108.593 131.033C108.562 131.033 108.532 131.022 108.507 131C108.454 130.952 108.45 130.871 108.498 130.819C109.765 129.419 110.219 124.347 110.011 120.061C110.008 119.99 110.062 119.93 110.133 119.926C110.203 119.922 110.264 119.977 110.268 120.048C110.471 124.254 110.064 129.472 108.688 130.991C108.663 131.019 108.628 131.033 108.593 131.033Z" fill="#60636B"/>
<path d="M104.012 182H119.667C119.667 180.38 118.889 179.683 117.415 179.254C115.94 178.825 112.027 177.619 111.303 176.439C111.757 175.366 111.578 173.454 110.307 173.454C108.941 173.454 108.782 175.459 108.702 175.727C108.621 175.996 108.119 176.515 107.18 176.515C105.331 176.515 106.055 174.316 105.207 174.316C103.878 174.316 104.012 179.492 104.012 182Z" fill="#2C2F37"/>
<path d="M119.668 182H104.013C104.013 181.702 104.013 181.384 104.01 181.052H119.551C119.63 181.326 119.668 181.641 119.668 182Z" fill="#79797D"/>
<path d="M107.18 181.18C107.109 181.18 107.052 181.123 107.052 181.052C107.052 179.058 105.51 178.347 104.068 178.347C103.997 178.347 103.939 178.29 103.939 178.219C103.939 178.148 103.997 178.09 104.068 178.09C105.563 178.09 107.308 178.866 107.308 181.052C107.308 181.123 107.251 181.18 107.18 181.18Z" fill="#79797D"/>
<path d="M110.13 178.133C110.106 178.133 110.081 178.126 110.059 178.111C110 178.071 109.984 177.992 110.024 177.933C110.401 177.372 110.918 176.911 111.518 176.599C111.581 176.567 111.658 176.591 111.691 176.654C111.724 176.717 111.699 176.794 111.636 176.827C111.074 177.119 110.59 177.551 110.237 178.076C110.212 178.113 110.171 178.133 110.13 178.133Z" fill="#79797D"/>
<path d="M111.329 178.812C111.307 178.812 111.284 178.806 111.263 178.793C111.202 178.756 111.183 178.678 111.22 178.617C111.549 178.077 112.016 177.631 112.571 177.326C112.633 177.292 112.711 177.315 112.746 177.377C112.78 177.439 112.757 177.517 112.695 177.551C112.179 177.834 111.745 178.249 111.439 178.751C111.415 178.79 111.373 178.812 111.329 178.812Z" fill="#79797D"/>
<path d="M112.695 179.309C112.669 179.309 112.642 179.301 112.619 179.284C112.562 179.243 112.549 179.162 112.591 179.105C112.912 178.662 113.281 178.252 113.686 177.886C113.739 177.839 113.82 177.843 113.868 177.896C113.915 177.948 113.911 178.029 113.858 178.077C113.466 178.431 113.109 178.828 112.799 179.256C112.774 179.29 112.734 179.309 112.695 179.309Z" fill="#79797D"/>
<path d="M54.4688 147.188L59.662 161.956C61.1904 161.419 61.59 160.454 61.5055 158.921C61.421 157.388 61.2607 153.296 62.1333 152.222C63.2956 152.294 65.0409 151.491 64.6192 150.292C64.166 149.003 62.2212 149.519 61.9416 149.532C61.662 149.545 61.0055 149.243 60.6943 148.358C60.0807 146.613 62.3954 146.566 62.1143 145.767C61.6732 144.512 56.8347 146.356 54.4688 147.188Z" fill="#2C2F37"/>
<path d="M59.6618 161.957L54.4688 147.189C54.7497 147.09 55.05 146.985 55.3621 146.871L60.5177 161.533C60.2854 161.698 60.0008 161.838 59.6618 161.957Z" fill="#79797D"/>
<path d="M56.4136 149.992C56.3606 149.992 56.3111 149.959 56.2925 149.906C56.269 149.839 56.3041 149.766 56.371 149.742C57.2207 149.443 57.7769 148.92 58.0242 148.187C58.2348 147.562 58.2022 146.796 57.9327 146.03C57.9092 145.963 57.9443 145.89 58.0112 145.866C58.078 145.843 58.1514 145.878 58.1749 145.945C58.4634 146.765 58.4962 147.59 58.2675 148.269C57.9975 149.069 57.3712 149.662 56.4562 149.984C56.4421 149.989 56.4277 149.992 56.4136 149.992Z" fill="#79797D"/>
<path d="M61.9653 152.701C61.9338 152.701 61.9023 152.689 61.8775 152.666C61.4157 152.233 60.8477 151.919 60.2348 151.76C60.1662 151.742 60.125 151.672 60.1429 151.603C60.1607 151.535 60.2307 151.493 60.2994 151.511C60.9537 151.682 61.5601 152.016 62.0532 152.479C62.1049 152.527 62.1075 152.608 62.059 152.66C62.0337 152.687 61.9995 152.701 61.9653 152.701Z" fill="#79797D"/>
<path d="M61.6317 153.937C61.6012 153.937 61.5706 153.926 61.546 153.904C61.1082 153.512 60.573 153.24 59.9982 153.118C59.9288 153.103 59.8846 153.035 59.8993 152.966C59.9141 152.896 59.9824 152.852 60.0515 152.867C60.6701 152.998 61.2462 153.291 61.7174 153.713C61.7702 153.761 61.7746 153.842 61.7273 153.895C61.702 153.923 61.6669 153.937 61.6317 153.937Z" fill="#79797D"/>
<path d="M61.4974 155.191C61.4767 155.191 61.4556 155.186 61.4361 155.176C60.9717 154.923 60.4794 154.718 59.9726 154.567C59.9046 154.547 59.866 154.475 59.8862 154.407C59.9065 154.339 59.9781 154.301 60.0459 154.321C60.5698 154.477 61.0789 154.689 61.559 154.95C61.6212 154.984 61.6442 155.062 61.6103 155.124C61.5869 155.167 61.5428 155.191 61.4974 155.191Z" fill="#79797D"/>
<path d="M133.154 69.1595L133.849 70.7065C133.849 70.7065 133.215 72.5533 133.117 72.534C132.585 72.4295 132.882 71.1825 132.882 71.1825C132.769 71.0073 132.364 70.205 132.338 69.933C132.313 69.6611 133.154 69.1595 133.154 69.1595Z" fill="#E28056"/>
<path d="M133.647 68.5135L134.514 70.0776C134.514 70.0776 134.175 72.3275 134.046 72.2961C133.447 72.15 133.528 70.9531 133.553 70.8426C133.443 70.6726 132.992 69.5675 132.992 69.2445L133.647 68.5135Z" fill="#E28056"/>
<path d="M133.978 67.7061C134.106 67.9271 135.007 69.7206 135.041 69.8906C135.075 70.0606 135.029 71.3169 134.854 71.2762C134.315 71.1513 134.276 70.0267 134.276 70.0267C134.063 69.8652 133.383 68.8961 133.324 68.7347C133.264 68.5731 133.978 67.7061 133.978 67.7061Z" fill="#E28056"/>
<path d="M130.426 67.8974C130.732 67.6722 133.46 66.7966 133.707 66.8476C133.953 66.8986 135.914 68.8427 135.798 68.9472C135.177 69.5068 133.979 68.3012 133.979 68.3012L131.65 69.8908L130.426 67.8974Z" fill="#E28056"/>
<path d="M130.005 73.5968C129.317 73.4566 128.229 72.2699 128.331 71.6706C128.433 71.0713 130.209 68.0503 130.426 67.8974C130.643 67.7444 131.905 69.4657 132.045 69.8864C132.186 70.3072 130.005 73.5968 130.005 73.5968Z" fill="#E28056"/>
<path d="M125.851 55.8374L133.095 53.3793L134.273 45.9026C134.485 44.5569 136.206 44.1222 137.032 45.2059L141.618 51.2272L149.161 49.9519C150.52 49.722 151.479 51.2514 150.679 52.3749L146.164 58.718L149.635 65.1901C150.283 66.3981 149.156 67.7898 147.84 67.4073L140.642 65.3161L135.3 70.5735C134.323 71.5351 132.671 70.8451 132.668 69.4743L132.65 62.1301L125.665 58.6909C124.427 58.0817 124.545 56.2806 125.851 55.8374Z" fill="#FDB306"/>
<g opacity="0.3">
<path d="M125.664 58.6902L132.65 62.1316L132.667 69.4728C132.672 70.8457 134.322 71.5357 135.3 70.572L140.643 65.3154L147.841 67.4054C149.156 67.7902 150.283 66.399 149.637 65.1879L148.454 62.9847C142.4 62.3525 132.036 58.9011 129.682 54.5372L125.852 55.8382C124.544 56.2799 124.428 58.0803 125.664 58.6902Z" fill="#FDB306"/>
</g>
<path d="M130.005 73.5968C131.124 73.6497 132.635 72.7532 133.218 70.1287C133.437 69.3629 134.54 67.9363 134.147 67.6012C133.659 67.1851 132.073 69.5847 131.835 69.6442C131.733 69.6697 131.497 69.6633 131.497 69.6633C130.624 70.2179 129.565 72.3664 130.005 73.5968Z" fill="#E28056"/>
<path d="M132.752 71.5611C132.728 71.5611 132.705 71.5556 132.683 71.544C132.611 71.506 132.584 71.4171 132.622 71.3454C132.822 70.9683 132.974 70.5482 133.074 70.0968C133.161 69.7913 133.36 69.4229 133.57 69.0329C133.809 68.5897 134.209 67.8478 134.051 67.713C134.041 67.7047 134.028 67.6973 133.998 67.7002C133.668 67.7291 132.947 68.6013 132.517 69.1224C132.099 69.6276 131.981 69.7588 131.87 69.7867C131.754 69.8156 131.535 69.8114 131.492 69.8101C131.411 69.8079 131.347 69.7404 131.35 69.6593C131.352 69.5782 131.42 69.514 131.5 69.5164C131.585 69.5186 131.725 69.5161 131.788 69.504C131.863 69.4531 132.09 69.1784 132.29 68.9352C132.963 68.121 133.554 67.4442 133.973 67.4075C134.075 67.3984 134.168 67.4268 134.242 67.4893C134.581 67.7782 134.232 68.4243 133.829 69.1723C133.635 69.5313 133.435 69.9026 133.359 70.1689C133.255 70.6376 133.094 71.0825 132.882 71.483C132.855 71.5327 132.804 71.5611 132.752 71.5611Z" fill="#BA4E24"/>
<path d="M114.232 69.8749C115.307 71.4302 114.917 73.5624 113.362 74.6373C111.807 75.7122 109.675 75.3228 108.6 73.7675C107.525 72.2122 107.914 70.08 109.469 69.0051C111.025 67.9302 113.157 68.3196 114.232 69.8749Z" fill="#E28056"/>
<path d="M122.964 83.8293C123.824 85.0735 123.513 86.7793 122.269 87.6392C121.024 88.4991 119.319 88.1875 118.459 86.9433C117.599 85.6991 117.91 83.9933 119.154 83.1334C120.399 82.2734 122.104 82.5851 122.964 83.8293Z" fill="#E28056"/>
<path d="M114.232 69.875L122.965 83.8293L118.459 86.9434L108.6 73.7676L114.232 69.875Z" fill="#E28056"/>
<path d="M128.333 71.6705C128.879 70.8992 129.948 70.717 130.719 71.2635C131.49 71.81 131.672 72.8783 131.126 73.6496C130.579 74.4209 129.511 74.6032 128.74 74.0566C127.968 73.5101 127.786 72.4418 128.333 71.6705Z" fill="#E28056"/>
<path d="M118.477 83.8029C119.351 82.5688 121.061 82.2772 122.295 83.1516C123.529 84.026 123.82 85.7353 122.946 86.9694C122.072 88.2035 120.362 88.4951 119.128 87.6207C117.894 86.7463 117.603 85.037 118.477 83.8029Z" fill="#E28056"/>
<path d="M118.477 83.8029L122.946 86.9694L131.125 73.6496L128.331 71.6705L118.477 83.8029Z" fill="#E28056"/>
<path d="M112.231 66.4701C114.605 67.0987 120.99 79.4937 120.99 79.4937L127.152 72.0549L131.499 75.0018C131.499 75.0018 124.003 87.8516 122.965 88.4592C121.928 89.0668 119.11 89.0585 117.974 88.125C116.838 87.1915 110.051 78.2613 110.051 78.2613L108.594 72.0102L110.497 66.8454L112.231 66.4701Z" fill="#2563EB"/>
<path d="M119.472 81.5153C119.444 81.5153 119.416 81.5061 119.392 81.4871C119.337 81.4428 119.328 81.362 119.372 81.3066L120.89 79.4133C120.935 79.3581 121.015 79.3492 121.071 79.3935C121.126 79.4378 121.135 79.5187 121.091 79.574L119.572 81.4673C119.547 81.4989 119.51 81.5153 119.472 81.5153Z" fill="#0B3FDD"/>
<path d="M90.8864 73.2314C88.6539 72.383 88.6092 68.9896 89.5692 67.3598C90.5068 66.6454 96.6017 64.3682 98.055 64.0918L104.973 64.4161C106.246 64.5244 111.024 65.8483 112.229 66.4701C112.944 67.5607 112.854 69.9049 110.823 70.3291C110.22 74.9504 113.48 78.4778 113.636 81.2685C113.732 82.9872 112.185 84.0369 111.649 84.3717C110.298 86.7494 110.399 90.9353 111.225 93.5697C108.389 96.1148 97.4946 96.1595 94.3691 93.5697C94.8156 91.873 95.5747 87.8098 95.3514 86.247C95.1282 84.6842 92.0027 80.7996 90.8864 73.2314Z" fill="#2563EB"/>
<path d="M103.058 85.4306C101.28 85.4306 99.8058 84.9609 99.1487 84.169C99.1034 84.1144 99.111 84.0335 99.1655 83.9882C99.2199 83.943 99.3009 83.9504 99.3463 84.005C100.008 84.802 101.598 85.2468 103.495 85.1643C104.987 85.0999 105.84 84.6179 106.464 84.2659C106.808 84.0715 107.08 83.918 107.357 83.8922C107.614 83.8683 107.95 83.97 108.375 84.0986C109.216 84.3531 110.368 84.7016 111.606 84.251C111.672 84.2266 111.746 84.2611 111.77 84.3278C111.794 84.3944 111.76 84.4681 111.693 84.4924C110.375 84.9721 109.176 84.6094 108.301 84.3444C107.918 84.2286 107.588 84.1289 107.38 84.1479C107.159 84.1685 106.908 84.3102 106.59 84.4895C105.944 84.8542 105.059 85.3538 103.506 85.4209C103.355 85.4274 103.206 85.4306 103.058 85.4306Z" fill="#0B3FDD"/>
<path d="M95.1289 93.5419C95.1136 93.5419 95.098 93.5391 95.0828 93.5333C95.0166 93.5079 94.9836 93.4335 95.0091 93.3674C95.5067 92.0737 96.3392 88.6213 96.1062 86.1251C96.0313 85.322 95.4593 84.1446 94.7353 82.654C93.5903 80.2969 92.0222 77.0688 91.7192 73.5662C91.7131 73.4955 91.7654 73.4333 91.836 73.4272C91.906 73.4208 91.9689 73.4733 91.975 73.544C92.2739 76.9993 93.7667 80.0725 94.9663 82.5419C95.7017 84.0559 96.2827 85.2517 96.362 86.1013C96.5989 88.6398 95.7539 92.1464 95.2489 93.4596C95.2291 93.5106 95.1805 93.5419 95.1289 93.5419Z" fill="#0B3FDD"/>
<path d="M108.22 65.1366C108.227 67.817 107.255 73.5612 105.903 75.9095C102.089 73.4174 97.1188 68.642 95.4688 64.8833C96.5985 64.4897 97.5775 64.1815 98.0533 64.0925L104.972 64.4177C105.55 64.4657 106.854 64.7669 108.22 65.1366Z" fill="white"/>
<path d="M104.973 64.4161C105.124 66.3049 104.488 68.4147 104.036 69.3188C102.328 68.9337 98.3526 66.4163 98.0547 64.0918L104.973 64.4161Z" fill="#E28056"/>
<path d="M105.904 75.9095C102.573 76.1594 99.016 73.7939 96.3767 71.2299C96.6163 70.6548 96.9449 69.775 96.7806 69.5696C96.606 69.3505 95.5756 69.6038 94.9868 69.7682C93.6586 68.2654 92.724 66.855 92.416 66.03C93.3985 65.6363 94.4905 65.229 95.4695 64.8832C97.1195 68.642 102.09 73.4174 105.904 75.9095Z" fill="#0B3FDD"/>
<path d="M109.081 69.0802C109.047 69.2616 109.564 70.1448 109.827 70.5796C108.817 72.9005 107.41 75.218 105.904 75.9096C107.256 73.5612 108.229 67.8171 108.222 65.1367C109.317 65.4379 110.457 65.7837 111.282 66.0815C111.152 66.8277 110.858 67.8924 110.433 69.0529C110.029 68.9946 109.115 68.8885 109.081 69.0802Z" fill="#0B3FDD"/>
<path d="M106.898 95.3142C106.84 95.3142 106.787 95.2749 106.773 95.2163C105.273 89.0857 106.71 84.6784 107.26 83.9499C108.614 81.4597 106.918 77.205 105.809 75.9963C105.761 75.9441 105.765 75.8629 105.817 75.8149C105.869 75.767 105.95 75.7705 105.998 75.8227C106.548 76.4214 107.293 77.7778 107.72 79.4584C108.188 81.3026 108.103 82.9445 107.481 84.0816C107.477 84.0876 107.474 84.0934 107.469 84.0988C106.962 84.7516 105.56 89.1759 107.023 95.1552C107.039 95.2241 106.997 95.2936 106.928 95.3104C106.918 95.313 106.908 95.3142 106.898 95.3142Z" fill="#0B3FDD"/>
<path d="M105.855 77.9216C105.418 77.9216 105.418 78.6009 105.855 78.6009C106.293 78.6009 106.293 77.9216 105.855 77.9216Z" fill="#0B3FDD"/>
<path d="M106.682 80.1989C106.245 80.1989 106.244 80.8781 106.682 80.8781C107.119 80.8781 107.119 80.1989 106.682 80.1989Z" fill="#0B3FDD"/>
<path d="M106.637 82.6323C106.2 82.6323 106.199 83.3116 106.637 83.3116C107.074 83.3115 107.074 82.6323 106.637 82.6323Z" fill="#0B3FDD"/>
<path d="M105.455 85.8918C105.018 85.8918 105.017 86.5711 105.455 86.5711C105.892 86.5711 105.893 85.8918 105.455 85.8918Z" fill="#0B3FDD"/>
<path d="M105.186 88.4592C104.748 88.4592 104.748 89.1385 105.186 89.1385C105.623 89.1385 105.623 88.4592 105.186 88.4592Z" fill="#0B3FDD"/>
<path d="M105.164 91.049C104.727 91.049 104.726 91.7283 105.164 91.7283C105.601 91.7283 105.602 91.049 105.164 91.049Z" fill="#0B3FDD"/>
<path d="M105.588 93.6163C105.151 93.6163 105.15 94.2956 105.588 94.2956C106.025 94.2957 106.026 93.6163 105.588 93.6163Z" fill="#0B3FDD"/>
<path d="M94.6542 74.2117C93.7223 75.8567 91.6333 76.4347 89.9884 75.5028C88.3434 74.5709 87.7654 72.482 88.6973 70.837C89.6292 69.1921 91.7181 68.614 93.3631 69.5459C95.008 70.4777 95.5861 72.5667 94.6542 74.2117Z" fill="#E28056"/>
<path d="M85.8973 88.1505C85.1518 89.4665 83.4806 89.9289 82.1646 89.1834C80.8486 88.4379 80.3862 86.7667 81.1317 85.4507C81.8772 84.1348 83.5483 83.6723 84.8643 84.4178C86.1804 85.1634 86.6428 86.8346 85.8973 88.1505Z" fill="#E28056"/>
<path d="M94.6543 74.2117L85.8964 88.1504L81.1309 85.4507L88.6974 70.837L94.6543 74.2117Z" fill="#E28056"/>
<path d="M86.7549 102.152C86.8481 103.093 86.1611 103.931 85.2204 104.024C84.2797 104.118 83.4416 103.431 83.3483 102.49C83.2551 101.549 83.9421 100.711 84.8828 100.618C85.8235 100.525 86.6616 101.212 86.7549 102.152Z" fill="#E28056"/>
<path d="M86.2394 86.5303C86.3886 88.0354 85.2893 89.3765 83.7842 89.5256C82.2791 89.6748 80.938 88.5756 80.7889 87.0704C80.6398 85.5653 81.739 84.2242 83.2441 84.0751C84.7492 83.926 86.0902 85.0253 86.2394 86.5303Z" fill="#E28056"/>
<path d="M86.2396 86.5303L80.7891 87.0705L83.3491 102.49L86.7557 102.152L86.2396 86.5303Z" fill="#E28056"/>
<path d="M86.7548 102.321H83.3202C83.6071 104.785 82.3642 105.685 81.9787 106.582C81.5932 107.48 81.3825 108.604 81.3909 109.294C81.3936 109.517 81.4434 110.169 81.574 110.197C81.7572 110.236 81.8226 110.066 81.8604 109.943C81.837 110.334 81.8414 111.261 82.1169 111.319C82.4047 111.38 82.4036 110.983 82.4963 110.877C82.4963 110.877 82.6009 112.356 82.9772 112.355C83.4262 112.354 83.2134 110.324 83.6278 109.359C83.9909 108.514 84.7795 106.959 85.1791 106.955C85.5787 106.952 85.4401 108.196 85.2151 108.558C84.9901 108.919 84.8373 109.41 84.7989 109.638C84.7605 109.866 85.0875 110.156 85.4305 109.791C85.7735 109.426 86.7878 108.046 87.0401 106.916C87.4561 105.052 87.0632 104.338 86.7548 102.321Z" fill="#ED8056"/>
<path d="M89.57 67.3599C87.5016 69.1974 80.0449 83.7439 79.8216 85.892C79.5984 88.04 82.322 101.703 82.322 101.703H87.6801L87.0103 87.5936L95.8065 73.8858L95.4703 70.5232L89.57 67.3599Z" fill="#2563EB"/>
<path d="M92.1146 79.7672C92.0908 79.7672 92.0669 79.7607 92.0454 79.7469C91.9857 79.7086 91.9684 79.6292 92.0067 79.5695L94.674 75.4128C94.7123 75.3531 94.7916 75.3358 94.8514 75.3741C94.9111 75.4124 94.9284 75.4918 94.8901 75.5515L92.2228 79.7082C92.1982 79.7463 92.1568 79.7672 92.1146 79.7672Z" fill="#0B3FDD"/>
<path d="M87.0104 87.7219C86.9943 87.7219 86.9781 87.7189 86.9622 87.7125L85.004 86.9196C84.9383 86.893 84.9066 86.8181 84.9332 86.7524C84.9598 86.6867 85.0346 86.6549 85.1004 86.6816L87.0586 87.4745C87.1243 87.5011 87.156 87.576 87.1294 87.6417C87.1092 87.6916 87.0611 87.7219 87.0104 87.7219Z" fill="#0B3FDD"/>
<path d="M94.5946 48.1727C93.9898 48.0516 93.3338 48.2176 92.8594 48.6119C92.385 49.0062 92.1018 49.6207 92.1102 50.2374C92.1186 50.8542 92.4184 51.4838 92.9033 51.865C92.1172 51.9301 91.3954 52.4958 91.144 53.2434C90.8926 53.9911 91.1619 54.8722 91.749 55.399C91.3011 55.7984 90.95 56.3187 90.8085 56.9019C90.667 57.4851 90.7487 58.1311 91.0833 58.6292C91.4179 59.1273 92.0009 59.484 92.5992 59.4389C92.3972 59.9745 92.4654 60.6043 92.7774 61.0842C93.0894 61.564 93.6376 61.8819 94.2091 61.9145C94.8531 61.9512 95.4915 61.6403 96.0161 61.2649C96.0652 61.9593 96.5089 62.5932 97.1033 62.9554C97.6977 63.3176 98.4245 63.4257 99.1159 63.345C99.6758 63.2796 100.201 63.0592 100.646 62.7127C101.286 63.5073 102.293 63.9942 103.314 64.0032C104.335 64.0122 105.328 63.5125 105.983 62.7293C106.218 63.1359 106.633 63.4337 107.093 63.5253C107.554 63.6169 108.051 63.5007 108.424 63.2148C108.796 62.9289 109.035 62.4709 109.065 62.0025C109.414 62.0017 109.765 61.9971 110.106 61.9288C110.448 61.8605 110.783 61.7242 111.04 61.4888C111.454 61.1099 111.616 60.5017 111.522 59.9488C111.428 59.3959 111.126 58.8885 110.707 58.5158C111.075 58.4512 111.431 58.2994 111.717 58.0581C112.003 57.8168 112.215 57.4838 112.289 57.1172C112.383 56.649 112.246 56.152 111.978 55.7572C111.709 55.3624 111.335 55.0874 110.911 54.8672C111.617 54.3506 111.996 53.4223 111.854 52.5594C111.712 51.6966 111.067 50.9597 110.233 50.6969C110.724 49.9357 110.712 48.8815 110.203 48.1321C109.694 47.3827 108.652 46.9967 107.763 47.172C107.995 46.1551 107.448 45.0139 106.511 44.5569C105.573 44.0999 104.338 44.3725 103.679 45.1815C103.423 44.5462 102.909 44.0277 102.26 43.8065C101.612 43.5853 100.869 43.6603 100.278 44.0065C99.6867 44.3527 99.2577 44.9643 99.1336 45.638C98.6333 45.2809 98.0316 45.0167 97.4235 44.9271C96.8154 44.8375 96.1723 44.9311 95.6421 45.2421C95.1789 45.5139 94.8132 45.9479 94.6239 46.4504C94.4346 46.9529 94.4257 47.663 94.5946 48.1727Z" fill="#2C2F37"/>
<path d="M104.973 64.4161V61.5406L99.4543 57.6273L98.0547 58.6867V64.0918C98.0547 64.0918 98.4922 66.4701 101.692 66.4701C104.892 66.4701 104.973 64.4161 104.973 64.4161Z" fill="#E28056"/>
<path d="M104.972 61.8906V63.0534C103.326 63.0534 101.258 61.8179 100.621 60.2911C101.402 61.0715 103.175 61.9796 104.972 61.8906Z" fill="#2C2F37"/>
<path d="M99.2064 58.384L100.622 60.291C101.493 61.1602 103.586 62.1836 105.579 61.8217C107.168 61.5332 107.876 60.5785 107.987 58.6543C108.088 56.9039 108.201 50.4061 107.249 49.1738C106.298 47.9414 104.136 45.9091 100.525 46.9902C96.9146 48.0712 95.1634 51.617 97.0227 55.4221L99.2064 58.384Z" fill="#E28056"/>
<path d="M98.0998 56.2684C98.6222 56.3397 99.1583 56.069 99.4726 55.6458C99.787 55.2226 99.895 54.6693 99.8408 54.1448C99.7865 53.6204 99.5615 53.0719 99.2999 52.6142C99.6991 52.7775 100.173 52.7044 100.537 52.4725C100.901 52.2406 101.159 51.865 101.301 51.4576C101.443 51.0503 101.504 50.6056 101.485 50.1746C101.989 50.7101 102.794 50.9422 103.506 50.7578C104.218 50.5734 104.836 49.9444 105.017 49.2315C105.022 49.9539 105.456 50.6571 106.101 50.9842C106.745 51.3112 107.569 51.2471 108.155 50.8245L107.178 48.299L104.189 46.6837L101.216 46.3491L97.7461 47.9387L95.793 51.3144V54.495C95.793 54.495 96.9619 56.5436 96.9619 56.48C96.9619 56.4165 98.0998 56.2684 98.0998 56.2684Z" fill="#2C2F37"/>
<path d="M98.9623 55.7193C98.3543 54.4576 96.7084 54.341 96.0111 55.3463C95.3138 56.3517 96.3667 59.3643 98.0542 59.0758C99.9514 58.7516 99.4155 56.6598 98.9623 55.7193Z" fill="#E28056"/>
<path d="M98.2008 58.3773C98.1909 58.3773 98.1809 58.3761 98.1709 58.3737C98.1019 58.3572 98.0594 58.288 98.0759 58.219C98.1998 57.7003 98.1075 57.1379 97.8227 56.6761C97.5402 56.218 97.091 55.8966 96.558 55.7712C96.4889 55.755 96.4462 55.6858 96.4624 55.6168C96.4787 55.5478 96.5478 55.5047 96.6168 55.5213C97.2168 55.6625 97.7226 56.0247 98.0413 56.5414C98.3617 57.0609 98.4653 57.6941 98.3257 58.2787C98.3115 58.3377 98.2589 58.3773 98.2008 58.3773Z" fill="#2C2F37"/>
<path d="M96.8217 57.3638C96.8052 57.3638 96.7885 57.3606 96.7724 57.3539C96.707 57.3266 96.676 57.2515 96.7033 57.1861C96.7972 56.9608 97.0366 56.7693 97.3438 56.6739C97.6405 56.5815 97.9249 56.6024 98.1241 56.7309C98.1837 56.7694 98.2008 56.8487 98.1623 56.9083C98.1238 56.9679 98.0444 56.985 97.9848 56.9466C97.8518 56.8607 97.6407 56.8504 97.42 56.919C97.1916 56.99 97.0033 57.1336 96.9403 57.2848C96.9197 57.3341 96.872 57.3638 96.8217 57.3638Z" fill="#2C2F37"/>
<path d="M104.602 56.5128C104.595 56.5128 104.588 56.5127 104.582 56.5125C104.511 56.5105 104.455 56.4515 104.457 56.3806C104.459 56.311 104.516 56.2558 104.585 56.2558C104.587 56.2558 104.588 56.2558 104.589 56.2558C104.933 56.2659 105.538 55.9692 105.564 55.6365C105.566 55.6006 105.416 55.553 105.317 55.5215C104.902 55.3903 104.208 55.1707 104.596 53.8812C104.616 53.8133 104.687 53.7747 104.756 53.7952C104.823 53.8156 104.862 53.8871 104.842 53.9551C104.527 55.0023 104.988 55.1481 105.394 55.2768C105.602 55.3426 105.838 55.4173 105.819 55.6561C105.78 56.1701 105.018 56.5128 104.602 56.5128Z" fill="#2C2F37"/>
<path d="M105.066 58.383C104.292 58.383 103.617 58.103 103.163 57.5937C103.116 57.5408 103.121 57.4596 103.174 57.4124C103.227 57.3652 103.308 57.3699 103.355 57.4228C103.899 58.0327 104.655 58.1261 105.067 58.1261C105.072 58.1261 105.076 58.1261 105.081 58.1261C105.704 58.1229 106.31 57.9058 106.589 57.5859C106.636 57.5325 106.717 57.527 106.771 57.5736C106.824 57.6202 106.829 57.7013 106.783 57.7547C106.453 58.1327 105.785 58.3792 105.082 58.3828C105.077 58.383 105.071 58.383 105.066 58.383Z" fill="#2C2F37"/>
<path d="M101.978 54.5806C101.957 54.5806 101.935 54.5725 101.918 54.5561C101.885 54.523 101.884 54.4688 101.917 54.4351C102.398 53.9448 102.932 53.7565 103.549 53.8593C103.595 53.8671 103.627 53.9111 103.619 53.9578C103.611 54.0044 103.568 54.0359 103.521 54.0282C102.963 53.9352 102.478 54.1076 102.039 54.555C102.022 54.572 102 54.5806 101.978 54.5806Z" fill="#2C2F37"/>
<path d="M103.412 54.5679C103.412 54.9127 103.231 55.1922 103.007 55.1922C102.783 55.1922 102.602 54.9127 102.602 54.5679C102.602 54.2231 102.783 53.9436 103.007 53.9436C103.231 53.9437 103.412 54.2231 103.412 54.5679Z" fill="#2C2F37"/>
<path d="M105.513 54.5807C105.492 54.5807 105.47 54.5726 105.453 54.5562C105.42 54.5231 105.419 54.469 105.452 54.4352C105.933 53.9449 106.467 53.7565 107.084 53.8594C107.131 53.8672 107.162 53.9112 107.154 53.9579C107.147 54.0045 107.102 54.036 107.056 54.0283C106.498 53.9353 106.013 54.1077 105.574 54.5551C105.558 54.5721 105.535 54.5807 105.513 54.5807Z" fill="#2C2F37"/>
<path d="M106.542 55.1922C106.766 55.1922 106.948 54.9127 106.948 54.5679C106.948 54.2231 106.766 53.9436 106.542 53.9436C106.318 53.9436 106.137 54.2231 106.137 54.5679C106.137 54.9127 106.318 55.1922 106.542 55.1922Z" fill="#2C2F37"/>
<path d="M103.724 52.6697C103.205 52.6418 101.897 52.7869 101.217 53.2222C101.435 52.7534 102.136 51.9018 103.82 52.0988C103.885 52.2415 103.835 52.5302 103.724 52.6697Z" fill="#2C2F37"/>
<path d="M105.352 52.6697C105.871 52.6418 107.179 52.7869 107.859 53.2222C107.641 52.7534 106.939 51.9018 105.256 52.0988C105.19 52.2415 105.241 52.5302 105.352 52.6697Z" fill="#2C2F37"/>
<path d="M240.216 168.792L240.96 177.849L238.636 178.996L237.413 177.727L235.254 168.454L240.216 168.792Z" fill="#E28056"/>
<path d="M242.571 182H226.916C226.916 180.38 227.693 179.683 229.168 179.254C230.642 178.825 234.556 177.619 235.28 176.439C234.826 175.367 235.005 173.454 236.276 173.454C237.642 173.454 237.801 175.46 237.881 175.728C237.961 175.996 238.464 176.515 239.402 176.515C241.252 176.515 240.528 174.316 241.375 174.316C242.705 174.316 242.571 179.492 242.571 182Z" fill="#2C2F37"/>
<path d="M226.916 182H242.57C242.57 181.702 242.57 181.384 242.574 181.052H227.032C226.954 181.326 226.916 181.641 226.916 182Z" fill="#79797D"/>
<path d="M239.402 181.18C239.331 181.18 239.273 181.123 239.273 181.052C239.273 178.866 241.019 178.09 242.514 178.09C242.585 178.09 242.643 178.148 242.643 178.219C242.643 178.29 242.585 178.347 242.514 178.347C241.072 178.347 239.53 179.058 239.53 181.052C239.53 181.123 239.473 181.18 239.402 181.18Z" fill="#79797D"/>
<path d="M236.452 178.133C236.411 178.133 236.37 178.113 236.346 178.077C235.992 177.551 235.508 177.119 234.946 176.827C234.883 176.795 234.859 176.717 234.891 176.654C234.924 176.591 235.001 176.567 235.064 176.6C235.664 176.911 236.181 177.372 236.559 177.933C236.598 177.992 236.583 178.072 236.524 178.111C236.502 178.126 236.477 178.133 236.452 178.133Z" fill="#79797D"/>
<path d="M235.252 178.812C235.209 178.812 235.167 178.79 235.143 178.751C234.837 178.249 234.403 177.834 233.887 177.552C233.825 177.517 233.802 177.439 233.836 177.377C233.87 177.315 233.948 177.292 234.01 177.327C234.565 177.631 235.032 178.077 235.362 178.617C235.399 178.678 235.38 178.757 235.319 178.794C235.298 178.806 235.275 178.812 235.252 178.812Z" fill="#79797D"/>
<path d="M233.89 179.309C233.85 179.309 233.811 179.29 233.786 179.256C233.475 178.828 233.119 178.431 232.726 178.077C232.673 178.03 232.669 177.949 232.717 177.896C232.764 177.843 232.845 177.839 232.898 177.886C233.304 178.252 233.672 178.663 233.993 179.105C234.035 179.163 234.022 179.243 233.965 179.284C233.942 179.301 233.916 179.309 233.89 179.309Z" fill="#79797D"/>
<path d="M234.985 176.842C234.966 176.842 234.948 176.838 234.932 176.83C234.715 176.732 232.812 175.845 232.761 174.955C232.745 174.676 232.903 174.434 233.231 174.237C233.463 174.098 233.692 174.078 233.912 174.178C234.514 174.454 234.87 175.63 235.023 176.272C235.235 175.798 235.645 175.061 236.18 174.968C236.478 174.916 236.765 175.061 237.033 175.399C237.247 175.669 237.303 175.917 237.199 176.136C236.889 176.792 235.181 176.839 234.987 176.842C234.986 176.842 234.985 176.842 234.985 176.842ZM236.294 175.215C236.27 175.215 236.247 175.217 236.224 175.221C235.767 175.301 235.356 176.112 235.171 176.578C235.847 176.543 236.801 176.378 236.967 176.026C237.026 175.903 236.98 175.746 236.832 175.559C236.651 175.33 236.47 175.215 236.294 175.215ZM233.632 174.373C233.546 174.373 233.457 174.401 233.363 174.457C233.12 174.603 233.007 174.761 233.017 174.94C233.049 175.491 234.168 176.164 234.809 176.487C234.664 175.823 234.312 174.644 233.804 174.412C233.748 174.386 233.691 174.373 233.632 174.373Z" fill="#79797D"/>
<path d="M263.614 168.792L264.358 177.849L262.035 178.996L260.811 177.727L258.652 168.454L263.614 168.792Z" fill="#E28056"/>
<path d="M265.969 182H250.314C250.314 180.38 251.092 179.683 252.566 179.254C254.041 178.825 257.954 177.619 258.678 176.439C258.224 175.367 258.403 173.454 259.674 173.454C261.04 173.454 261.199 175.46 261.279 175.728C261.36 175.996 261.862 176.515 262.8 176.515C264.65 176.515 263.926 174.316 264.774 174.316C266.103 174.316 265.969 179.492 265.969 182Z" fill="#2C2F37"/>
<path d="M250.314 182H265.969C265.969 181.702 265.969 181.384 265.972 181.052H250.431C250.352 181.326 250.314 181.641 250.314 182Z" fill="#79797D"/>
<path d="M262.8 181.18C262.729 181.18 262.672 181.123 262.672 181.052C262.672 178.866 264.418 178.09 265.913 178.09C265.983 178.09 266.041 178.148 266.041 178.219C266.041 178.29 265.983 178.347 265.913 178.347C264.47 178.347 262.929 179.058 262.929 181.052C262.929 181.123 262.871 181.18 262.8 181.18Z" fill="#79797D"/>
<path d="M259.851 178.133C259.809 178.133 259.769 178.113 259.744 178.077C259.391 177.551 258.907 177.119 258.345 176.827C258.282 176.795 258.257 176.717 258.29 176.654C258.322 176.591 258.4 176.567 258.463 176.6C259.063 176.911 259.58 177.372 259.957 177.933C259.997 177.992 259.981 178.072 259.922 178.111C259.9 178.126 259.875 178.133 259.851 178.133Z" fill="#79797D"/>
<path d="M258.651 178.812C258.607 178.812 258.565 178.79 258.541 178.751C258.235 178.249 257.801 177.834 257.285 177.552C257.223 177.517 257.2 177.439 257.235 177.377C257.269 177.315 257.347 177.292 257.409 177.326C257.964 177.631 258.431 178.077 258.76 178.617C258.797 178.678 258.778 178.757 258.717 178.794C258.697 178.806 258.674 178.812 258.651 178.812Z" fill="#79797D"/>
<path d="M257.288 179.309C257.248 179.309 257.209 179.29 257.184 179.256C256.873 178.828 256.517 178.431 256.124 178.077C256.072 178.03 256.068 177.949 256.115 177.896C256.162 177.843 256.244 177.839 256.296 177.886C256.702 178.252 257.071 178.662 257.392 179.105C257.434 179.163 257.421 179.243 257.363 179.284C257.341 179.301 257.314 179.309 257.288 179.309Z" fill="#79797D"/>
<path d="M258.383 176.842C258.365 176.842 258.347 176.838 258.33 176.83C258.113 176.732 256.211 175.845 256.159 174.955C256.143 174.676 256.301 174.434 256.63 174.237C256.862 174.098 257.091 174.078 257.31 174.178C257.912 174.454 258.268 175.63 258.421 176.272C258.633 175.798 259.044 175.061 259.578 174.968C259.877 174.916 260.164 175.061 260.432 175.399C260.646 175.669 260.702 175.917 260.598 176.136C260.288 176.792 258.579 176.839 258.385 176.842C258.385 176.842 258.384 176.842 258.383 176.842ZM259.692 175.215C259.669 175.215 259.646 175.217 259.623 175.221C259.165 175.301 258.755 176.112 258.57 176.578C259.245 176.543 260.2 176.378 260.366 176.026C260.424 175.903 260.379 175.745 260.231 175.559C260.049 175.33 259.869 175.215 259.692 175.215ZM257.03 174.373C256.944 174.373 256.855 174.401 256.762 174.457C256.518 174.603 256.405 174.761 256.416 174.94C256.447 175.49 257.566 176.164 258.208 176.487C258.063 175.823 257.711 174.644 257.203 174.412C257.146 174.386 257.089 174.373 257.03 174.373Z" fill="#79797D"/>
<path d="M234.362 96.9115C233.065 102.014 229.303 135.223 229.433 139.504C229.563 143.784 232.676 164.641 234.362 171.984H242.535C241.952 164.651 240.459 146.379 239.681 139.893C241.367 135.223 246.47 119.526 247.421 115.505V98.6094L234.362 96.9115Z" fill="#2C2F37"/>
<path d="M257.482 96.9115C259.01 103.571 259.918 129.645 259.4 139.504C262.124 144.693 265.497 166.197 266.405 171.984H257.482C254.6 163.243 249.281 145.211 248.243 139.374C247.206 133.536 243.703 115.245 243.703 115.245V99.2898L257.482 96.9115Z" fill="#2C2F37"/>
<path d="M245.201 123.236C245.141 123.236 245.087 123.193 245.075 123.132C244.24 118.736 243.577 115.27 243.577 115.27C243.575 115.262 243.574 115.254 243.574 115.246V99.2898C243.574 99.2189 243.632 99.1614 243.703 99.1614C243.774 99.1614 243.831 99.2189 243.831 99.2898V115.233C243.874 115.459 244.521 118.838 245.328 123.084C245.341 123.154 245.295 123.221 245.226 123.234C245.217 123.236 245.209 123.236 245.201 123.236Z" fill="#60636B"/>
<path d="M243.703 113.201C243.677 113.201 243.651 113.193 243.628 113.177L242.32 112.229C241.603 111.709 241.176 110.871 241.176 109.986V100.673C241.176 100.602 241.233 100.545 241.304 100.545C241.375 100.545 241.433 100.602 241.433 100.673V109.986C241.433 110.789 241.821 111.55 242.47 112.021L243.778 112.969C243.836 113.011 243.849 113.091 243.807 113.148C243.782 113.183 243.743 113.201 243.703 113.201Z" fill="#60636B"/>
<path d="M258.373 109.24C258.371 109.24 258.369 109.24 258.368 109.24C254.664 109.084 254.432 103.727 254.308 100.848C254.299 100.657 254.292 100.478 254.283 100.314C254.28 100.243 254.334 100.182 254.405 100.179C254.474 100.176 254.536 100.23 254.54 100.301C254.548 100.466 254.556 100.645 254.564 100.837C254.685 103.633 254.911 108.837 258.378 108.983C258.449 108.986 258.504 109.046 258.501 109.117C258.498 109.186 258.441 109.24 258.373 109.24Z" fill="#60636B"/>
<path d="M233.038 107.921C233.016 107.921 232.994 107.92 232.971 107.919C232.9 107.914 232.847 107.853 232.852 107.782C232.857 107.712 232.917 107.656 232.989 107.663C233.21 107.677 233.423 107.594 233.638 107.405C234.902 106.295 235.732 101.824 235.895 99.1519C235.899 99.0811 235.961 99.0279 236.031 99.0316C236.101 99.0359 236.155 99.0968 236.151 99.1675C236.017 101.364 235.268 106.315 233.808 107.598C233.563 107.813 233.304 107.921 233.038 107.921Z" fill="#60636B"/>
<path d="M231.459 140.095C230.784 140.095 230.109 139.944 229.511 139.638C229.448 139.606 229.423 139.528 229.456 139.465C229.488 139.402 229.565 139.377 229.628 139.409C230.819 140.018 232.336 139.978 233.492 139.306C233.553 139.27 233.632 139.291 233.668 139.352C233.703 139.413 233.683 139.492 233.621 139.528C232.972 139.905 232.215 140.095 231.459 140.095Z" fill="#60636B"/>
<path d="M251.102 141.552C250.221 141.552 249.341 141.303 248.603 140.805C248.545 140.765 248.529 140.686 248.569 140.627C248.609 140.568 248.688 140.553 248.747 140.592C250.15 141.541 252.103 141.53 253.496 140.567C253.555 140.527 253.634 140.541 253.675 140.599C253.715 140.658 253.701 140.738 253.642 140.778C252.896 141.294 251.999 141.552 251.102 141.552Z" fill="#60636B"/>
<path d="M265.261 171.311C265.197 171.311 265.142 171.263 265.134 171.197C263.849 160.513 260.276 144.817 258.253 139.462C258.246 139.444 258.243 139.426 258.245 139.407C258.848 131.586 258.11 114.259 257.637 109.039C257.631 108.968 257.683 108.906 257.753 108.899C257.827 108.892 257.887 108.945 257.893 109.016C258.366 114.236 259.103 131.551 258.503 139.398C260.533 144.791 264.104 160.483 265.389 171.167C265.397 171.237 265.347 171.301 265.277 171.309C265.272 171.31 265.266 171.311 265.261 171.311Z" fill="#60636B"/>
<path d="M241.651 171.574C241.585 171.574 241.529 171.523 241.524 171.456C241.025 165.361 239.32 145.06 238.299 139.717C238.294 139.689 238.298 139.659 238.312 139.633C239.877 136.683 242.569 128.228 244.178 123.177C244.389 122.515 244.583 121.905 244.755 121.367C244.777 121.299 244.849 121.262 244.917 121.284C244.984 121.305 245.021 121.378 245 121.445C244.827 121.983 244.633 122.593 244.422 123.255C242.818 128.292 240.138 136.707 238.56 139.713C239.583 145.136 241.282 165.353 241.779 171.435C241.785 171.505 241.733 171.567 241.662 171.573C241.658 171.573 241.655 171.574 241.651 171.574Z" fill="#60636B"/>
<path d="M239.866 73.3673C238.999 75.0473 236.934 75.7062 235.254 74.8391C233.574 73.9719 232.915 71.9071 233.782 70.2271C234.65 68.5471 236.714 67.8881 238.394 68.7553C240.074 69.6224 240.733 71.6873 239.866 73.3673Z" fill="#E28056"/>
<path d="M231.657 87.6365C230.963 88.9805 229.311 89.5077 227.967 88.8139C226.623 88.1201 226.096 86.4683 226.79 85.1243C227.484 83.7803 229.136 83.2531 230.48 83.9468C231.824 84.6406 232.351 86.2925 231.657 87.6365Z" fill="#E28056"/>
<path d="M239.865 73.3674L231.656 87.6366L226.789 85.1244L233.781 70.2272L239.865 73.3674Z" fill="#E28056"/>
<path d="M221.437 74.8727C222.199 74.3141 222.365 73.2431 221.806 72.4805C221.248 71.718 220.177 71.5526 219.414 72.1112C218.651 72.6697 218.486 73.7407 219.045 74.5033C219.603 75.2659 220.674 75.4312 221.437 74.8727Z" fill="#E28056"/>
<path d="M226.961 87.9238C226.109 86.6742 226.431 84.9705 227.68 84.1183C228.93 83.2661 230.634 83.5883 231.486 84.8379C232.338 86.0874 232.016 87.7912 230.766 88.6434C229.517 89.4955 227.813 89.1733 226.961 87.9238Z" fill="#E28056"/>
<path d="M226.961 87.9238L231.486 84.8378L221.85 72.5309L219.021 74.4597L226.961 87.9238Z" fill="#E28056"/>
<path d="M216.9 69.8523L216.205 71.3993C216.205 71.3993 216.839 73.246 216.937 73.2268C217.47 73.1223 217.172 71.8753 217.172 71.8753C217.286 71.7001 217.691 70.8978 217.716 70.6258C217.742 70.3538 216.9 69.8523 216.9 69.8523Z" fill="#E28056"/>
<path d="M216.408 69.2063L215.541 70.7703C215.541 70.7703 215.88 73.0202 216.009 72.9888C216.608 72.8427 216.527 71.6458 216.502 71.5353C216.612 71.3653 217.063 70.2603 217.063 69.9373L216.408 69.2063Z" fill="#E28056"/>
<path d="M216.077 68.3987C215.949 68.6197 215.048 70.4132 215.014 70.5833C214.98 70.7533 215.026 72.0096 215.201 71.9689C215.74 71.844 215.779 70.7193 215.779 70.7193C215.992 70.5578 216.672 69.5887 216.731 69.4273C216.791 69.2658 216.077 68.3987 216.077 68.3987Z" fill="#E28056"/>
<path d="M219.629 68.59C219.323 68.3648 216.594 67.4892 216.348 67.5402C216.101 67.5912 214.141 69.5353 214.257 69.6398C214.878 70.1994 216.076 68.9937 216.076 68.9937L218.405 70.5833L219.629 68.59Z" fill="#E28056"/>
<path d="M220.049 74.2893C220.737 74.1491 221.825 72.9624 221.723 72.3632C221.621 71.7639 219.844 68.7429 219.628 68.5899C219.411 68.4369 218.149 70.1582 218.008 70.5789C217.868 70.9997 220.049 74.2893 220.049 74.2893Z" fill="#E28056"/>
<path d="M224.61 53.2279L217.128 54.8196L212.293 48.9968C211.422 47.9488 209.72 48.4556 209.565 49.8091L208.703 57.3288L201.569 60.0897C200.283 60.5874 200.241 62.3919 201.503 62.9484L208.627 66.0904L208.953 73.4274C209.014 74.7969 210.694 75.4166 211.63 74.4148L216.746 68.9372L224.025 70.7235C225.357 71.0502 226.424 69.6123 225.726 68.4327L221.985 62.1125L226.229 55.5849C226.981 54.4286 225.959 52.9409 224.61 53.2279Z" fill="#FDB306"/>
<g opacity="0.3">
<path d="M226.23 55.5839L221.987 62.1137L225.727 68.4309C226.424 69.6136 225.359 71.0501 224.026 70.722L216.746 68.9368L211.629 74.4137C210.696 75.4168 209.016 74.7978 208.952 73.4263L208.842 70.9282C213.721 67.2892 220.862 59.0235 220.654 54.0694L224.61 53.2292C225.961 52.9397 226.981 54.4276 226.23 55.5839Z" fill="#FDB306"/>
</g>
<path d="M220.05 74.2894C218.931 74.3423 217.42 73.4458 216.837 70.8213C216.618 70.0555 215.515 68.6289 215.908 68.2938C216.397 67.8777 217.982 70.2772 218.22 70.3368C218.322 70.3623 218.558 70.3559 218.558 70.3559C219.432 70.9105 220.49 73.059 220.05 74.2894Z" fill="#E28056"/>
<path d="M217.303 72.2538C217.25 72.2538 217.199 72.2254 217.173 72.1757C216.961 71.7755 216.799 71.3306 216.693 70.8532C216.619 70.5953 216.419 70.2241 216.226 69.8651C215.822 69.117 215.474 68.471 215.813 68.182C215.886 68.1195 215.979 68.091 216.082 68.1002C216.501 68.1369 217.092 68.8138 217.764 69.628C217.965 69.8712 218.192 70.1458 218.266 70.1967C218.33 70.2088 218.47 70.2115 218.554 70.2092C218.634 70.2043 218.702 70.271 218.705 70.3521C218.707 70.4332 218.643 70.5006 218.562 70.5028C218.519 70.5042 218.3 70.5082 218.184 70.4793C218.073 70.4514 217.955 70.3202 217.538 69.815C217.107 69.2939 216.387 68.4217 216.056 68.3928C216.026 68.3899 216.013 68.3974 216.003 68.4056C215.845 68.5405 216.245 69.2824 216.484 69.7256C216.695 70.1156 216.893 70.484 216.978 70.7809C217.08 71.2411 217.233 71.6612 217.432 72.038C217.47 72.1097 217.443 72.1986 217.371 72.2366C217.35 72.2483 217.326 72.2538 217.303 72.2538Z" fill="#BA4E24"/>
<path d="M234.72 66.6323C233.474 66.8309 228.429 79.6903 228.429 79.6903L223.521 73.381C223.286 73.0793 222.841 73.0502 222.569 73.3188L219.63 76.222C219.425 76.4244 219.38 76.7374 219.522 76.9882C220.75 79.1644 226.328 89.0122 227.002 89.6474C227.759 90.3618 230.676 90.3332 231.963 89.1196C233.251 87.906 237.537 78.9318 237.537 78.9318L240.618 70.7484L234.72 66.6323Z" fill="#2563EB"/>
<path d="M230.171 82.2076C230.131 82.2076 230.092 82.1893 230.067 82.1549L228.325 79.7661C228.284 79.7088 228.296 79.6285 228.354 79.5867C228.411 79.5449 228.491 79.5575 228.533 79.6148L230.274 82.0036C230.316 82.0609 230.303 82.1412 230.246 82.1829C230.223 82.1996 230.197 82.2076 230.171 82.2076Z" fill="#0B3FDD"/>
<path d="M258.189 73.6912C258.221 78.7629 258.806 92.5428 259.186 94.1279C259.565 95.4227 260.576 96.26 259.356 98.1223C253.259 103.614 236.828 101.538 232.979 98.1223C232.436 97.2609 232.462 95.8023 233.715 94.0355C234.539 92.3196 235.701 76.0797 235.855 71.886C233.779 70.6212 234.331 67.3782 234.72 66.6322C235.531 66.2754 242.114 64.5566 243.514 64.4161L250.432 64.0918C252.664 64.5891 259.572 67.3349 260.653 68.1348C261.389 70.4266 259.486 73.0859 258.189 73.6912Z" fill="#2563EB"/>
<path d="M234.964 84.8474C234.961 84.8474 234.957 84.8472 234.953 84.8469C234.882 84.8406 234.83 84.7783 234.836 84.7076C235.239 80.1758 235.573 75.2033 235.695 72.6337C235.698 72.5629 235.757 72.508 235.829 72.5116C235.9 72.515 235.955 72.5751 235.952 72.6459C235.829 75.2181 235.495 80.195 235.092 84.7304C235.086 84.7972 235.03 84.8474 234.964 84.8474Z" fill="#0B3FDD"/>
<path d="M245.089 72.0997C244.828 72.0997 244.58 72.0797 244.35 72.0367C243.179 71.8184 242.651 70.9952 242.185 70.2688C241.835 69.723 241.505 69.2074 240.948 68.994C240.882 68.9687 240.848 68.8944 240.874 68.8282C240.899 68.7619 240.973 68.7289 241.04 68.7542C241.675 68.9976 242.028 69.5477 242.402 70.1301C242.861 70.846 243.335 71.5863 244.397 71.7842C246.239 72.1276 249.73 70.8149 251.393 69.499C251.448 69.4548 251.529 69.4643 251.573 69.5199C251.617 69.5755 251.608 69.6562 251.552 69.7002C250.187 70.7813 247.209 72.0997 245.089 72.0997Z" fill="#0B3FDD"/>
<path d="M246.866 88.5923C246.485 88.5923 246.106 88.5659 245.727 88.5131C241.789 87.9634 239.016 84.7431 237.714 82.8725C237.674 82.8143 237.688 82.7343 237.746 82.6938C237.805 82.6533 237.885 82.6677 237.925 82.7258C239.203 84.562 241.921 87.7225 245.763 88.2588C248.353 88.6201 251.016 87.6997 253.679 85.5225C253.734 85.4776 253.815 85.4858 253.86 85.5406C253.904 85.5955 253.896 85.6763 253.841 85.7212C251.507 87.6297 249.166 88.5923 246.866 88.5923Z" fill="#0B3FDD"/>
<path d="M244.417 93.3669C241.496 93.3669 239.177 91.6681 237.968 88.51C237.942 88.4438 237.975 88.3696 238.041 88.3442C238.107 88.3189 238.182 88.3519 238.207 88.4181C239.731 92.3947 243.076 93.9742 247.156 92.644C247.224 92.6219 247.296 92.6588 247.318 92.7262C247.34 92.7936 247.303 92.866 247.236 92.8881C246.25 93.2096 245.305 93.3669 244.417 93.3669Z" fill="#0B3FDD"/>
<path d="M258.582 97.9847C258.569 97.9847 258.555 97.9827 258.542 97.9784C258.475 97.9566 258.438 97.8843 258.459 97.8168C258.812 96.7238 259.032 95.576 258.257 94.5865C257.389 93.4774 257.206 78.896 257.337 74.0985C257.339 74.0277 257.398 73.9712 257.469 73.9737C257.54 73.9756 257.596 74.0346 257.594 74.1055C257.427 80.2198 257.722 93.4862 258.459 94.4282C259.31 95.5149 259.06 96.7908 258.704 97.8955C258.686 97.95 258.636 97.9847 258.582 97.9847Z" fill="#0B3FDD"/>
<path d="M247.435 100.273C246.525 100.273 245.693 100.242 244.98 100.2C239.908 99.8986 234.932 98.6937 232.879 97.2697C232.821 97.2293 232.807 97.1493 232.847 97.0911C232.887 97.0328 232.968 97.0185 233.026 97.0588C235.044 98.4586 239.966 99.6448 244.996 99.9433C248.57 100.155 255.191 100.082 259.374 97.2092C259.432 97.1692 259.512 97.1838 259.552 97.2423C259.592 97.3007 259.578 97.3807 259.519 97.4208C256.112 99.7614 251.133 100.273 247.435 100.273Z" fill="#0B3FDD"/>
<path d="M240.621 53.4654C240.621 53.4654 238.696 50.3532 238.902 48.6008C239.162 46.3955 243.249 40.2661 250.026 47.336C250.026 47.336 251.323 46.8496 252.215 47.3685C254.6 48.7563 254.403 51.7142 250.431 59.7894L240.621 53.4654Z" fill="#2C2F37"/>
<path d="M243.514 64.4161V61.5406L249.032 57.6273L250.432 58.6867V64.0918C250.432 64.0918 249.994 66.4701 246.795 66.4701C243.595 66.4701 243.514 64.4161 243.514 64.4161Z" fill="#E28056"/>
<path d="M243.514 62.6925V63.853C245.16 63.853 247.228 62.6206 247.865 61.0939C247.084 61.8744 245.311 62.7815 243.514 62.6925Z" fill="#2C2F37"/>
<path d="M249.279 58.384L247.863 61.093C246.993 61.9622 244.9 62.9856 242.907 62.6237C241.318 62.3352 240.61 60.5785 240.499 58.6543C240.398 56.9039 240.285 50.4061 241.237 49.1738C242.188 47.9414 244.35 45.9091 247.96 46.9902C251.571 48.0712 253.322 51.617 251.463 55.4221L249.279 58.384Z" fill="#E28056"/>
<path d="M249.102 57.2354C247.853 57.2597 249.496 52.1573 247.421 50.6007C246.599 51.4655 241.803 51.5436 240.807 50.3587V49.2819L242.793 47.4009L245.689 46.3956L248.923 46.9793L251.388 49.0224L252.692 51.3898L251.899 55.1923L249.102 57.2354Z" fill="#2C2F37"/>
<path d="M249.523 55.7194C250.131 54.4577 251.777 54.3411 252.474 55.3464C253.171 56.3518 252.118 59.3644 250.431 59.0759C248.534 58.7517 249.07 56.6599 249.523 55.7194Z" fill="#E28056"/>
<path d="M250.285 58.3774C250.227 58.3774 250.175 58.3378 250.16 58.2788C250.021 57.6942 250.124 57.061 250.445 56.5415C250.763 56.0248 251.269 55.6626 251.869 55.5214C251.938 55.5048 252.007 55.5479 252.024 55.6169C252.04 55.6859 251.997 55.755 251.928 55.7713C251.395 55.8967 250.946 56.2181 250.663 56.6762C250.379 57.138 250.286 57.7004 250.41 58.2191C250.427 58.2881 250.384 58.3573 250.315 58.3738C250.305 58.3763 250.295 58.3774 250.285 58.3774Z" fill="#2C2F37"/>
<path d="M251.664 57.364C251.614 57.364 251.566 57.3343 251.545 57.2849C251.482 57.1337 251.294 56.9901 251.066 56.9191C250.845 56.8505 250.634 56.8607 250.501 56.9466C250.441 56.9849 250.362 56.9679 250.323 56.9084C250.285 56.8488 250.302 56.7693 250.362 56.7309C250.561 56.6024 250.845 56.5817 251.142 56.6739C251.449 56.7694 251.689 56.9609 251.782 57.1861C251.81 57.2515 251.779 57.3267 251.713 57.354C251.697 57.3608 251.68 57.364 251.664 57.364Z" fill="#2C2F37"/>
<path d="M243.883 56.5129C243.467 56.5129 242.704 56.1703 242.665 55.6562C242.647 55.4173 242.883 55.3427 243.091 55.2769C243.497 55.1482 243.957 55.0024 243.643 53.9552C243.623 53.8873 243.661 53.8157 243.729 53.7953C243.796 53.7751 243.869 53.8133 243.889 53.8813C244.276 55.1707 243.582 55.3904 243.168 55.5216C243.069 55.5531 242.918 55.6007 242.921 55.6366C242.946 55.9693 243.549 56.265 243.895 56.2559C243.964 56.2527 244.025 56.3097 244.027 56.3806C244.029 56.4515 243.973 56.5105 243.903 56.5125C243.896 56.5128 243.889 56.5129 243.883 56.5129Z" fill="#2C2F37"/>
<path d="M243.419 58.3832C243.413 58.3832 243.408 58.3832 243.403 58.3832C242.699 58.3796 242.032 58.1331 241.702 57.7551C241.655 57.7017 241.661 57.6206 241.714 57.574C241.768 57.5273 241.848 57.533 241.895 57.5863C242.174 57.9063 242.781 58.1233 243.404 58.1265C243.812 58.1269 244.58 58.0399 245.129 57.4232C245.177 57.3702 245.258 57.3658 245.311 57.4128C245.364 57.46 245.368 57.5411 245.321 57.5941C244.867 58.1032 244.192 58.3832 243.419 58.3832Z" fill="#2C2F37"/>
<path d="M246.505 54.5807C246.483 54.5807 246.461 54.5721 246.444 54.555C246.005 54.1076 245.521 53.9349 244.963 54.0282C244.916 54.0358 244.872 54.0045 244.864 53.9578C244.857 53.9112 244.888 53.8671 244.935 53.8593C245.552 53.7568 246.086 53.9448 246.567 54.4351C246.6 54.4688 246.599 54.523 246.565 54.5561C246.549 54.5725 246.527 54.5807 246.505 54.5807Z" fill="#2C2F37"/>
<path d="M245.07 54.568C245.07 54.9128 245.252 55.1923 245.476 55.1923C245.7 55.1923 245.881 54.9128 245.881 54.568C245.881 54.2232 245.7 53.9437 245.476 53.9437C245.252 53.9437 245.07 54.2232 245.07 54.568Z" fill="#2C2F37"/>
<path d="M247.243 53.058C247.448 53.4071 246.301 52.9808 246.042 52.8948C245.756 52.8004 244.768 52.932 244.618 52.3997C244.398 51.6207 246.066 52.1749 246.365 52.3539C246.673 52.5386 247.086 52.7903 247.243 53.058Z" fill="#2C2F37"/>
<path d="M242.972 54.5807C242.95 54.5807 242.928 54.5721 242.911 54.555C242.472 54.1075 241.987 53.9353 241.43 54.0282C241.383 54.0358 241.339 54.0045 241.331 53.9578C241.323 53.9112 241.355 53.8671 241.402 53.8593C242.018 53.7565 242.552 53.9448 243.033 54.4351C243.067 54.4688 243.066 54.523 243.032 54.5561C243.015 54.5725 242.994 54.5807 242.972 54.5807Z" fill="#2C2F37"/>
<path d="M241.537 54.568C241.537 54.9128 241.719 55.1923 241.943 55.1923C242.166 55.1923 242.348 54.9128 242.348 54.568C242.348 54.2232 242.166 53.9437 241.943 53.9437C241.719 53.9438 241.537 54.2232 241.537 54.568Z" fill="#2C2F37"/>
<path d="M240.648 53.058C240.442 53.4071 241.589 52.9808 241.849 52.8948C242.134 52.8004 243.123 52.932 243.273 52.3997C243.493 51.6207 241.825 52.1749 241.526 52.3539C241.218 52.5386 240.805 52.7903 240.648 53.058Z" fill="#2C2F37"/>
<path d="M241.512 64.8062C241.53 64.3454 242.577 63.1069 242.968 63.185C243.358 63.2632 243.659 64.5152 246.618 64.3236C249.577 64.132 249.978 62.5041 250.647 62.5599C251.317 62.6157 252.179 64.1153 252.217 64.6157C252.255 65.1161 250.056 67.9738 246.473 67.9738C242.889 67.9738 241.496 65.1995 241.512 64.8062Z" fill="#2563EB"/>
<path d="M246.472 68.1022C244.394 68.1022 243.086 67.1948 242.354 66.4336C241.714 65.7671 241.373 65.0453 241.383 64.8011C241.386 64.7302 241.444 64.6755 241.516 64.6779C241.587 64.6807 241.642 64.7404 241.639 64.8112C241.634 64.9457 241.903 65.5934 242.539 66.2556C243.236 66.9808 244.484 67.8454 246.472 67.8454C249.1 67.8454 250.8 66.3186 251.409 65.6622C251.933 65.0966 252.095 64.7133 252.088 64.6253C252.083 64.5546 252.136 64.493 252.207 64.4876C252.279 64.4829 252.339 64.5354 252.344 64.606C252.362 64.8409 252.062 65.3354 251.597 65.8368C250.965 66.518 249.201 68.1022 246.472 68.1022Z" fill="#0B3FDD"/>
<path d="M243.003 66.2911C242.933 66.2911 242.876 66.2349 242.875 66.1646C242.866 65.5397 243.452 64.5582 243.939 64.1931C243.996 64.1504 244.077 64.1621 244.119 64.2188C244.162 64.2755 244.15 64.356 244.094 64.3985C243.667 64.7185 243.124 65.6305 243.132 66.1608C243.133 66.2317 243.076 66.29 243.005 66.2911C243.005 66.2911 243.004 66.2911 243.003 66.2911Z" fill="#0B3FDD"/>
<path d="M245.381 67.3878C245.32 67.3878 245.266 67.3436 245.255 67.2811C245.113 66.4534 245.297 65.1945 245.843 64.604C245.891 64.5519 245.972 64.5488 246.025 64.5969C246.077 64.645 246.08 64.7262 246.032 64.7783C245.555 65.2946 245.376 66.4667 245.508 67.2376C245.52 67.3075 245.473 67.3738 245.403 67.3858C245.396 67.3872 245.389 67.3878 245.381 67.3878Z" fill="#0B3FDD"/>
<path d="M248.721 67.1032C248.711 67.1032 248.701 67.1021 248.691 67.0997C248.622 67.0834 248.58 67.0143 248.596 66.9453C248.727 66.3885 248.314 64.8829 247.891 64.6605C247.828 64.6275 247.804 64.55 247.837 64.4872C247.87 64.4245 247.948 64.4004 248.01 64.4333C248.588 64.7367 248.994 66.3774 248.846 67.0043C248.832 67.0633 248.779 67.1032 248.721 67.1032Z" fill="#0B3FDD"/>
<path d="M251.082 65.6548C251.021 65.6548 250.967 65.6105 250.956 65.5479C250.879 65.0907 250.471 64.0023 249.766 63.7467C249.7 63.7225 249.665 63.6489 249.689 63.5822C249.714 63.5155 249.787 63.4812 249.854 63.5052C250.672 63.8019 251.12 64.9806 251.209 65.505C251.221 65.5749 251.174 65.6412 251.104 65.653C251.097 65.6542 251.09 65.6548 251.082 65.6548Z" fill="#0B3FDD"/>
<path d="M260.077 75.9219C261.902 75.4267 262.98 73.5462 262.484 71.7216C261.989 69.897 260.109 68.8193 258.284 69.3144C256.46 69.8095 255.382 71.6901 255.877 73.5147C256.372 75.3393 258.253 76.417 260.077 75.9219Z" fill="#E28056"/>
<path d="M267.118 87.2672C267.616 88.6954 266.862 90.2568 265.434 90.7546C264.006 91.2525 262.444 90.4984 261.946 89.0702C261.448 87.642 262.203 86.0806 263.631 85.5828C265.059 85.0849 266.62 85.8391 267.118 87.2672Z" fill="#E28056"/>
<path d="M262.412 71.4923L267.118 87.2672L261.946 89.0703L255.947 73.7462L262.412 71.4923Z" fill="#E28056"/>
<path d="M266.244 103.765C266.244 104.71 265.477 105.476 264.532 105.476C263.587 105.476 262.82 104.71 262.82 103.765C262.82 102.819 263.587 102.053 264.532 102.053C265.477 102.053 266.244 102.819 266.244 103.765Z" fill="#E28056"/>
<path d="M267.27 88.1679C267.27 89.6804 266.044 90.9065 264.532 90.9065C263.019 90.9065 261.793 89.6804 261.793 88.1679C261.793 86.6555 263.019 85.4293 264.532 85.4293C266.044 85.4293 267.27 86.6554 267.27 88.1679Z" fill="#E28056"/>
<path d="M267.27 88.168H261.793L262.82 103.765H266.243L267.27 88.168Z" fill="#E28056"/>
<path d="M262.821 103.765L266.236 103.599C266.152 105.823 267.138 106.955 267.369 107.904C267.6 108.854 267.622 109.997 267.5 110.676C267.46 110.895 267.303 111.53 267.17 111.536C266.982 111.544 266.946 111.366 266.929 111.238C266.888 111.628 266.73 112.541 266.448 112.553C266.154 112.566 266.221 112.174 266.147 112.054C266.147 112.054 265.799 113.495 265.428 113.432C264.986 113.357 265.532 111.39 265.283 110.37C265.065 109.477 264.545 107.812 264.151 107.742C263.758 107.673 263.688 108.923 263.85 109.317C264.012 109.71 264.082 110.219 264.082 110.451C264.082 110.682 263.711 110.914 263.433 110.497C263.156 110.08 262.448 108.547 262.322 107.395C262.184 106.124 262.352 104.592 262.821 103.765Z" fill="#ED8056"/>
<path d="M260.653 68.1349C264.26 70.0904 267.899 85.4411 268.167 87.9238C268.389 89.9808 267.523 99.13 267.22 102.207C267.163 102.784 266.679 103.221 266.099 103.221H262.644C262.028 103.221 261.526 102.727 261.518 102.111L261.335 89.0703L254.412 72.8588L256.393 68.8743L260.653 68.1349Z" fill="#2563EB"/>
<path d="M258.658 82.9278C258.608 82.9278 258.56 82.8985 258.54 82.8498L255.227 75.0936C255.199 75.0284 255.23 74.9529 255.295 74.9251C255.36 74.8973 255.435 74.9276 255.463 74.9927L258.776 82.7488C258.804 82.814 258.773 82.8895 258.708 82.9173C258.692 82.9245 258.675 82.9278 258.658 82.9278Z" fill="#0B3FDD"/>
<path d="M263.97 89.248C263.969 89.248 263.968 89.248 263.967 89.248L261.333 89.1986C261.262 89.1972 261.206 89.1387 261.207 89.0678C261.208 88.9977 261.266 88.9418 261.335 88.9418C261.336 88.9418 261.337 88.9418 261.338 88.9418L263.972 88.9912C264.043 88.9926 264.099 89.0511 264.098 89.122C264.097 89.1921 264.04 89.248 263.97 89.248Z" fill="#0B3FDD"/>
</svg>
